SplineFontDB: 3.0
FontName: LinBiolinumOB
FullName: Linux Biolinum O Bold
FamilyName: Linux Biolinum O
Weight: Bold
Copyright: Linux Libertine by Philipp H. Poll,\nOpen Font under Terms of following Free Software Licenses:\nGPL (General Public License) with font-exception and OFL (Open Font License).\nCreated with FontForge (http://fontforge.sf.net)\nSept 2003, 2004, 2005, 2006, 2007, 2008, 2009, 2010, 2011,2012
UComments: "2003-08-29: Created.+AAoA-2004-07-25: v(1.0) release candidate+AAoA-2005-12-28: v(1.1.0) stable+AAoA-2006-01-01: v(2.0.0) stable+AAoA-2006-09-05: v(2.2.0) stable+AAoA-2006-12-04: v(2.3.0) stable+AAoA-2007-03-11: v(2.4.0) stable+AAoA-2007-12-00: v(2.7.0) stable+AAoA-2008-06-00: v(2.8.14) stable+AAoA" 
Version: 1.3.2
ItalicAngle: 0
UnderlinePosition: -98
UnderlineWidth: 40
Ascent: 754
Descent: 246
LayerCount: 2
Layer: 0 0 "Back"  1
Layer: 1 0 "Fore"  0
XUID: [1021 993 1524925707 2876416]
FSType: 0
OS2Version: 3
OS2_WeightWidthSlopeOnly: 0
OS2_UseTypoMetrics: 0
CreationTime: 1156455862
ModificationTime: 1341180402
PfmFamily: 33
TTFWeight: 700
TTFWidth: 5
LineGap: 0
VLineGap: 0
OS2TypoAscent: 894
OS2TypoAOffset: 0
OS2TypoDescent: -246
OS2TypoDOffset: 0
OS2TypoLinegap: 0
OS2WinAscent: 894
OS2WinAOffset: 0
OS2WinDescent: 246
OS2WinDOffset: 0
HheadAscent: 894
HheadAOffset: 0
HheadDescent: -246
HheadDOffset: 0
OS2FamilyClass: 2050
OS2Vendor: 'PfEd'
Lookup: 3 0 0 "'aalt' Alle Alternativen zeigen"  {"'aalt' Alle Alternativen zeigen 1"  } ['aalt' ('DFLT' <'dflt' > 'cyrl' <'dflt' > 'grek' <'dflt' > 'latn' <'AZE ' 'CRT ' 'DEU ' 'MOL ' 'ROM ' 'TRK ' 'dflt' > ) ]
Lookup: 1 0 0 "'locl' Localized Forms Romaenisch"  {"'locl' Localized Forms Romaenisch 1"  } ['locl' ('latn' <'MOL ' 'ROM ' > ) ]
Lookup: 1 0 0 "'smcp' Gemeine nach Kapitaelchen i > i.sc"  {"'smcp' Gemeine nach Kapitaelchen i > i.sc 1"  } ['smcp' ('DFLT' <'dflt' > 'cyrl' <'dflt' > 'grek' <'dflt' > 'latn' <'DEU ' 'MOL ' 'ROM ' 'dflt' > ) ]

StartChar: exclam
Encoding: 33 33 0
Width: 270
VWidth: 999
Flags: HW
HStem: -20 141<93.5841 174.231> 638 20G<120 147>
VStem: 62 142<7.33871 89.5176> 63 141<439.802 636.71>
LayerCount: 2
Fore
SplineSet
132 658 m 0
 162 658 204 635 204 585 c 0
 204 520 186 478 175 392 c 0
 161 284 160 224 158 210 c 0
 157 199 143 190 132 190 c 0
 120 190 108 197 107 203 c 0
 105 224 99 314 90 392 c 0
 80 480 63 515 63 585 c 0
 63 639 108 658 132 658 c 0
62 48 m 1
 62 53 l 1
 75 86 93 106 131 121 c 1
 135 121 l 1
 172 108 191 89 204 53 c 1
 204 48 l 1
 190 7 171 -11 135 -20 c 1
 131 -20 l 1
 90 -11 73 6 62 48 c 1
EndSplineSet
Colour: ff80cc
EndChar

StartChar: quotedbl
Encoding: 34 34 1
Width: 375
VWidth: 999
Flags: HW
HStem: 421 223<94 126 108 126> 422 223<237 269 251 269>
LayerCount: 2
Fore
SplineSet
251 422 m 1
 236 426 l 1
 236 426 204 586 204 592 c 0
 204 615 226 646 269 646 c 0
 311 646 314 627 314 609 c 0
 314 594 277 428 277 428 c 1
 251 422 l 1
108 421 m 1
 93 425 l 1
 93 425 61 585 61 591 c 0
 61 614 83 645 126 645 c 0
 168 645 171 626 171 608 c 0
 171 593 134 427 134 427 c 1
 108 421 l 1
EndSplineSet
Colour: ff00ff
EndChar

StartChar: numbersign
Encoding: 35 35 2
Width: 514
Flags: HW
HStem: 187 66<37.5 127.5 192.5 280.5 341.5 451.5> 360 66<63.5 154.5 218.5 305.5 368.5 476.5> 579 20G<187.5 248.5 338.5 395.5>
DStem2: 99.5 14 154.5 14 0.158649 0.987335<8.72568 175.251 250.727 350.344 425.661 592.345> 251.5 14 304.5 14 0.155356 0.987859<8.23384 175.405 250.08 350.188 425.174 592.19>
LayerCount: 2
Fore
SplineSet
288.5 253 m 1
 305.5 360 l 1
 211.5 360 l 1
 205.5 323 198.5 290 192.5 253 c 1
 288.5 253 l 1
358.5 360 m 1
 341.5 253 l 1
 459.5 253 l 1
 451.5 187 l 1
 332.5 187 l 1
 322.5 127 314.5 72 304.5 14 c 1
 251.5 14 l 1
 280.5 187 l 1
 184.5 187 l 1
 173.5 127 165.5 72 154.5 14 c 1
 99.5 14 l 1
 127.5 187 l 1
 28.5 187 l 1
 37.5 253 l 1
 137.5 253 l 1
 143.5 290 149.5 323 154.5 360 c 1
 54.5 360 l 1
 63.5 426 l 1
 163.5 426 l 1
 173.5 484 182.5 541 192.5 599 c 1
 248.5 599 l 1
 218.5 426 l 1
 315.5 426 l 1
 325.5 484 333.5 541 343.5 599 c 1
 395.5 599 l 1
 368.5 426 l 1
 485.5 426 l 1
 476.5 360 l 1
 358.5 360 l 1
EndSplineSet
EndChar

StartChar: dollar
Encoding: 36 36 3
Width: 514
VWidth: 999
Flags: HMW
HStem: -9.5 48.2<265.254 316.267> 563.7 46.3<212.171 263.503>
VStem: 60 117<411.835 524.114> 349 127<90.6723 213.211>
DStem2: 214.555 -98.2666 255.5 -93.25 0.0737434 0.997277<7.80138 89.0172 140.296 354.51 472.331 660.578 710.162 793.883>
LayerCount: 2
Fore
SplineSet
249.4 372.8 m 1
 263.5 563.7 l 1
 215.9 559.8 177 518.7 177 474 c 0
 177 416.1 214.3 388.8 249.4 372.8 c 1
281.1 252.3 m 1
 265.3 38.7 l 1
 314.4 43.7 349 77.3 349 138 c 0
 349 188.6 328.7 228.9 281.1 252.3 c 1
261.7 -9.5 m 1
 255.5 -93.2 l 1
 248.2 -97.4 224.6 -98.3 214.6 -98.3 c 1
 221.1 -9.5 l 1
 119.4 -4.8 47 31 47 31 c 1
 45 33 l 1
 52 61 60 109 64 142 c 1
 82 143 l 1
 110 101.4 172 54.7 224.9 41.6 c 1
 241.7 268.5 l 1
 159.8 302.2 60 355.3 60 449 c 0
 60 550.1 158 610 266.9 610 c 1
 272.8 689.5 l 1
 282 693 301 694.5 313.8 694.5 c 1
 307.3 607.7 l 1
 394.5 598.9 451 568 451 568 c 1
 453 565 l 1
 445 537 438 491 434 458 c 1
 406 457 l 1
 386.7 494 347.4 540.6 303.6 557.5 c 1
 288.8 357.5 l 1
 366.6 328.9 476 275.9 476 171 c 0
 476 80 399.9 -2.7 261.7 -9.5 c 1
EndSplineSet
EndChar

StartChar: percent
Encoding: 37 37 4
Width: 637
VWidth: 999
Flags: HW
HStem: -19 39<464.6 519.99> 214 36<494.292 553.315> 297 39<145.6 200.99> 474 45<285.497 457.718> 530 36<175.292 234.315>
VStem: 51 93<336.471 492.517> 243 42<385.167 510.902> 370 93<20.4706 176.517> 562 42<69.1669 208.803>
DStem2: 96 -4 150 -16 0.588938 0.808178<22.1045 620.449 651.051 709.262>
LayerCount: 2
Fore
SplineSet
463 53 m 0
 463 39.7 466 20 483 20 c 0
 503.7 20 523.4 36.7 537 60 c 0
 553.6 88.4 562 126.8 562 157 c 0
 562 209 537 214 523 214 c 0
 503.1 214 484.7 191.7 475 162 c 0
 463.8 127.7 463 83.6 463 53 c 0
370 91 m 0
 370 171 423 250 512 250 c 0
 560 250 604 231 604 159 c 0
 604 60 550 -19 471 -19 c 0
 438.7 -19 409.7 -10.5 393 11 c 0
 379 29 370 54 370 91 c 0
144 369 m 0
 144 355.7 147 336 164 336 c 0
 184.7 336 204.4 352.7 218 376 c 0
 234.6 404.4 243 442.8 243 473 c 0
 243 525 218 530 204 530 c 0
 184.1 530 165.7 507.7 156 478 c 0
 144.8 443.7 144 399.6 144 369 c 0
51 407 m 0
 51 487 104 566 193 566 c 0
 219 566 243.8 560.4 261.1 543.9 c 1
 302.9 542.4 346.6 519 364 519 c 0
 406 519 473 525 514 569 c 1
 561 548 l 1
 150 -16 l 1
 96 -4 l 1
 462 497 l 1
 423 481 384 474 354 474 c 0
 332.5 474 303.3 482.7 284 492.8 c 1
 284.7 487.3 285 481.3 285 475 c 0
 285 376 231 297 152 297 c 0
 119.7 297 90.7 305.5 74 327 c 0
 60 345 51 370 51 407 c 0
EndSplineSet
EndChar

StartChar: parenleft
Encoding: 40 40 5
Width: 338
VWidth: 999
Flags: HW
VStem: 44 131<111.849 388.582>
LayerCount: 2
Fore
SplineSet
44 252 m 0
 44 422 156 605 275 707 c 1
 307 679 l 1
 275 643 175 518 175 255 c 0
 175 -8 274 -139 307 -177 c 1
 275 -204 l 1
 102 -40 44 117.9 44 252 c 0
EndSplineSet
Substitution2: "'c2sc' Versale nach Kapitaelchen 1" parenleft.sc
AlternateSubs2: "'aalt' Alle Alternativen zeigen 1" parenleft.sc
Substitution2: "'sinf' Wissenschaftliche Indices 1" parenleft.inferior
Substitution2: "'sups' Hochgestellte 1" parenleft.superior
Substitution2: "'case' Versalformen 1" parenleft.sc
EndChar

StartChar: parenright
Encoding: 41 41 6
Width: 338
VWidth: 999
Flags: HW
VStem: 163 131<115.418 392.151>
LayerCount: 2
Fore
SplineSet
294 252 m 0
 294 82 182 -101 63 -203 c 1
 31 -175 l 1
 63 -139 163 -14 163 249 c 0
 163 512 64 643 31 681 c 1
 63 708 l 1
 236 544 294 386.1 294 252 c 0
EndSplineSet
Substitution2: "'c2sc' Versale nach Kapitaelchen 1" parenright.sc
AlternateSubs2: "'aalt' Alle Alternativen zeigen 1" parenright.sc
Substitution2: "'sinf' Wissenschaftliche Indices 1" parenright.inferior
Substitution2: "'sups' Hochgestellte 1" parenright.superior
Substitution2: "'case' Versalformen 1" parenright.sc
Colour: ff00ff
EndChar

StartChar: asterisk
Encoding: 42 42 7
Width: 433
VWidth: 999
Flags: HMW
HStem: 571 69<91 156 274 348>
VStem: 173 78<622 713>
LayerCount: 2
Fore
SplineSet
197 566 m 1
 184 568 171 573 156 571 c 0
 111 563 75 563 75 608 c 0
 75 622 84 640 108 640 c 0
 142 640 159 607 203 588 c 1
 199 628 173 653 173 679 c 0
 173 700 193 718 211 718 c 0
 229 718 251 707 251 683 c 0
 251 656 228 618 226 588 c 1
 271 607 282 642 315 642 c 0
 346 642 354 618 354 608 c 0
 354 578 320 568 285 568 c 0
 266 568 249 568 231 565 c 1
 265 529 316 531 316 480 c 0
 316 462 298 451 284 451 c 0
 235 451 238 513 213 552 c 1
 188 507 202 451 143 451 c 0
 126 451 114 464 114 479 c 0
 114 533 164 528 197 566 c 1
EndSplineSet
EndChar

StartChar: plus
Encoding: 43 43 8
Width: 520
Flags: HW
HStem: 202 60<60 230 290 460> 413 20G<230 290>
VStem: 230 60<32 202 262 433>
LayerCount: 2
Fore
SplineSet
290 262 m 1
 460 262 l 1
 460 202 l 1
 290 202 l 1
 290 32 l 1
 230 32 l 1
 230 202 l 1
 60 202 l 1
 60 262 l 1
 230 262 l 1
 230 433 l 1
 290 433 l 1
 290 262 l 1
EndSplineSet
AlternateSubs2: "'aalt' Alle Alternativen zeigen 1" plus.superior plus.inferior uni2098
Substitution2: "'sinf' Wissenschaftliche Indices 1" plus.inferior
Substitution2: "'sups' Hochgestellte 1" plus.superior
EndChar

StartChar: slash
Encoding: 47 47 9
Width: 342
VWidth: 999
Flags: HW
HStem: 626 20G<245.277 312>
VStem: 15 297
DStem2: 15 -59 75 -59 0.318647 0.947874<19.1188 743.77>
LayerCount: 2
Fore
SplineSet
312 646 m 1
 75 -59 l 1
 15 -59 l 1
 252 646 l 1
 312 646 l 1
EndSplineSet
Ligature2: "'frac' Brueche 1" uni2215
AlternateSubs2: "'aalt' Alle Alternativen zeigen 1" uni2215
EndChar

StartChar: one
Encoding: 49 49 10
Width: 514
VWidth: 999
Flags: HW
HStem: -3 21G<220 298 298 379> 492 43<104 187.913>
VStem: 231 136<2.80533 495.947>
LayerCount: 2
Fore
SplineSet
367 189 m 2
 367 110 370 60 379 0 c 1
 377 -3 l 1
 377 -3 334 0 298 0 c 0
 261 0 221 -3 221 -3 c 1
 220 0 l 1
 229 56 231 111 231 189 c 2
 231 433 l 2
 231 469 230 498 213 498 c 0
 193 498 148 498 104 492 c 1
 102 535 l 1
 195 556 306 589 371 610 c 1
 375 610 378 610 378 605 c 0
 376 591 367 550 367 442 c 2
 367 189 l 2
EndSplineSet
AlternateSubs2: "'aalt' Alle Alternativen zeigen 1" one.oldstyle one.superior one.fitted
Substitution2: "'sups' Hochgestellte 1" one.superior
Substitution2: "'sinf' Wissenschaftliche Indices 1" one.inferior
Substitution2: "'pnum' Proportionalziffern 1" one.fitted
Substitution2: "'onum' Minuskelziffern 1" one.taboldstyle
EndChar

StartChar: two
Encoding: 50 50 11
Width: 514
VWidth: 487
Flags: HW
HStem: 0 100<194 454.031> 471 21G<66 126.5> 556 54<160.372 269.431>
VStem: 302 155<375.178 523.963>
LayerCount: 2
Fore
SplineSet
226 556 m 0
 177 556 143 530 110 471 c 1
 66 472 l 1
 45 551 l 1
 48 555 l 1
 73 577 162 610 234 610 c 0
 353 610 457 561 457 453 c 0
 457 377 408 338 351 283 c 2
 251 186 l 2
 230 166 194 116 194 100 c 1
 276 100 l 2
 376 100 404 105 462 109 c 1
 459 96 456 56 456 43 c 0
 456 30 459 9 462 -4 c 1
 387 -1 363 0 288 0 c 0
 212 0 136.1 -2.4 39 -4 c 1
 38 0 l 1
 38 59 68 105 166 205 c 1
 240 278 l 1
 299 338 302 390 302 454 c 0
 302 516 262 556 226 556 c 0
EndSplineSet
AlternateSubs2: "'aalt' Alle Alternativen zeigen 1" two.oldstyle two.superior two.fitted
Substitution2: "'sups' Hochgestellte 1" two.superior
Substitution2: "'sinf' Wissenschaftliche Indices 1" two.inferior
Substitution2: "'pnum' Proportionalziffern 1" two.fitted
Substitution2: "'onum' Minuskelziffern 1" two.taboldstyle
EndChar

StartChar: three
Encoding: 51 51 12
Width: 514
VWidth: 487
Flags: HW
HStem: -11 42<148.621 265.088> 292 40<153 238.195> 568 42<163.811 272.43>
VStem: 311 127<402.012 529.108> 315 152<96.8234 254.248>
LayerCount: 2
Fore
SplineSet
213 31 m 0
 248 31 315 61 315 177 c 0
 315 272 259 294 202 294 c 0
 193 294 165 294 153 292 c 1
 153 332 l 1
 255 339 311 383 311 466 c 0
 311 519 268 568 229 568 c 0
 161.6 568 142.6 531.6 113 470 c 1
 69 471 l 1
 48 550 l 1
 51 554 l 1
 76 576 150 610 238 610 c 0
 360 610 438 576 438 482 c 0
 438 398 382 348 309 329 c 1
 309 326 l 1
 383 319 467 276 467 180 c 0
 467 58 354.6 -11 211 -11 c 0
 117.6 -11 65 23 40 45 c 1
 36 50 l 1
 58 129 l 1
 102 130 l 1
 135 71 138 31 213 31 c 0
EndSplineSet
AlternateSubs2: "'aalt' Alle Alternativen zeigen 1" three.oldstyle three.superior three.fitted
Substitution2: "'sups' Hochgestellte 1" three.superior
Substitution2: "'sinf' Wissenschaftliche Indices 1" three.inferior
Substitution2: "'pnum' Proportionalziffern 1" three.fitted
Substitution2: "'onum' Minuskelziffern 1" three.taboldstyle
EndChar

StartChar: four
Encoding: 52 52 13
Width: 514
Flags: HW
HStem: -3 21G<251 322 322 396> 162 47<76.8153 261 385 495.734> 590 20G<249.33 387>
VStem: 261 124<2.47862 162 209 498>
LayerCount: 2
Fore
SplineSet
261 498 m 1
 208 426 126 293 76 209 c 1
 261 209 l 1
 261 498 l 1
261 162 m 1
 84 162 l 2
 60 162 56 164 51 169 c 2
 36 187 l 1
 30 198 17 206 17 210 c 0
 17 213 22 219 24 223 c 0
 106 347 216.7 513 282 610 c 1
 302 608.2 348.2 607.8 385 610 c 1
 387 608 l 1
 385.8 593.2 385 209 385 209 c 1
 483 209 l 2
 494 209 498 203 498 193 c 0
 498 181 483 162 469 162 c 2
 385 162 l 1
 386 98 389 53 396 0 c 1
 394 -3 l 1
 394 -3 354 0 322 0 c 0
 289 0 252 -3 252 -3 c 1
 251 0 l 1
 258 49 261 98 261 162 c 1
EndSplineSet
AlternateSubs2: "'aalt' Alle Alternativen zeigen 1" four.oldstyle four.superior four.fitted
Substitution2: "'sups' Hochgestellte 1" four.superior
Substitution2: "'sinf' Wissenschaftliche Indices 1" four.inferior
Substitution2: "'pnum' Proportionalziffern 1" four.fitted
Substitution2: "'onum' Minuskelziffern 1" four.taboldstyle
EndChar

StartChar: five
Encoding: 53 53 14
Width: 514
VWidth: 487
Flags: HW
HStem: -10 49<150.017 277.346> 327 53<155.543 282.882> 505 94<163.244 434.427> 511 99<162 245.242 249.509 295.837 299.432 435>
VStem: 324 142<112.507 282.815>
LayerCount: 2
Fore
SplineSet
242 -10 m 0
 147 -10 91 0 50 35 c 1
 47 40 l 1
 68 119 l 1
 102 120 l 1
 135 61 165 39 224 39 c 0
 269 39 324 80 324 178 c 0
 324 239.3 313.9 283.8 280 307.5 c 0
 264.7 318.2 243.2 327 218 327 c 0
 169.1 327 146.1 313.7 112.5 286 c 1
 88.5 293.5 l 1
 103.6 329.5 115 563.5 103 606 c 1
 105 609 l 1
 140 606 210 599 247 599 c 0
 300 599 387 604 444 610 c 1
 450 607 l 1
 435 511 l 1
 394 507 328 505 298 505 c 0
 252 505 196 509 162 513 c 1
 155 366 l 1
 177 374 219.5 380 274 380 c 0
 320 380 369.3 363.9 402.5 337.5 c 0
 439 308.5 466 258.9 466 206 c 0
 466 76 362 -10 242 -10 c 0
EndSplineSet
AlternateSubs2: "'aalt' Alle Alternativen zeigen 1" five.oldstyle five.superior five.fitted
Substitution2: "'sups' Hochgestellte 1" five.superior
Substitution2: "'sinf' Wissenschaftliche Indices 1" five.inferior
Substitution2: "'pnum' Proportionalziffern 1" five.fitted
Substitution2: "'onum' Minuskelziffern 1" five.taboldstyle
EndChar

StartChar: six
Encoding: 54 54 15
Width: 514
Flags: HW
HStem: -10 39<224.347 310.848> 315 50<204.23 295.75> 569 41<339.203 447.96>
VStem: 44 126<115.719 300.126> 343 134<109.662 262.764>
LayerCount: 2
Fore
SplineSet
171 289 m 1
 170 278 170 253 170 242 c 0
 170 68 225 29 275 29 c 0
 311 29 343 78 343 186 c 0
 343 245.5 303 315 245 315 c 0
 227 315 209.5 312.5 171 289 c 1
450 569 m 1
 393 566 324 557 265 509 c 0
 217.9 470.7 184 402.5 176.5 330.5 c 1
 212.5 349.5 255 362 279 365 c 1
 442.5 361.5 477 253 477 204 c 0
 477 115.5 419 -10 263 -10 c 0
 162 -10 44 32 44 246 c 0
 44 342 75.7 447.2 152 513 c 0
 228 578.5 303 605.5 444 610 c 1
 451.8 600.4 453.1 581.2 450 569 c 1
EndSplineSet
AlternateSubs2: "'aalt' Alle Alternativen zeigen 1" six.oldstyle six.superior six.fitted
Substitution2: "'sups' Hochgestellte 1" six.superior
Substitution2: "'sinf' Wissenschaftliche Indices 1" six.inferior
Substitution2: "'pnum' Proportionalziffern 1" six.fitted
Substitution2: "'onum' Minuskelziffern 1" six.taboldstyle
EndChar

StartChar: seven
Encoding: 55 55 16
Width: 514
VWidth: 487
Flags: HMW
HStem: -13 22G<144 235> 511 89<120 359>
LayerCount: 2
Fore
SplineSet
375 496 m 1
 316 496 207 488 79 481 c 1
 81 496 84 540 84 555 c 0
 84 570 81 594 79 609 c 1
 121 603 250 599 399 599 c 0
 430 599 448 603 463 607 c 1
 477 587 l 1
 365 315 308 161 251 -9 c 1
 133 -13 l 1
 130 -6 l 1
 194 139 300 310 375 496 c 1
EndSplineSet
AlternateSubs2: "'aalt' Alle Alternativen zeigen 1" seven.oldstyle seven.superior seven.fitted
Substitution2: "'sups' Hochgestellte 1" seven.superior
Substitution2: "'sinf' Wissenschaftliche Indices 1" seven.inferior
Substitution2: "'pnum' Proportionalziffern 1" seven.fitted
Substitution2: "'onum' Minuskelziffern 1" seven.taboldstyle
EndChar

StartChar: nine
Encoding: 57 57 17
Width: 514
VWidth: 487
Flags: HW
HStem: -10 41<74.0399 182.797> 235 50<226.25 317.77> 571 39<211.152 297.653>
VStem: 45 134<337.236 490.338> 352 126<299.874 484.281>
LayerCount: 2
Fore
SplineSet
351 311 m 1
 352 322 352 347 352 358 c 0
 352 532 297 571 247 571 c 0
 211 571 179 522 179 414 c 0
 179 354.5 219 285 277 285 c 0
 295 285 312.5 287.5 351 311 c 1
72 31 m 1
 129 34 198 43 257 91 c 0
 304.1 129.3 338 197.5 345.5 269.5 c 1
 309.5 250.5 267 238 243 235 c 1
 79.5 238.5 45 347 45 396 c 0
 45 484.5 103 610 259 610 c 0
 360 610 478 568 478 354 c 0
 478 258 446.3 152.8 370 87 c 0
 294 21.5 219 -5.5 78 -10 c 1
 70.2 -0.4 68.9 18.8 72 31 c 1
EndSplineSet
AlternateSubs2: "'aalt' Alle Alternativen zeigen 1" nine.oldstyle nine.superior nine.fitted
Substitution2: "'sups' Hochgestellte 1" nine.superior
Substitution2: "'sinf' Wissenschaftliche Indices 1" nine.inferior
Substitution2: "'pnum' Proportionalziffern 1" nine.fitted
Substitution2: "'onum' Minuskelziffern 1" nine.taboldstyle
Colour: ff00ff
EndChar

StartChar: colon
Encoding: 58 58 18
Width: 253
VWidth: 999
Flags: HW
HStem: 0 141<92.5841 173.231> 291 141<92.5841 173.231>
VStem: 61 142<27.3387 109.518 318.339 400.518>
LayerCount: 2
Fore
SplineSet
61 359 m 1
 61 364 l 1
 74 397 92 417 130 432 c 1
 134 432 l 1
 171 419 190 400 203 364 c 1
 203 359 l 1
 189 318 170 300 134 291 c 1
 130 291 l 1
 89 300 72 317 61 359 c 1
61 68 m 1
 61 73 l 1
 74 106 92 126 130 141 c 1
 134 141 l 1
 171 128 190 109 203 73 c 1
 203 68 l 1
 189 27 170 9 134 0 c 1
 130 0 l 1
 89 9 72 26 61 68 c 1
EndSplineSet
Colour: ff00ff
EndChar

StartChar: less
Encoding: 60 60 19
Width: 512
Flags: HW
HStem: 408 20G<416 471>
DStem2: 42 272 153 240 0.939793 0.341743<93.3813 428.46> 153 240 42 208 0.939793 -0.341743<0 335.079>
LayerCount: 2
Fore
SplineSet
153 240 m 1
 471 134 l 1
 471 52 l 1
 42 208 l 1
 42 272 l 1
 471 428 l 1
 471 346 l 1
 153 240 l 1
EndSplineSet
EndChar

StartChar: equal
Encoding: 61 61 20
Width: 551
Flags: HW
HStem: 123 70<59 493> 271 70<59 493>
LayerCount: 2
Fore
SplineSet
493 193 m 1
 493 123 l 1
 59 123 l 1
 59 193 l 1
 493 193 l 1
493 341 m 1
 493 271 l 1
 59 271 l 1
 59 341 l 1
 493 341 l 1
EndSplineSet
AlternateSubs2: "'aalt' Alle Alternativen zeigen 1" equal.superior
Substitution2: "'sinf' Wissenschaftliche Indices 1" equal.inferior
Substitution2: "'sups' Hochgestellte 1" equal.superior
EndChar

StartChar: greater
Encoding: 62 62 21
Width: 512
Flags: HW
HStem: 408 20G<42 97>
LayerCount: 2
Fore
SplineSet
360 240 m 1
 42 346 l 1
 42 428 l 1
 471 272 l 1
 471 208 l 1
 42 52 l 1
 42 134 l 1
 360 240 l 1
EndSplineSet
Colour: ff00ff
EndChar

StartChar: question
Encoding: 63 63 22
Width: 464
VWidth: 487
Flags: HW
HStem: -20 141<164.584 245.231> 610 49<154.851 257.81>
VStem: 133 142<7.33871 89.5176> 177 66<176.069 309.679> 295 128<436.782 568.365>
LayerCount: 2
Fore
SplineSet
215 610 m 0
 159 610 118 561 92 516 c 1
 59 517 l 1
 43 593 l 1
 46 597 l 1
 70.5 617.5 151.5 659 224 659 c 0
 268.1 659 318.2 655.1 354 635 c 0
 401.1 608.6 423 559.7 423 508 c 0
 423 429 350 380 303 346 c 0
 274.1 324.6 243 302 243 228 c 2
 243 189 l 2
 243 182 218 174 210 174 c 0
 202 174 177 182 177 189 c 2
 177 230 l 2
 177 273 189 332 254 391 c 0
 294 428 295 467.7 295 504 c 0
 295 540 262 610 215 610 c 0
133 48 m 1
 133 53 l 1
 146 86 164 106 202 121 c 1
 206 121 l 1
 243 108 262 89 275 53 c 1
 275 48 l 1
 261 7 242 -11 206 -20 c 1
 202 -20 l 1
 161 -11 144 6 133 48 c 1
EndSplineSet
Colour: ff80cc
EndChar

StartChar: at
Encoding: 64 64 23
Width: 1068
Flags: HMW
HStem: -170 49<435.509 699.945> 19 42<663 767.608> 30 47<467.725 559.656> 377 38<534.462 633.144> 584 47<435.721 652.987>
VStem: 92 114<110.363 336.661> 337 117<88.8325 253.701> 865 105<193.312 386.348>
DStem2: 617 193 713 141 0.222927 0.974835<-83.5955 129.137>
LayerCount: 2
Fore
SplineSet
646 320 m 0
 646 355 622 377 597 377 c 0
 500.7 377 454 265.6 454 164 c 0
 454 117 463 77 510 77 c 0
 540 77 590 107 617 193 c 0
 627 226 646 296 646 320 c 0
700 75 m 0
 700 62 707 61 718 61 c 0
 755 61 865 129 865 273 c 0
 865 494 661 584 544 584 c 0
 389 584 206 459 206 228 c 0
 206 80 317 -121 561 -121 c 0
 638 -121 749 -97 811 -46 c 1
 823 -50 830 -72 832 -85 c 1
 768 -134 665 -170 542 -170 c 0
 305 -170 92 -7 92 221 c 0
 92 428 300 631 553 631 c 0
 779 631 970 476 970 287 c 0
 970 147 832 19 698 19 c 0
 628 19 610 55 610 76 c 1
 569 38 498 30 474 30 c 0
 358 30 337 117 337 158 c 0
 337 303 469 415 584 415 c 0
 632 415 691 398 708 377 c 1
 745 410 l 1
 772 399 l 1
 713 141 l 2
 707 115 700 86 700 75 c 0
EndSplineSet
EndChar

StartChar: A
Encoding: 65 65 24
Width: 701
Flags: HMW
HStem: -3 21G<26 69.8553 115 128.893 503.999 515.5 654 670.5> 221 53<223.642 411.509> 633 20G<264.499 448>
DStem2: 315 653 223.642 275.917 0.410133 0.912026<-381.378 -144.166> 405 653 323.043 494 0.385414 -0.922744<115.129 351.246>
AnchorPoint: "unten_punkt" 272 -108 basechar 0
AnchorPoint: "unten_anhang" 60 8 basechar 0
AnchorPoint: "top_akzent" 344 798 basechar 0
AnchorPoint: "top_punkt" 344 700 basechar 0
LayerCount: 2
Fore
SplineSet
411.5 275.1 m 1
 387.3 338.5 358.7 412 323 494 c 1
 317.1 494 l 1
 223.6 275.9 l 1
 255 274.5 299.1 274 328 274 c 0
 351.7 274 383.1 274.5 411.5 275.1 c 1
200.3 219.2 m 1
 166.2 135.1 136.8 56.2 121 -3 c 1
 109 0 87 0 76 0 c 0
 65 0 32 0 20 -3 c 1
 121 218 219 431 315 653 c 1
 405 653 l 1
 491 434 629 98 679 -3 c 1
 662 0 605 0 588 0 c 0
 571 0 524 0 507 -3 c 1
 501 18.7 479.3 93.7 432.5 219.7 c 1
 399.8 220.4 365.1 221 333 221 c 0
 297.3 221 238.3 220.1 200.3 219.2 c 1
EndSplineSet
Substitution2: "'ss05' Elbischer Stilsatz-1" A.elb
Position2: "'cpsp' Versalabstaende 1" dx=2 dy=0 dh=5 dv=0
Substitution2: "'c2sc' Versale nach Kapitaelchen 1" a.sc
EndChar

StartChar: B
Encoding: 66 66 25
Width: 675
VWidth: 999
Flags: HW
HStem: -3 53<215.709 439.082> 322 53<245 401.023> 595 53<214.342 397.138>
VStem: 103 142<61.1856 322 375 585.479> 426 149<431.082 565.301> 473 161<105.896 265.022>
AnchorPoint: "unten_punkt" 288 -108 basechar 0
AnchorPoint: "unten_anhang" 270 0 basechar 0
AnchorPoint: "top_punkt" 302 700 basechar 0
AnchorPoint: "top_akzent" 301 798 basechar 0
LayerCount: 2
Fore
SplineSet
245 550 m 2
 245 375 l 1
 323 375 l 2
 406 375 426 408 426 481 c 0
 426 568.3 392 595 336 595 c 0
 255 595 245 583 245 550 c 2
245 322 m 1
 245 97 l 2
 245 64 262 50 332 50 c 0
 466 50 473 96 473 165 c 0
 473 236.2 455 322 338 322 c 2
 245 322 l 1
177 645 m 0
 240 645 304 648 339 648 c 0
 525 648 575 560 575 493 c 0
 575 438 523 385 472 360 c 1
 559 335 634 280 634 184 c 0
 634 98 560 -3 361 -3 c 0
 272 -3 249 0 177 0 c 0
 142 0 92 -3 92 -3 c 1
 91 0 l 1
 99 54 103 125 103 200 c 2
 103 445 l 2
 103 520 99 588 91 645 c 1
 93 648 l 1
 93 648 143 645 177 645 c 0
EndSplineSet
Substitution2: "'ss05' Elbischer Stilsatz-1" B.elb
Position2: "'cpsp' Versalabstaende 1" dx=2 dy=0 dh=5 dv=0
Substitution2: "'c2sc' Versale nach Kapitaelchen 1" b.sc
EndChar

StartChar: C
Encoding: 67 67 26
Width: 706
VWidth: 999
Flags: HW
HStem: -10 60<328.903 508.738> 603 55<330.62 500.335>
VStem: 52 163<192.642 437.454>
AnchorPoint: "unten_punkt" 404 -110 basechar 0
AnchorPoint: "unten_anhang" 380 -7 basechar 0
AnchorPoint: "top_punkt" 401 700 basechar 0
AnchorPoint: "top_akzent" 401 798 basechar 0
LayerCount: 2
Fore
SplineSet
414 658 m 0
 536 658 639 613 639 613 c 1
 641 610 l 1
 629.2 560.7 624.6 531 621 480 c 1
 591 479 l 1
 550 561 497 603 407 603 c 0
 325 603 215 532 215 329 c 0
 215 158.8 297 50 406 50 c 0
 499 50 554 67 629 139 c 1
 653 105 l 1
 569 18 469.2 -10 380 -10 c 0
 295.2 -10 235.1 7.7 175 48 c 0
 96 101 52 205 52 310 c 0
 52 419.9 97.1 522.3 176 584 c 0
 238.5 632.8 323 658 414 658 c 0
EndSplineSet
Substitution2: "'ss05' Elbischer Stilsatz-1" C.elb
Position2: "'cpsp' Versalabstaende 1" dx=2 dy=0 dh=5 dv=0
Substitution2: "'c2sc' Versale nach Kapitaelchen 1" c.sc
EndChar

StartChar: D
Encoding: 68 68 27
Width: 761
VWidth: 999
Flags: HW
HStem: -2 53<216.796 465.099> 595 53<215.537 433.76>
VStem: 101 144<64.2018 582.482> 548 161<189.196 434.615>
AnchorPoint: "top_punkt" 385 721 basechar 0
AnchorPoint: "top_akzent" 386 804 basechar 0
AnchorPoint: "unten_punkt" 381 -113 basechar 0
AnchorPoint: "unten_anhang" 366 0 basechar 0
LayerCount: 2
Fore
SplineSet
245 101 m 2
 245 69 266.9 51 343 51 c 0
 484 51 548 92 548 294 c 0
 548 448 534 595 318 595 c 0
 269 595 245 580 245 545 c 2
 245 101 l 2
175 645 m 0
 245.6 645 285.4 648 356 648 c 0
 548 648 709 514.5 709 318 c 0
 709 72 515 -2 374 -2 c 0
 286.9 -2 252.6 0 175 0 c 0
 140 0 90 -3 90 -3 c 1
 89 0 l 1
 97 54 101 125 101 200 c 2
 101 445 l 2
 101 520 97 588 89 645 c 1
 91 648 l 1
 91 648 141 645 175 645 c 0
EndSplineSet
Substitution2: "'ss05' Elbischer Stilsatz-1" D.elb
Position2: "'cpsp' Versalabstaende 1" dx=2 dy=0 dh=5 dv=0
Substitution2: "'c2sc' Versale nach Kapitaelchen 1" d.sc
EndChar

StartChar: E
Encoding: 69 69 28
Width: 594
VWidth: 999
Flags: HW
HStem: 0 73<244.435 485.676> 311 61<240 465.912> 577 68<244.435 478.84>
VStem: 96 144<74.1699 311 372 575.826>
AnchorPoint: "unten_anhang" 299 4 basechar 0
AnchorPoint: "unten_punkt" 299 -107 basechar 0
AnchorPoint: "top_punkt" 300 700 basechar 0
AnchorPoint: "top_akzent" 303 805 basechar 0
LayerCount: 2
Fore
SplineSet
240 200 m 2
 240 183 241 97 248 73 c 1
 382 73 544 95 544 95 c 1
 546 91 l 1
 545 83 544 46 544 36 c 0
 544 26 544.5 13.2 546 0 c 1
 544 -3 l 1
 528 -1 505 0 484 0 c 2
 170 0 l 2
 135 0 85 -3 85 -3 c 1
 84 0 l 1
 92 54 96 125 96 200 c 2
 96 445 l 2
 96 520 92 588 84 645 c 1
 86 648 l 1
 86 648 136 645 170 645 c 2
 474 645 l 2
 495 645 518 646 534 648 c 1
 536 645 l 1
 534.8 631 534 618 534 610 c 0
 534 601 535 577 536 569 c 1
 534 565 l 1
 534 565 382 577 248 577 c 1
 241 553 240 462 240 445 c 2
 240 372 l 1
 358 372 418 377 477 382 c 1
 480 379 l 1
 478 370 477 351 477 342 c 0
 477 333 478 313 480 304 c 1
 477 301 l 1
 408 308 288 311 240 311 c 1
 240 200 l 2
EndSplineSet
Substitution2: "'ss05' Elbischer Stilsatz-1" E.elb
Position2: "'cpsp' Versalabstaende 1" dx=2 dy=0 dh=5 dv=0
Substitution2: "'c2sc' Versale nach Kapitaelchen 1" e.sc
EndChar

StartChar: F
Encoding: 70 70 29
Width: 554
VWidth: 999
Flags: HW
HStem: -3 21G<86 172 172 252> 301 61<242 467.912> 577 68<246.435 481.471>
VStem: 98 144<2.67992 301 362 575.826>
AnchorPoint: "unten_anhang" 155 -1 basechar 0
AnchorPoint: "unten_punkt" 221 -111 basechar 0
AnchorPoint: "top_punkt" 307 700 basechar 0
AnchorPoint: "top_akzent" 306 798 basechar 0
LayerCount: 2
Fore
SplineSet
468 645 m 2
 492 645 515 646 531 648 c 1
 533 645 l 1
 532 631 531 618 531 610 c 0
 531 601 532 567 533 559 c 1
 531 555 l 1
 531 555 384 577 250 577 c 1
 243 553 242 462 242 445 c 2
 242 362 l 1
 360 362 420 367 479 372 c 1
 482 369 l 1
 480 360 479 341 479 332 c 0
 479 323 480 303 482 294 c 1
 479 291 l 1
 410 298 290 301 242 301 c 1
 242 200 l 2
 242 125 244 57 252 0 c 1
 250 -3 l 1
 250 -3 206 0 172 0 c 0
 137 0 87 -3 87 -3 c 1
 86 0 l 1
 94 54 98 125 98 200 c 2
 98 445 l 2
 98 520 94 588 86 645 c 1
 88 648 l 1
 88 648 138 645 172 645 c 2
 468 645 l 2
EndSplineSet
Substitution2: "'ss05' Elbischer Stilsatz-1" F.elb
Position2: "'cpsp' Versalabstaende 1" dx=2 dy=0 dh=5 dv=0
Substitution2: "'c2sc' Versale nach Kapitaelchen 1" f.sc
EndChar

StartChar: G
Encoding: 71 71 30
Width: 753
VWidth: 999
Flags: HW
HStem: -10 55<333.527 517.526> 602 56<305.722 489.285>
VStem: 52 161<198.564 433.211> 539 138<83.3557 304.327>
AnchorPoint: "unten_anhang" 374 2 basechar 0
AnchorPoint: "unten_punkt" 374 -111 basechar 0
AnchorPoint: "top_punkt" 372 700 basechar 0
AnchorPoint: "top_akzent" 372 798 basechar 0
LayerCount: 2
Fore
SplineSet
539 117 m 2
 539 192 537 250 529 307 c 1
 531 310 l 1
 531 310 579 307 613 307 c 0
 648 307 686 310 686 310 c 1
 687 307 l 1
 679 254 677 212 677 137 c 0
 677 104.6 680.9 90.5 687 83 c 1
 687 80 l 1
 619.5 23.4 506.5 -10 390 -10 c 0
 307.7 -10 253.8 7.6 194 48 c 0
 107.8 106.3 52 204.8 52 307 c 0
 52 420 96.4 515.5 171 575 c 0
 240 630 305 658 405 658 c 0
 527 658 644 613 644 613 c 1
 646 610 l 1
 634.2 560.7 629.6 531 626 480 c 1
 596 479 l 1
 555 561 469.1 602 391 602 c 0
 256 602 213 488 213 327 c 0
 213 195 277 45 413 45 c 0
 467 45 505 51 539 83 c 1
 539 117 l 2
EndSplineSet
Substitution2: "'ss05' Elbischer Stilsatz-1" G.elb
Position2: "'cpsp' Versalabstaende 1" dx=2 dy=0 dh=5 dv=0
Substitution2: "'c2sc' Versale nach Kapitaelchen 1" g.sc
EndChar

StartChar: grave
Encoding: 96 96 31
Width: 392
VWidth: 999
Flags: HW
LayerCount: 2
Fore
SplineSet
198 702 m 1
 267 578 l 2
 271 571 276 560 276 552 c 0
 276 543 261 536 252 536 c 0
 244 536 231 541 214 556 c 2
 93 661 l 1
 95 672 l 1
 103 681 142 704 178 704 c 0
 183 704 194 703 198 702 c 1
EndSplineSet
Substitution2: "'case' Versalformen 1" grave.cap
Colour: ff00ff
EndChar

StartChar: ograve
Encoding: 242 242 32
Width: 566
VWidth: 999
Flags: HW
HStem: -10 50<234.308 349.488> 389 50<218.541 339.619>
VStem: 41 142<105.349 313.144> 383 142<109.544 320.837>
LayerCount: 2
Fore
SplineSet
256 674 m 1
 325 550 l 2
 329 543 334 532 334 524 c 0
 334 515 319 508 310 508 c 0
 302 508 289 513 272 528 c 2
 151 633 l 1
 153 644 l 1
 161 653 200 676 236 676 c 0
 241 676 252 675 256 674 c 1
41 205 m 0
 41 360 142 439 285 439 c 0
 454 439 525 340 525 214 c 0
 525 75.8 436 -10 283 -10 c 0
 134 -10 41 72 41 205 c 0
278 389 m 0
 192 389 183 315 183 228 c 0
 183 151 193 40 297 40 c 0
 342 40 383 72 383 187 c 0
 383 326 363 389 278 389 c 0
EndSplineSet
Substitution2: "'smcp' Gemeine nach Kapitaelchen 1" ograve.sc
AlternateSubs2: "'aalt' Alle Alternativen zeigen 1" ograve.sc
Colour: ff00ff
EndChar

StartChar: oacute
Encoding: 243 243 33
Width: 566
VWidth: 999
Flags: HW
HStem: -10 50<234.308 349.488> 389 50<218.541 339.619> 507 171
VStem: 41 142<105.349 313.144> 213 184 383 142<109.544 320.837>
LayerCount: 2
Fore
SplineSet
304 676 m 1
 307 677 315 678 320 678 c 0
 350 678 379 664 387 654 c 1
 397 631 l 1
 277 523 l 2
 263 511 244 507 234 507 c 0
 226 507 213 515 213 521 c 0
 213 527 215 536 221 545 c 2
 304 676 l 1
41 205 m 0
 41 360 142 439 285 439 c 0
 454 439 525 340 525 214 c 0
 525 75.8 436 -10 283 -10 c 0
 134 -10 41 72 41 205 c 0
278 389 m 0
 192 389 183 315 183 228 c 0
 183 151 193 40 297 40 c 0
 342 40 383 72 383 187 c 0
 383 326 363 389 278 389 c 0
EndSplineSet
Substitution2: "'smcp' Gemeine nach Kapitaelchen 1" oacute.sc
AlternateSubs2: "'aalt' Alle Alternativen zeigen 1" oacute.sc
Colour: ff00ff
EndChar

StartChar: ocircumflex
Encoding: 244 244 34
Width: 566
VWidth: 999
Flags: HW
HStem: -10 50<234.308 349.488> 389 50<218.541 339.619>
VStem: 41 142<105.349 313.144> 383 142<109.544 320.837>
LayerCount: 2
Fore
SplineSet
433 522 m 1
 406 498 l 1
 358 521 326 548 288 585 c 1
 246 546 214.5 520 171 498 c 1
 144 522 l 1
 190.5 569 239 629 272 678 c 1
 306 678 l 1
 343.5 623 384.5 570.5 433 522 c 1
41 205 m 0
 41 360 142 439 285 439 c 0
 454 439 525 340 525 214 c 0
 525 75.8 436 -10 283 -10 c 0
 134 -10 41 72 41 205 c 0
278 389 m 0
 192 389 183 315 183 228 c 0
 183 151 193 40 297 40 c 0
 342 40 383 72 383 187 c 0
 383 326 363 389 278 389 c 0
EndSplineSet
Substitution2: "'smcp' Gemeine nach Kapitaelchen 1" ocircumflex.sc
AlternateSubs2: "'aalt' Alle Alternativen zeigen 1" ocircumflex.sc
Colour: ff00ff
EndChar

StartChar: otilde
Encoding: 245 245 35
Width: 566
VWidth: 999
Flags: HW
HStem: -10 50<234.308 349.488> 389 50<218.541 339.619> 513 66<298.778 385.61> 565 67<176.161 268.179>
VStem: 41 142<105.349 313.144> 130 36<521.639 551.509> 383 142<109.544 320.837> 401 36<598.092 625.75>
LayerCount: 2
Fore
SplineSet
352 591 m 0
 373 591 388 597 401 633 c 1
 433 624 l 1
 419 560 384 517 333 517 c 0
 290.9 517 255.1 559 215 559 c 0
 186 559 174 547 166 516 c 1
 133 523 l 1
 148 587 179 632 227 632 c 0
 276.7 632 303.5 591 352 591 c 0
41 205 m 0
 41 360 142 439 285 439 c 0
 454 439 525 340 525 214 c 0
 525 75.8 436 -10 283 -10 c 0
 134 -10 41 72 41 205 c 0
278 389 m 0
 192 389 183 315 183 228 c 0
 183 151 193 40 297 40 c 0
 342 40 383 72 383 187 c 0
 383 326 363 389 278 389 c 0
EndSplineSet
Substitution2: "'smcp' Gemeine nach Kapitaelchen 1" otilde.sc
AlternateSubs2: "'aalt' Alle Alternativen zeigen 1" otilde.sc
Colour: ff00ff
EndChar

StartChar: odieresis
Encoding: 246 246 36
Width: 566
VWidth: 999
Flags: HW
HStem: -10 50<234.308 349.488> 389 50<218.541 339.619> 529 125<135.107 228.707 344.293 437.893>
VStem: 41 142<105.349 313.144> 120 124<544.537 638.707> 329 124<544.537 638.707> 383 142<109.544 320.837>
LayerCount: 2
Fore
SplineSet
326 601 m 0
 326 638 355 667 392 667 c 0
 427 667 456 638 456 601 c 0
 456 566 427 536 392 536 c 0
 355 536 326 566 326 601 c 0
117 601 m 0
 117 638 146 667 181 667 c 0
 218 667 247 638 247 601 c 0
 247 566 218 536 181 536 c 0
 146 536 117 566 117 601 c 0
41 205 m 0
 41 360 142 439 285 439 c 0
 454 439 525 340 525 214 c 0
 525 75.8 436 -10 283 -10 c 0
 134 -10 41 72 41 205 c 0
278 389 m 0
 192 389 183 315 183 228 c 0
 183 151 193 40 297 40 c 0
 342 40 383 72 383 187 c 0
 383 326 363 389 278 389 c 0
EndSplineSet
Substitution2: "'smcp' Gemeine nach Kapitaelchen 1" odieresis.sc
AlternateSubs2: "'aalt' Alle Alternativen zeigen 1" odieresis.sc
Colour: ff00ff
EndChar

StartChar: divide
Encoding: 247 247 37
Width: 545
VWidth: 999
Flags: HW
HStem: 15.2 118.2<234.731 302.325> 198 70<77 467> 333.2 118.2<234.731 302.325>
VStem: 208.3 119<38.1509 107.028 356.151 425.028>
LayerCount: 2
Fore
SplineSet
208.3 390.2 m 1
 208.3 394.4 l 1
 219.2 422.1 234.3 438.8 266.1 451.4 c 1
 269.4 451.4 l 1
 300.4 440.5 316.4 424.6 327.3 394.4 c 1
 327.3 390.2 l 1
 315.6 355.8 299.6 340.7 269.4 333.2 c 1
 266.1 333.2 l 1
 231.7 340.7 217.5 355 208.3 390.2 c 1
208.3 72.2 m 1
 208.3 76.4 l 1
 219.2 104.1 234.3 120.8 266.1 133.4 c 1
 269.4 133.4 l 1
 300.4 122.5 316.4 106.6 327.3 76.4 c 1
 327.3 72.2 l 1
 315.6 37.8 299.6 22.7 269.4 15.2 c 1
 266.1 15.2 l 1
 231.7 22.7 217.5 37 208.3 72.2 c 1
477 268 m 1
 467 198 l 1
 67 198 l 1
 77 268 l 1
 477 268 l 1
EndSplineSet
Colour: ff00ff
EndChar

StartChar: ugrave
Encoding: 249 249 38
Width: 591
VWidth: 999
Flags: HW
HStem: -10 77<154.5 299.051> -3 21<385 394.667 512.5 521> 412 20<65 137 137 213 365 435 435 513>
VStem: 71 132<78.6508 426.332> 372 132<116.229 426.381>
LayerCount: 2
Fore
SplineSet
248 674 m 1
 317 550 l 2
 321 543 326 532 326 524 c 0
 326 515 311 508 302 508 c 0
 294 508 281 513 264 528 c 2
 143 633 l 1
 145 644 l 1
 153 653 192 676 228 676 c 0
 233 676 244 675 248 674 c 1
372 64 m 1
 316 4 245 -10 204 -10 c 0
 105 -10 70 57 71 126 c 2
 73 249 l 2
 74.2 321 71 372 65 429 c 1
 67 432 l 1
 67 432 103 429 137 429 c 0
 172 429 212 432 212 432 c 1
 213 429 l 1
 208 377.5 206.7 324 205 249 c 2
 203 159 l 2
 201 77 230 67 260 67 c 0
 304.8 67 372 111 372 169 c 2
 372 249 l 2
 372 325 372 373 365 429 c 1
 367 432 l 1
 367 432 401 429 435 429 c 0
 470 429 512 432 512 432 c 1
 513 429 l 1
 504 376 504 324 504 249 c 2
 504 192 l 2
 504 117 513 43 521 0 c 1
 519 -3 l 1
 506 -1 458.1 0 445.5 0 c 0
 431 0 401.3 -1.3 388 -3 c 0
 382 -3 379 -2 379 0 c 2
 374 64 l 1
 372 64 l 1
EndSplineSet
Substitution2: "'smcp' Gemeine nach Kapitaelchen 1" ugrave.sc
AlternateSubs2: "'aalt' Alle Alternativen zeigen 1" ugrave.sc
Colour: ff00ff
EndChar

StartChar: uacute
Encoding: 250 250 39
Width: 591
VWidth: 999
Flags: HW
HStem: -10 77<154.5 299.051> -3 21<385 394.667 512.5 521> 412 20<65 137 137 213 365 435 435 513> 507 171
VStem: 71 132<78.6508 426.332> 207 184 372 132<116.229 426.381>
LayerCount: 2
Fore
SplineSet
298 676 m 1
 301 677 309 678 314 678 c 0
 344 678 373 664 381 654 c 1
 391 631 l 1
 271 523 l 2
 257 511 238 507 228 507 c 0
 220 507 207 515 207 521 c 0
 207 527 209 536 215 545 c 2
 298 676 l 1
372 64 m 1
 316 4 245 -10 204 -10 c 0
 105 -10 70 57 71 126 c 2
 73 249 l 2
 74.2 321 71 372 65 429 c 1
 67 432 l 1
 67 432 103 429 137 429 c 0
 172 429 212 432 212 432 c 1
 213 429 l 1
 208 377.5 206.7 324 205 249 c 2
 203 159 l 2
 201 77 230 67 260 67 c 0
 304.8 67 372 111 372 169 c 2
 372 249 l 2
 372 325 372 373 365 429 c 1
 367 432 l 1
 367 432 401 429 435 429 c 0
 470 429 512 432 512 432 c 1
 513 429 l 1
 504 376 504 324 504 249 c 2
 504 192 l 2
 504 117 513 43 521 0 c 1
 519 -3 l 1
 506 -1 458.1 0 445.5 0 c 0
 431 0 401.3 -1.3 388 -3 c 0
 382 -3 379 -2 379 0 c 2
 374 64 l 1
 372 64 l 1
EndSplineSet
Substitution2: "'smcp' Gemeine nach Kapitaelchen 1" uacute.sc
AlternateSubs2: "'aalt' Alle Alternativen zeigen 1" uacute.sc
Colour: ff00ff
EndChar

StartChar: ucircumflex
Encoding: 251 251 40
Width: 591
VWidth: 999
Flags: HW
HStem: -10 77<154.5 299.051> -3 21<385 394.667 512.5 521> 412 20<65 137 137 213 365 435 435 513>
VStem: 71 132<78.6508 426.332> 372 132<116.229 426.381>
LayerCount: 2
Fore
SplineSet
443 522 m 1
 416 498 l 1
 368 521 336 548 298 585 c 1
 256 546 224.5 520 181 498 c 1
 154 522 l 1
 200.5 569 249 629 282 678 c 1
 316 678 l 1
 353.5 623 394.5 570.5 443 522 c 1
372 64 m 1
 316 4 245 -10 204 -10 c 0
 105 -10 70 57 71 126 c 2
 73 249 l 2
 74.2 321 71 372 65 429 c 1
 67 432 l 1
 67 432 103 429 137 429 c 0
 172 429 212 432 212 432 c 1
 213 429 l 1
 208 377.5 206.7 324 205 249 c 2
 203 159 l 2
 201 77 230 67 260 67 c 0
 304.8 67 372 111 372 169 c 2
 372 249 l 2
 372 325 372 373 365 429 c 1
 367 432 l 1
 367 432 401 429 435 429 c 0
 470 429 512 432 512 432 c 1
 513 429 l 1
 504 376 504 324 504 249 c 2
 504 192 l 2
 504 117 513 43 521 0 c 1
 519 -3 l 1
 506 -1 458.1 0 445.5 0 c 0
 431 0 401.3 -1.3 388 -3 c 0
 382 -3 379 -2 379 0 c 2
 374 64 l 1
 372 64 l 1
EndSplineSet
Substitution2: "'smcp' Gemeine nach Kapitaelchen 1" ucircumflex.sc
AlternateSubs2: "'aalt' Alle Alternativen zeigen 1" ucircumflex.sc
Colour: ff00ff
EndChar

StartChar: ebreve
Encoding: 277 277 41
Width: 508
VWidth: 999
Flags: HW
HStem: -10 76<222.885 377.839> 225 45<174 344> 389 50<216.934 317.341> 523 70<188.939 331.578>
VStem: 40 129<120.369 225 270 303.578> 121 33<633.075 669.182> 344 130<247.965 352.181> 369 32<634.158 669.281>
LayerCount: 2
Fore
SplineSet
155 661 m 1
 171 602.5 208 583 262 583 c 0
 314.5 583 357 605.5 368 661 c 1
 401 661 l 1
 396 558 333 507 262 507 c 0
 192 507 127.5 555.5 122 661 c 1
 155 661 l 1
173 255 m 1
 329 255 l 1
 329 342.5 304.9 389 264 389 c 0
 235.7 389 216.2 376.3 203.5 359 c 0
 188.7 338.8 176.5 304 173 255 c 1
448 107 m 1
 458 107 464 89 464 76 c 1
 409.5 13 338 -10 266 -10 c 0
 191 -10 132.2 6.5 98 42 c 0
 56.7 84.9 35 147 35 206 c 0
 35 288.9 68 349 116.5 389 c 0
 156.2 421.7 216 439 271 439 c 0
 425 439 460 339 460 214 c 1
 454 208 l 1
 454 208 368.5 210 268.5 210 c 2
 169 210 l 1
 169 164.1 180.2 129 202.2 105 c 0
 226 79.1 262.4 66 311 66 c 0
 353 66 401.5 69.5 448 107 c 1
EndSplineSet
Colour: ff00ff
EndChar

StartChar: Edotaccent
Encoding: 278 278 42
Width: 594
VWidth: 999
Flags: HW
HStem: 0 73<244.435 487.022> 311 61<240 463.736> 577 68<244.435 479.755> 721 142<240.5 349.5>
VStem: 96 144<74.1699 311 372 575.826> 220 150<741.5 842.5>
LayerCount: 2
Fore
SplineSet
224 792 m 0
 224 830 255 861 295 861 c 0
 335 861 366 830 366 792 c 0
 366 754 335 723 295 723 c 0
 255 723 224 754 224 792 c 0
240 200 m 2
 240 183 241 97 248 73 c 1
 382 73 544 95 544 95 c 1
 546 91 l 1
 545 83 544 46 544 36 c 0
 544 26 544.5 13.2 546 0 c 1
 544 -3 l 1
 528 -1 505 0 484 0 c 2
 170 0 l 2
 135 0 85 -3 85 -3 c 1
 84 0 l 1
 92 54 96 125 96 200 c 2
 96 445 l 2
 96 520 92 588 84 645 c 1
 86 648 l 1
 86 648 136 645 170 645 c 2
 474 645 l 2
 495 645 518 646 534 648 c 1
 536 645 l 1
 534.8 631 534 618 534 610 c 0
 534 601 535 577 536 569 c 1
 534 565 l 1
 534 565 382 577 248 577 c 1
 241 553 240 462 240 445 c 2
 240 372 l 1
 358 372 418 377 477 382 c 1
 480 379 l 1
 478 370 477 351 477 342 c 0
 477 333 478 313 480 304 c 1
 477 301 l 1
 408 308 288 311 240 311 c 1
 240 200 l 2
EndSplineSet
Position2: "'cpsp' Versalabstaende 1" dx=2 dy=0 dh=5 dv=0
Colour: ff00ff
EndChar

StartChar: edotaccent
Encoding: 279 279 43
Width: 508
VWidth: 999
Flags: HW
HStem: -10 76<222.885 377.839> 225 45<174 344> 389 50<216.934 317.341> 536 142<191.5 300.5>
VStem: 40 129<120.369 225 270 303.578> 171 150<556.5 657.5> 344 130<247.965 352.181>
LayerCount: 2
Fore
SplineSet
175 607 m 0
 175 645 206 676 246 676 c 0
 286 676 317 645 317 607 c 0
 317 569 286 538 246 538 c 0
 206 538 175 569 175 607 c 0
173 255 m 1
 329 255 l 1
 329 342.5 304.9 389 264 389 c 0
 235.7 389 216.2 376.3 203.5 359 c 0
 188.7 338.8 176.5 304 173 255 c 1
448 107 m 1
 458 107 464 89 464 76 c 1
 409.5 13 338 -10 266 -10 c 0
 191 -10 132.2 6.5 98 42 c 0
 56.7 84.9 35 147 35 206 c 0
 35 288.9 68 349 116.5 389 c 0
 156.2 421.7 216 439 271 439 c 0
 425 439 460 339 460 214 c 1
 454 208 l 1
 454 208 368.5 210 268.5 210 c 2
 169 210 l 1
 169 164.1 180.2 129 202.2 105 c 0
 226 79.1 262.4 66 311 66 c 0
 353 66 401.5 69.5 448 107 c 1
EndSplineSet
Colour: ff00ff
EndChar

StartChar: Eogonek
Encoding: 280 280 44
Width: 594
VWidth: 999
Flags: HW
HStem: -203.6 69<450.423 531.615> 0 73<244.435 485.676> 311 61<240 465.912> 577 68<244.435 478.84>
VStem: 96 144<74.1699 311 372 575.826> 349.2 90.5<-123.476 -52.7689>
LayerCount: 2
Fore
SplineSet
561.4 -157.4 m 1
 536.5 -185.5 497.2 -203.6 457 -203.6 c 0
 395.4 -203.6 349.2 -161.8 349.2 -104.7 c 0
 349.2 -71.8 381.2 -34.8 422.1 -0 c 1
 170 0 l 2
 135 0 85 -3 85 -3 c 1
 84 0 l 1
 92 54 96 125 96 200 c 2
 96 445 l 2
 96 520 92 588 84 645 c 1
 86 648 l 1
 86 648 136 645 170 645 c 2
 474 645 l 2
 495 645 518 646 534 648 c 1
 536 645 l 1
 534.8 631 534 618 534 610 c 0
 534 601 535 577 536 569 c 1
 534 565 l 1
 534 565 382 577 248 577 c 1
 241 553 240 462 240 445 c 2
 240 372 l 1
 358 372 418 377 477 382 c 1
 480 379 l 1
 478 370 477 351 477 342 c 0
 477 333 478 313 480 304 c 1
 477 301 l 1
 408 308 288 311 240 311 c 1
 240 200 l 2
 240 183 241 97 248 73 c 1
 382 73 544 95 544 95 c 1
 546 91 l 1
 545 83 544 46 544 36 c 0
 544 26 544.5 13.2 546 0 c 1
 544 -3 l 1
 528 -1 505 0 484 0 c 2
 482.2 -0 l 1
 457.1 -24.5 439.7 -51.1 439.7 -79.6 c 0
 439.7 -116.2 464.3 -134.6 504.3 -134.6 c 0
 520.5 -134.6 537.3 -131.3 549.7 -123.2 c 1
 558.5 -130.5 561.7 -140.2 561.7 -151.1 c 0
 561.7 -153.2 561.6 -155.3 561.4 -157.4 c 1
EndSplineSet
Position2: "'cpsp' Versalabstaende 1" dx=2 dy=0 dh=5 dv=0
Substitution2: "'c2sc' Versale nach Kapitaelchen 1" eogonek.sc
Colour: ff80cc
EndChar

StartChar: eogonek
Encoding: 281 281 45
Width: 508
VWidth: 999
Flags: HW
HStem: -203.6 69<319.371 401.615> -10 76<222.885 377.839> 225 45<174 344> 389 50<216.934 317.341>
VStem: 40 129<120.369 225 270 303.578> 219.2 90.5<-125.008 -38.9587> 344 130<247.965 352.181>
LayerCount: 2
Fore
SplineSet
431.4 -157.4 m 1
 406.5 -185.5 367.2 -203.6 327 -203.6 c 0
 265.4 -203.6 219.2 -161.8 219.2 -104.7 c 0
 219.2 -74.8 245.5 -41.6 281 -9.7 c 1
 276 -9.9 271 -10 266 -10 c 0
 191 -10 132.2 6.5 98 42 c 0
 56.7 84.9 35 147 35 206 c 0
 35 288.9 68 349 116.5 389 c 0
 156.2 421.7 216 439 271 439 c 0
 425 439 460 339 460 214 c 1
 454 208 l 1
 454 208 368.5 210 268.5 210 c 2
 169 210 l 1
 169 164.1 180.2 129 202.2 105 c 0
 226 79.1 262.4 66 311 66 c 0
 353 66 401.5 69.5 448 107 c 1
 458 107 464 89 464 76 c 1
 432.6 39.7 395.5 16.7 356 3.7 c 1
 328.9 -21.8 309.7 -49.7 309.7 -79.6 c 0
 309.7 -116.2 334.3 -134.6 374.3 -134.6 c 0
 390.5 -134.6 407.3 -131.3 419.7 -123.2 c 1
 428.5 -130.5 431.7 -140.2 431.7 -151.1 c 0
 431.7 -153.2 431.6 -155.3 431.4 -157.4 c 1
173 255 m 1
 329 255 l 1
 329 342.5 304.9 389 264 389 c 0
 235.7 389 216.2 376.3 203.5 359 c 0
 188.7 338.8 176.5 304 173 255 c 1
EndSplineSet
AlternateSubs2: "'aalt' Alle Alternativen zeigen 1" eogonek.sc
Substitution2: "'smcp' Gemeine nach Kapitaelchen 1" eogonek.sc
Colour: ff00ff
EndChar

StartChar: Ecaron
Encoding: 282 282 46
Width: 594
VWidth: 999
Flags: HW
HStem: 0 73<244.435 487.022> 311 61<240 463.736> 577 68<244.435 479.755> 684 149
VStem: 96 144<74.1699 311 372 575.826> 148 295
LayerCount: 2
Fore
SplineSet
168 802 m 1
 184 833 l 1
 230 815 272 797 315 777 c 1
 357 797 401 815 447 833 c 1
 463 802 l 1
 418 766 369 723 330 684 c 1
 300 684 l 1
 261 725 212.5 766 168 802 c 1
240 200 m 2
 240 183 241 97 248 73 c 1
 382 73 544 95 544 95 c 1
 546 91 l 1
 545 83 544 46 544 36 c 0
 544 26 544.5 13.2 546 0 c 1
 544 -3 l 1
 528 -1 505 0 484 0 c 2
 170 0 l 2
 135 0 85 -3 85 -3 c 1
 84 0 l 1
 92 54 96 125 96 200 c 2
 96 445 l 2
 96 520 92 588 84 645 c 1
 86 648 l 1
 86 648 136 645 170 645 c 2
 474 645 l 2
 495 645 518 646 534 648 c 1
 536 645 l 1
 534.8 631 534 618 534 610 c 0
 534 601 535 577 536 569 c 1
 534 565 l 1
 534 565 382 577 248 577 c 1
 241 553 240 462 240 445 c 2
 240 372 l 1
 358 372 418 377 477 382 c 1
 480 379 l 1
 478 370 477 351 477 342 c 0
 477 333 478 313 480 304 c 1
 477 301 l 1
 408 308 288 311 240 311 c 1
 240 200 l 2
EndSplineSet
Position2: "'cpsp' Versalabstaende 1" dx=2 dy=0 dh=5 dv=0
Substitution2: "'c2sc' Versale nach Kapitaelchen 1" ecaron.sc
Colour: ff00ff
EndChar

StartChar: ecaron
Encoding: 283 283 47
Width: 508
VWidth: 999
Flags: HW
HStem: -10 76<222.885 377.839> 225 45<174 344> 389 50<216.934 317.341>
VStem: 40 129<120.369 225 270 303.578> 344 130<247.965 352.181>
LayerCount: 2
Fore
SplineSet
116 645 m 1
 143 664 l 1
 190 638 223 619 261 582 c 1
 303 621 334 638 378 664 c 1
 405 645 l 1
 323 559 310 542 276 494 c 1
 243 494 l 1
 205 548 190 571 116 645 c 1
173 255 m 1
 329 255 l 1
 329 342.5 304.9 389 264 389 c 0
 235.7 389 216.2 376.3 203.5 359 c 0
 188.7 338.8 176.5 304 173 255 c 1
448 107 m 1
 458 107 464 89 464 76 c 1
 409.5 13 338 -10 266 -10 c 0
 191 -10 132.2 6.5 98 42 c 0
 56.7 84.9 35 147 35 206 c 0
 35 288.9 68 349 116.5 389 c 0
 156.2 421.7 216 439 271 439 c 0
 425 439 460 339 460 214 c 1
 454 208 l 1
 454 208 368.5 210 268.5 210 c 2
 169 210 l 1
 169 164.1 180.2 129 202.2 105 c 0
 226 79.1 262.4 66 311 66 c 0
 353 66 401.5 69.5 448 107 c 1
EndSplineSet
AlternateSubs2: "'aalt' Alle Alternativen zeigen 1" ecaron.sc
Substitution2: "'smcp' Gemeine nach Kapitaelchen 1" ecaron.sc
Colour: ff00ff
EndChar

StartChar: Gcircumflex
Encoding: 284 284 48
Width: 753
VWidth: 999
Flags: HW
HStem: -10 55<337.32 524.526> 602 56<309.401 496.285> 684 149
VStem: 39 158<214.24 438.594> 246 295 546 138<83.3557 304.327>
LayerCount: 2
Fore
SplineSet
552 715 m 1
 536 684 l 1
 490 702 445.5 722 403 743 c 1
 361.5 720.5 315 702 269 684 c 1
 253 715 l 1
 298 751 349 794 388 833 c 1
 418 833 l 1
 457 792 507.3 750.7 552 715 c 1
539 117 m 2
 539 192 537 250 529 307 c 1
 531 310 l 1
 531 310 579 307 613 307 c 0
 648 307 686 310 686 310 c 1
 687 307 l 1
 679 254 677 212 677 137 c 0
 677 104.6 680.9 90.5 687 83 c 1
 687 80 l 1
 619.5 23.4 506.5 -10 390 -10 c 0
 307.7 -10 253.8 7.6 194 48 c 0
 107.8 106.3 52 204.8 52 307 c 0
 52 420 96.4 515.5 171 575 c 0
 240 630 305 658 405 658 c 0
 527 658 644 613 644 613 c 1
 646 610 l 1
 634.2 560.7 629.6 531 626 480 c 1
 596 479 l 1
 555 561 469.1 602 391 602 c 0
 256 602 213 488 213 327 c 0
 213 195 277 45 413 45 c 0
 467 45 505 51 539 83 c 1
 539 117 l 2
EndSplineSet
Position2: "'cpsp' Versalabstaende 1" dx=2 dy=0 dh=5 dv=0
Colour: ff00ff
EndChar

StartChar: gcircumflex
Encoding: 285 285 49
Width: 561
VWidth: 999
Flags: HW
HStem: -238 45<186.075 347.737> -18 77<180.026 292.771> -17 83<218.306 376.027> 141 40<204.851 304.686> 399 40<209.818 307.53>
VStem: 32 119<-160.411 -47.0122> 54 133<213.662 359.842> 59 112<65.7191 118.083> 326 133<216.765 354.388> 400 130<-132.575 -41.5108>
LayerCount: 2
Fore
SplineSet
403 522 m 1
 376 498 l 1
 328 521 296 548 258 585 c 1
 216 546 184.5 520 141 498 c 1
 114 522 l 1
 160.5 569 209 629 242 678 c 1
 276 678 l 1
 313.5 623 354.5 570.5 403 522 c 1
459 289 m 0
 459 195.9 374 141 258 141 c 0
 223.9 141 196.8 146 182.5 152 c 1
 171.5 135 171 123.1 171 107 c 0
 171 64 201 59 229 59 c 0
 234 59 234 60 248 61 c 0
 271 64 294 66 311 66 c 0
 403 66 530 46 530 -68 c 0
 530 -121.4 485.5 -171.5 426.5 -200.5 c 0
 366.1 -230.2 290.3 -238 225 -238 c 0
 135.8 -238 32 -211 32 -124 c 0
 32 -99.2 37 -68 54 -46 c 1
 78 -32 116.4 -17.6 138 -4 c 1
 82.5 4.5 59 32 59 74 c 0
 59 106.8 101.5 145 146 160 c 1
 148 165 l 1
 148 165 123.3 172.6 108.5 183 c 0
 82.8 201 54 229 54 285 c 0
 54 381 143 439 251 439 c 0
 272.5 439 305.4 436 323.3 430.4 c 1
 397.9 434.3 461.2 434.9 509 439 c 1
 512 436 l 1
 510 427 509 416 509 407 c 0
 509 398 510 389 512 380 c 1
 509 377 l 1
 474.2 379.4 437.7 385.1 407.9 385.6 c 1
 439 364.6 459 323.5 459 289 c 0
326 288 m 0
 326 363 315 399 255 399 c 0
 203 399 187 356 187 290 c 0
 187 217 197 181 258 181 c 0
 306 181 326 217 326 288 c 0
183 -16 m 1
 157 -43 151 -70.9 151 -104 c 0
 151 -172 219 -193 253 -193 c 0
 339 -193 400 -152 400 -91 c 0
 400 -21.8 332 -17 276 -17 c 0
 262.2 -17 235.5 -18 206 -18 c 0
 197 -18 189.4 -16.8 183 -16 c 1
EndSplineSet
Colour: ff00ff
EndChar

StartChar: Gbreve
Encoding: 286 286 50
Width: 753
VWidth: 999
Flags: HW
HStem: -10 55<337.32 524.526> 602 56<309.401 496.285> 705 80<320.019 476.065>
VStem: 39 158<214.24 438.594> 249 31<817.906 834.806> 518 30<819.862 834.867> 546 138<83.3557 304.327>
LayerCount: 2
Fore
SplineSet
548 841 m 1
 548 760 472 705 399 705 c 0
 319 705 249 760.5 249 841 c 1
 280 841 l 1
 280 807 341 785 399 785 c 0
 453 785 518 807 518 841 c 1
 548 841 l 1
539 117 m 2
 539 192 537 250 529 307 c 1
 531 310 l 1
 531 310 579 307 613 307 c 0
 648 307 686 310 686 310 c 1
 687 307 l 1
 679 254 677 212 677 137 c 0
 677 104.6 680.9 90.5 687 83 c 1
 687 80 l 1
 619.5 23.4 506.5 -10 390 -10 c 0
 307.7 -10 253.8 7.6 194 48 c 0
 107.8 106.3 52 204.8 52 307 c 0
 52 420 96.4 515.5 171 575 c 0
 240 630 305 658 405 658 c 0
 527 658 644 613 644 613 c 1
 646 610 l 1
 634.2 560.7 629.6 531 626 480 c 1
 596 479 l 1
 555 561 469.1 602 391 602 c 0
 256 602 213 488 213 327 c 0
 213 195 277 45 413 45 c 0
 467 45 505 51 539 83 c 1
 539 117 l 2
EndSplineSet
Position2: "'cpsp' Versalabstaende 1" dx=2 dy=0 dh=5 dv=0
Substitution2: "'c2sc' Versale nach Kapitaelchen 1" gbreve.sc
Colour: ff00ff
EndChar

StartChar: gbreve
Encoding: 287 287 51
Width: 561
VWidth: 999
Flags: HW
HStem: -238 45<186.075 347.737> -18 77<180.026 292.771> -17 83<218.306 376.027> 141 40<204.851 304.686> 399 40<209.818 307.53> 523 70<189.939 332.577>
VStem: 32 119<-160.411 -47.0122> 54 133<213.662 359.842> 59 112<65.7191 118.083> 122 33<633.075 669.182> 326 133<216.765 354.388> 370 32<634.158 669.281> 400 130<-132.575 -41.5108>
LayerCount: 2
Fore
SplineSet
156 661 m 1
 172 602.5 209 583 263 583 c 0
 315.5 583 358 605.5 369 661 c 1
 402 661 l 1
 397 558 334 507 263 507 c 0
 193 507 128.5 555.5 123 661 c 1
 156 661 l 1
459 289 m 0
 459 195.9 374 141 258 141 c 0
 223.9 141 196.8 146 182.5 152 c 1
 171.5 135 171 123.1 171 107 c 0
 171 64 201 59 229 59 c 0
 234 59 234 60 248 61 c 0
 271 64 294 66 311 66 c 0
 403 66 530 46 530 -68 c 0
 530 -121.4 485.5 -171.5 426.5 -200.5 c 0
 366.1 -230.2 290.3 -238 225 -238 c 0
 135.8 -238 32 -211 32 -124 c 0
 32 -99.2 37 -68 54 -46 c 1
 78 -32 116.4 -17.6 138 -4 c 1
 82.5 4.5 59 32 59 74 c 0
 59 106.8 101.5 145 146 160 c 1
 148 165 l 1
 148 165 123.3 172.6 108.5 183 c 0
 82.8 201 54 229 54 285 c 0
 54 381 143 439 251 439 c 0
 272.5 439 305.4 436 323.3 430.4 c 1
 397.9 434.3 461.2 434.9 509 439 c 1
 512 436 l 1
 510 427 509 416 509 407 c 0
 509 398 510 389 512 380 c 1
 509 377 l 1
 474.2 379.4 437.7 385.1 407.9 385.6 c 1
 439 364.6 459 323.5 459 289 c 0
326 288 m 0
 326 363 315 399 255 399 c 0
 203 399 187 356 187 290 c 0
 187 217 197 181 258 181 c 0
 306 181 326 217 326 288 c 0
183 -16 m 1
 157 -43 151 -70.9 151 -104 c 0
 151 -172 219 -193 253 -193 c 0
 339 -193 400 -152 400 -91 c 0
 400 -21.8 332 -17 276 -17 c 0
 262.2 -17 235.5 -18 206 -18 c 0
 197 -18 189.4 -16.8 183 -16 c 1
EndSplineSet
AlternateSubs2: "'aalt' Alle Alternativen zeigen 1" gbreve.sc
Substitution2: "'smcp' Gemeine nach Kapitaelchen 1" gbreve.sc
Colour: ff00ff
EndChar

StartChar: Gdotaccent
Encoding: 288 288 52
Width: 753
VWidth: 999
Flags: HW
HStem: -10 55<337.32 524.526> 602 56<309.401 496.285> 721 142<340.5 449.5>
VStem: 39 158<214.24 438.594> 320 150<741.5 842.5> 546 138<83.3557 304.327>
LayerCount: 2
Fore
SplineSet
324 792 m 0
 324 830 355 861 395 861 c 0
 435 861 466 830 466 792 c 0
 466 754 435 723 395 723 c 0
 355 723 324 754 324 792 c 0
539 117 m 2
 539 192 537 250 529 307 c 1
 531 310 l 1
 531 310 579 307 613 307 c 0
 648 307 686 310 686 310 c 1
 687 307 l 1
 679 254 677 212 677 137 c 0
 677 104.6 680.9 90.5 687 83 c 1
 687 80 l 1
 619.5 23.4 506.5 -10 390 -10 c 0
 307.7 -10 253.8 7.6 194 48 c 0
 107.8 106.3 52 204.8 52 307 c 0
 52 420 96.4 515.5 171 575 c 0
 240 630 305 658 405 658 c 0
 527 658 644 613 644 613 c 1
 646 610 l 1
 634.2 560.7 629.6 531 626 480 c 1
 596 479 l 1
 555 561 469.1 602 391 602 c 0
 256 602 213 488 213 327 c 0
 213 195 277 45 413 45 c 0
 467 45 505 51 539 83 c 1
 539 117 l 2
EndSplineSet
Position2: "'cpsp' Versalabstaende 1" dx=2 dy=0 dh=5 dv=0
Colour: ff00ff
EndChar

StartChar: gdotaccent
Encoding: 289 289 53
Width: 561
VWidth: 999
Flags: HW
HStem: -238 45<186.075 347.737> -18 77<180.026 292.771> -17 83<218.306 376.027> 141 40<204.851 304.686> 399 40<209.818 307.53> 536 142<209.5 318.5>
VStem: 32 119<-160.411 -47.0122> 54 133<213.662 359.842> 59 112<65.7191 118.083> 189 150<556.5 657.5> 326 133<216.765 354.388> 400 130<-132.575 -41.5108>
LayerCount: 2
Fore
SplineSet
193 607 m 0
 193 645 224 676 264 676 c 0
 304 676 335 645 335 607 c 0
 335 569 304 538 264 538 c 0
 224 538 193 569 193 607 c 0
459 289 m 0
 459 195.9 374 141 258 141 c 0
 223.9 141 196.8 146 182.5 152 c 1
 171.5 135 171 123.1 171 107 c 0
 171 64 201 59 229 59 c 0
 234 59 234 60 248 61 c 0
 271 64 294 66 311 66 c 0
 403 66 530 46 530 -68 c 0
 530 -121.4 485.5 -171.5 426.5 -200.5 c 0
 366.1 -230.2 290.3 -238 225 -238 c 0
 135.8 -238 32 -211 32 -124 c 0
 32 -99.2 37 -68 54 -46 c 1
 78 -32 116.4 -17.6 138 -4 c 1
 82.5 4.5 59 32 59 74 c 0
 59 106.8 101.5 145 146 160 c 1
 148 165 l 1
 148 165 123.3 172.6 108.5 183 c 0
 82.8 201 54 229 54 285 c 0
 54 381 143 439 251 439 c 0
 272.5 439 305.4 436 323.3 430.4 c 1
 397.9 434.3 461.2 434.9 509 439 c 1
 512 436 l 1
 510 427 509 416 509 407 c 0
 509 398 510 389 512 380 c 1
 509 377 l 1
 474.2 379.4 437.7 385.1 407.9 385.6 c 1
 439 364.6 459 323.5 459 289 c 0
326 288 m 0
 326 363 315 399 255 399 c 0
 203 399 187 356 187 290 c 0
 187 217 197 181 258 181 c 0
 306 181 326 217 326 288 c 0
183 -16 m 1
 157 -43 151 -70.9 151 -104 c 0
 151 -172 219 -193 253 -193 c 0
 339 -193 400 -152 400 -91 c 0
 400 -21.8 332 -17 276 -17 c 0
 262.2 -17 235.5 -18 206 -18 c 0
 197 -18 189.4 -16.8 183 -16 c 1
EndSplineSet
Colour: ff00ff
EndChar

StartChar: Gcommaaccent
Encoding: 290 290 54
Width: 753
VWidth: 999
Flags: HW
HStem: -243 30<309.114 389.834> -144 102<331.25 400.163> -10 55<337.32 524.526> 602 56<309.401 496.285>
VStem: 39 158<214.24 438.594> 403 65<-202.409 -145.496> 546 138<83.3557 304.327>
LayerCount: 2
Fore
SplineSet
316 -97 m 1
 316 -93 l 1
 319 -67 344 -46 380 -42 c 1
 386 -42 l 1
 407.9 -44.4 428.7 -50.6 443 -69 c 0
 458.1 -88.4 468 -117.8 468 -147 c 0
 468 -220 390 -243 314 -243 c 1
 307 -238 305 -222 309 -213 c 1
 374 -213 403 -199 403 -181 c 0
 403 -159 390.9 -145.6 375 -144 c 0
 335 -140 318 -125 316 -97 c 1
539 117 m 2
 539 192 537 250 529 307 c 1
 531 310 l 1
 531 310 579 307 613 307 c 0
 648 307 686 310 686 310 c 1
 687 307 l 1
 679 254 677 212 677 137 c 0
 677 104.6 680.9 90.5 687 83 c 1
 687 80 l 1
 619.5 23.4 506.5 -10 390 -10 c 0
 307.7 -10 253.8 7.6 194 48 c 0
 107.8 106.3 52 204.8 52 307 c 0
 52 420 96.4 515.5 171 575 c 0
 240 630 305 658 405 658 c 0
 527 658 644 613 644 613 c 1
 646 610 l 1
 634.2 560.7 629.6 531 626 480 c 1
 596 479 l 1
 555 561 469.1 602 391 602 c 0
 256 602 213 488 213 327 c 0
 213 195 277 45 413 45 c 0
 467 45 505 51 539 83 c 1
 539 117 l 2
EndSplineSet
Position2: "'cpsp' Versalabstaende 1" dx=2 dy=0 dh=5 dv=0
Colour: ff00ff
EndChar

StartChar: gcommaaccent
Encoding: 291 291 55
Width: 561
VWidth: 999
Flags: HW
HStem: -238 45<186.075 347.737> -18 77<180.026 292.771> -17 83<218.306 376.027> 141 40<204.851 304.686> 399 40<209.818 307.53> 497 113<243.626 311.5> 690 30<287.751 335.327>
VStem: 32 119<-160.411 -47.0122> 54 133<213.662 359.842> 59 112<65.7191 118.083> 178 65<571.5 655.449> 326 133<216.765 354.388> 400 130<-132.575 -41.5108>
LayerCount: 2
Fore
SplineSet
332 559 m 1
 332 555 l 1
 329 529 300 501 264 497 c 1
 258 497 l 1
 213 502 178 543 178 600 c 0
 178 662 254 710 330 720 c 1
 338 715 339 699 335 690 c 1
 269 677 243 652 243 634 c 0
 243 612 253 610 269 610 c 1
 309 604 330 587 332 559 c 1
459 289 m 0
 459 195.9 374 141 258 141 c 0
 223.9 141 196.8 146 182.5 152 c 1
 171.5 135 171 123.1 171 107 c 0
 171 64 201 59 229 59 c 0
 234 59 234 60 248 61 c 0
 271 64 294 66 311 66 c 0
 403 66 530 46 530 -68 c 0
 530 -121.4 485.5 -171.5 426.5 -200.5 c 0
 366.1 -230.2 290.3 -238 225 -238 c 0
 135.8 -238 32 -211 32 -124 c 0
 32 -99.2 37 -68 54 -46 c 1
 78 -32 116.4 -17.6 138 -4 c 1
 82.5 4.5 59 32 59 74 c 0
 59 106.8 101.5 145 146 160 c 1
 148 165 l 1
 148 165 123.3 172.6 108.5 183 c 0
 82.8 201 54 229 54 285 c 0
 54 381 143 439 251 439 c 0
 272.5 439 305.4 436 323.3 430.4 c 1
 397.9 434.3 461.2 434.9 509 439 c 1
 512 436 l 1
 510 427 509 416 509 407 c 0
 509 398 510 389 512 380 c 1
 509 377 l 1
 474.2 379.4 437.7 385.1 407.9 385.6 c 1
 439 364.6 459 323.5 459 289 c 0
326 288 m 0
 326 363 315 399 255 399 c 0
 203 399 187 356 187 290 c 0
 187 217 197 181 258 181 c 0
 306 181 326 217 326 288 c 0
183 -16 m 1
 157 -43 151 -70.9 151 -104 c 0
 151 -172 219 -193 253 -193 c 0
 339 -193 400 -152 400 -91 c 0
 400 -21.8 332 -17 276 -17 c 0
 262.2 -17 235.5 -18 206 -18 c 0
 197 -18 189.4 -16.8 183 -16 c 1
EndSplineSet
Colour: ff00ff
EndChar

StartChar: Hcircumflex
Encoding: 292 292 56
Width: 764
VWidth: 999
Flags: HMW
HStem: -3 21<91 175 175 259 539 623 623 707> 311 52<237 563> 628 20<91 175 175 259 539 623 623 707> 684 149
VStem: 103 144<2.67992 642.32> 551 144<2.67992 642.32>
LayerCount: 2
Fore
SplineSet
548 715 m 1
 532 684 l 1
 486 702 441.5 722 399 743 c 1
 357.5 720.5 311 702 265 684 c 1
 249 715 l 1
 294 751 345 794 384 833 c 1
 414 833 l 1
 453 792 503.3 750.7 548 715 c 1
527 445 m 2
 527 520 523 588 515 645 c 1
 517 648 l 1
 517 648 565 645 599 645 c 0
 634 645 682 648 682 648 c 1
 683 645 l 1
 675 592 671 520 671 445 c 2
 671 200 l 2
 671 125 675 57 683 0 c 1
 681 -3 l 1
 681 -3 633 0 599 0 c 0
 564 0 516 -3 516 -3 c 1
 515 0 l 1
 523 54 527 125 527 200 c 2
 527 311 l 1
 237 311 l 1
 237 200 l 2
 237 125 241 57 249 0 c 1
 247 -3 l 1
 247 -3 199 0 165 0 c 0
 130 0 82 -3 82 -3 c 1
 81 0 l 1
 89 54 93 125 93 200 c 2
 93 445 l 2
 93 520 89 588 81 645 c 1
 83 648 l 1
 83 648 131 645 165 645 c 0
 200 645 248 648 248 648 c 1
 249 645 l 1
 241 592 237 520 237 445 c 2
 237 363 l 1
 527 363 l 1
 527 445 l 2
EndSplineSet
Position2: "'cpsp' Versalabstaende 1" dx=2 dy=0 dh=5 dv=0
Colour: ff00ff
EndChar

StartChar: hcircumflex
Encoding: 293 293 57
Width: 606
VWidth: 999
Flags: HW
HStem: -3 21<74 155 155 224 380 465 465 528> 362 77<304.364 434> 678 20<206.465 222.167> 745 149
VStem: 86 132<2.6647 307.95 351 659.981> 197 295 386 132<2.6647 348.673>
LayerCount: 2
Fore
SplineSet
86 474 m 2
 86 550 81.7 619.3 74 662 c 1
 76 665 l 1
 116.5 668 193.9 688 219 698 c 1
 225.3 698 228 695 228 688 c 0
 220.3 626.7 218 575 218 500 c 2
 218 438 l 1
 214 351 l 1
 218 349 l 1
 264 408 338 439 389 439 c 0
 479 439 518 381 518 291 c 2
 518 180 l 2
 518 104 519 57 528 0 c 1
 526 -3 l 1
 526 -3 499 0 465 0 c 0
 430 0 381 -3 381 -3 c 1
 380 0 l 1
 386 53 386 105 386 180 c 2
 386 269 l 2
 386 342 361 362 334 362 c 0
 298 362 256 332 218 282 c 1
 218 180 l 2
 218 104 219 57 224 0 c 1
 222 -3 l 1
 222 -3 189.3 0 155 0 c 0
 120 0 75 -3 75 -3 c 1
 74 0 l 1
 82.5 53.5 86 105 86 180 c 2
 86 474 l 2
494 776 m 1
 478 745 l 1
 432 763 387.5 783 345 804 c 1
 303.5 781.5 257 763 211 745 c 1
 195 776 l 1
 240 812 291 855 330 894 c 1
 360 894 l 1
 399 853 449.3 811.7 494 776 c 1
EndSplineSet
Colour: ff00ff
EndChar

StartChar: Hbar
Encoding: 294 294 58
Width: 764
VWidth: 999
Flags: HW
HStem: -3 21<91 175 175 259 539 623 623 707> 311 52<237 563> 512 44<41 761> 628 20<91 175 175 259 539 623 623 707>
VStem: 103 144<2.67992 642.32> 551 144<2.67992 642.32>
LayerCount: 2
Fore
SplineSet
527 311 m 1
 237 311 l 1
 237 200 l 2
 237 125 241 57 249 0 c 1
 247 -3 l 1
 247 -3 199 0 165 0 c 0
 130 0 82 -3 82 -3 c 1
 81 0 l 1
 89 54 93 125 93 200 c 2
 93 445 l 2
 93 468 92.7 490.4 91.9 512 c 1
 41 512 l 1
 41 556 l 1
 89.7 556 l 1
 87.7 587.9 84.8 617.7 81 645 c 1
 83 648 l 1
 83 648 131 645 165 645 c 0
 200 645 248 648 248 648 c 1
 249 645 l 1
 245.1 619.2 242.2 588.9 240.2 556 c 1
 523.7 556 l 1
 521.7 587.9 518.8 617.7 515 645 c 1
 517 648 l 1
 517 648 565 645 599 645 c 0
 634 645 682 648 682 648 c 1
 683 645 l 1
 679.1 619.2 676.2 588.9 674.2 556 c 1
 761 556 l 1
 761 512 l 1
 672.1 512 l 1
 671.4 490.2 671 467.8 671 445 c 2
 671 200 l 2
 671 125 675 57 683 0 c 1
 681 -3 l 1
 681 -3 633 0 599 0 c 0
 564 0 516 -3 516 -3 c 1
 515 0 l 1
 523 54 527 125 527 200 c 2
 527 311 l 1
527 363 m 1
 527 445 l 2
 527 468 526.7 490.4 525.9 512 c 1
 238.1 512 l 1
 237.4 490.2 237 467.8 237 445 c 2
 237 363 l 1
 527 363 l 1
EndSplineSet
Position2: "'cpsp' Versalabstaende 1" dx=2 dy=0 dh=5 dv=0
Colour: ff80cc
EndChar

StartChar: hbar
Encoding: 295 295 59
Width: 606
VWidth: 999
Flags: HW
HStem: -3 21<74 155 155 224 380 465 465 528> 362 77<304.364 434> 523 51<-9 338> 678 20<206.465 222.167>
VStem: 86 132<2.6647 307.95 351 659.981> 386 132<2.6647 348.673>
LayerCount: 2
Fore
SplineSet
-9 523 m 1
 -9 574 l 1
 21 572.1 51.7 570.5 83.5 569.5 c 1
 81.5 606.3 78.3 638.3 74 662 c 1
 76 665 l 1
 116.5 668 193.9 688 219 698 c 1
 225.3 698 228 695 228 688 c 0
 222.9 647.2 220.2 610.6 218.9 568.6 c 1
 256.6 569.4 296.2 571.1 338 574 c 1
 338 523 l 1
 298.7 525.7 258.7 527.6 218.1 528.4 c 1
 218 519.3 218 509.8 218 500 c 2
 218 438 l 1
 214 351 l 1
 218 349 l 1
 264 408 338 439 389 439 c 0
 479 439 518 381 518 291 c 2
 518 180 l 2
 518 104 519 57 528 0 c 1
 526 -3 l 1
 526 -3 499 0 465 0 c 0
 430 0 381 -3 381 -3 c 1
 380 0 l 1
 386 53 386 105 386 180 c 2
 386 269 l 2
 386 342 361 362 334 362 c 0
 298 362 256 332 218 282 c 1
 218 180 l 2
 218 104 219 57 224 0 c 1
 222 -3 l 1
 222 -3 189.3 0 155 0 c 0
 120 0 75 -3 75 -3 c 1
 74 0 l 1
 82.5 53.5 86 105 86 180 c 2
 86 474 l 2
 86 492.4 85.8 510.4 85.3 527.7 c 1
 54.3 526.7 22.8 525.1 -9 523 c 1
EndSplineSet
Colour: ff80cc
EndChar

StartChar: Itilde
Encoding: 296 296 60
Width: 330
VWidth: 999
Flags: HW
HStem: -3 21<94 178 178 262> 628 20<94 178 178 262> 714 66<185.778 272.61> 766 67<63.1606 155.179>
VStem: 17 36<722.639 752.509> 106 144<2.67992 642.32> 288 36<799.092 826.75>
LayerCount: 2
Fore
SplineSet
239 792 m 0
 260 792 275 798 288 834 c 1
 320 825 l 1
 306 761 271 718 220 718 c 0
 177.9 718 142.1 760 102 760 c 0
 73 760 61 748 53 717 c 1
 20 724 l 1
 35 788 66 833 114 833 c 0
 163.7 833 190.5 792 239 792 c 0
93 445 m 2
 93 520 89 588 81 645 c 1
 83 648 l 1
 83 648 131 645 165 645 c 0
 200 645 248 648 248 648 c 1
 249 645 l 1
 241 592 237 520 237 445 c 2
 237 200 l 2
 237 125 241 57 249 0 c 1
 247 -3 l 1
 247 -3 199 0 165 0 c 0
 130 0 82 -3 82 -3 c 1
 81 0 l 1
 89 54 93 125 93 200 c 2
 93 445 l 2
EndSplineSet
Position2: "'cpsp' Versalabstaende 1" dx=2 dy=0 dh=5 dv=0
Colour: ff00ff
EndChar

StartChar: itilde
Encoding: 297 297 61
Width: 312
VWidth: 999
Flags: HW
HStem: -3 21<80 92.3333 220.667 232> 412 20<80 91.8333 216.167 226> 513 66<162.6 240.749> 565 67<52.2445 135.061>
VStem: 10.7 32.4<521.639 551.509> 90 132<2.6647 421.2> 254.6 32.4<598.092 625.75>
LayerCount: 2
Fore
SplineSet
210.5 591 m 0
 229.4 591 242.9 597 254.6 633 c 1
 283.4 624 l 1
 270.8 560 239.3 517 193.4 517 c 0
 155.5 517 123.3 559 87.2 559 c 0
 61.1 559 50.3 547 43.1 516 c 1
 13.4 523 l 1
 26.9 587 54.8 632 98 632 c 0
 142.7 632 166.9 591 210.5 591 c 0
90 235 m 2
 90 310 88 385 80 428 c 1
 83 432 l 1
 100.7 430.7 128 429 154 429 c 0
 182 429 209.3 432 223 434 c 0
 229 434 232 431 232 424 c 0
 225.7 364 222 321 222 246 c 2
 222 180 l 2
 222 104 224 57 232 0 c 1
 230 -3 l 1
 211.3 -1 190 0 156 0 c 0
 121 0 102.7 -0.7 82 -3 c 1
 80 0 l 1
 88 54 90 105 90 180 c 2
 90 235 l 2
EndSplineSet
Colour: ff00ff
EndChar

StartChar: Imacron
Encoding: 298 298 62
Width: 330
VWidth: 999
Flags: HW
HStem: -3 21<94 178 178 262> 628 20<94 178 178 262> 744 60<16.837 324.084>
VStem: 13 315<744.849 803.524> 106 144<2.67992 642.32>
LayerCount: 2
Fore
SplineSet
302 744 m 2
 28 744 l 2
 17 744 13 758 13 767 c 0
 13 779 25 804 38 804 c 2
 314 804 l 2
 324 804 328 790 328 782 c 0
 328 769 316 744 302 744 c 2
93 445 m 2
 93 520 89 588 81 645 c 1
 83 648 l 1
 83 648 131 645 165 645 c 0
 200 645 248 648 248 648 c 1
 249 645 l 1
 241 592 237 520 237 445 c 2
 237 200 l 2
 237 125 241 57 249 0 c 1
 247 -3 l 1
 247 -3 199 0 165 0 c 0
 130 0 82 -3 82 -3 c 1
 81 0 l 1
 89 54 93 125 93 200 c 2
 93 445 l 2
EndSplineSet
Position2: "'cpsp' Versalabstaende 1" dx=2 dy=0 dh=5 dv=0
Colour: ff00ff
EndChar

StartChar: imacron
Encoding: 299 299 63
Width: 312
VWidth: 999
Flags: HW
HStem: -3 21<80 92.3333 220.667 232> 412 20<80 91.8333 216.167 226> 530 60<23.5533 300.076>
VStem: 20.1 283.5<530.849 589.524> 90 132<2.6647 421.2>
LayerCount: 2
Fore
SplineSet
280.2 530 m 2
 33.6 530 l 2
 23.7 530 20.1 544 20.1 553 c 0
 20.1 565 30.9 590 42.6 590 c 2
 291 590 l 2
 300 590 303.6 576 303.6 568 c 0
 303.6 555 292.8 530 280.2 530 c 2
90 235 m 2
 90 310 88 385 80 428 c 1
 83 432 l 1
 100.7 430.7 128 429 154 429 c 0
 182 429 209.3 432 223 434 c 0
 229 434 232 431 232 424 c 0
 225.7 364 222 321 222 246 c 2
 222 180 l 2
 222 104 224 57 232 0 c 1
 230 -3 l 1
 211.3 -1 190 0 156 0 c 0
 121 0 102.7 -0.7 82 -3 c 1
 80 0 l 1
 88 54 90 105 90 180 c 2
 90 235 l 2
EndSplineSet
Colour: ff00ff
EndChar

StartChar: Ibreve
Encoding: 300 300 64
Width: 330
VWidth: 999
Flags: HW
HStem: -3 21<81 165 165 249> 628 20<81 165 165 249> 705 80<97.066 258.487>
VStem: 29 31<815.523 841> 93 144<2.67992 642.32> 298 30<815.393 841>
LayerCount: 2
Fore
SplineSet
328 841 m 1
 328 760 252 705 179 705 c 0
 99 705 29 760.5 29 841 c 1
 60 841 l 1
 60 807 121 785 179 785 c 0
 233 785 298 807 298 841 c 1
 328 841 l 1
93 445 m 2
 93 520 89 588 81 645 c 1
 83 648 l 1
 83 648 131 645 165 645 c 0
 200 645 248 648 248 648 c 1
 249 645 l 1
 241 592 237 520 237 445 c 2
 237 200 l 2
 237 125 241 57 249 0 c 1
 247 -3 l 1
 247 -3 199 0 165 0 c 0
 130 0 82 -3 82 -3 c 1
 81 0 l 1
 89 54 93 125 93 200 c 2
 93 445 l 2
EndSplineSet
Position2: "'cpsp' Versalabstaende 1" dx=2 dy=0 dh=5 dv=0
Colour: ff00ff
EndChar

StartChar: ibreve
Encoding: 301 301 65
Width: 312
VWidth: 999
Flags: HW
HStem: -3 21<80 92.3333 220.667 232> 412 20<80 91.8333 216.167 226> 481 76<77.5519 209.247>
VStem: 18.1 29.7<598.133 635> 90 132<2.6647 421.2> 239.5 29.7<598.811 635>
LayerCount: 2
Fore
SplineSet
47.8 635 m 1
 62.2 576.5 95.5 557 144.1 557 c 0
 191.3 557 229.6 579.5 239.5 635 c 1
 269.2 635 l 1
 264.7 532 208 481 144.1 481 c 0
 81.1 481 23.1 529.5 18.1 635 c 1
 47.8 635 l 1
90 235 m 2
 90 310 88 385 80 428 c 1
 83 432 l 1
 100.7 430.7 128 429 154 429 c 0
 182 429 209.3 432 223 434 c 0
 229 434 232 431 232 424 c 0
 225.7 364 222 321 222 246 c 2
 222 180 l 2
 222 104 224 57 232 0 c 1
 230 -3 l 1
 211.3 -1 190 0 156 0 c 0
 121 0 102.7 -0.7 82 -3 c 1
 80 0 l 1
 88 54 90 105 90 180 c 2
 90 235 l 2
EndSplineSet
Colour: ff00ff
EndChar

StartChar: Iogonek
Encoding: 302 302 66
Width: 330
VWidth: 999
Flags: HW
HStem: -222 80<145.228 225.49> -3 21<94 178 178 262> 628 20<94 178 178 262>
VStem: 51 86<-133.702 -17.6898> 106 144<2.67992 642.32>
LayerCount: 2
Fore
SplineSet
275 -139 m 1
 258 -189 207 -222 148 -222 c 0
 99 -222 51 -183 51 -122 c 0
 51 -75.6 56.8 -45.6 81.3 -0.9 c 1
 81 0 l 1
 89 54 93 125 93 200 c 2
 93 445 l 2
 93 520 89 588 81 645 c 1
 83 648 l 1
 83 648 131 645 165 645 c 0
 200 645 248 648 248 648 c 1
 249 645 l 1
 241 592 237 520 237 445 c 2
 237 200 l 2
 237 125 241 57 249 0 c 1
 247 -3 l 1
 247 -3 199 0 165 0 c 0
 161.3 0 157.4 0 153.4 -0.1 c 1
 137.8 -35.9 137 -72.9 137 -93 c 0
 137 -119.9 157 -142 184 -142 c 0
 207 -142 235.5 -134.8 251 -112 c 1
 264 -116 271 -126 275 -139 c 1
EndSplineSet
Position2: "'cpsp' Versalabstaende 1" dx=2 dy=0 dh=5 dv=0
Colour: ff80cc
EndChar

StartChar: iogonek
Encoding: 303 303 67
Width: 312
VWidth: 999
Flags: HW
HStem: -222 80<132.228 212.49> -3 21<80 97 215 232> 412 20<80 92.2366 216.006 226> 536 142<101.5 210.5>
VStem: 38 86<-133.702 -17.6898> 90 132<2.6647 421.154>
LayerCount: 2
Fore
SplineSet
262 -139 m 1
 245 -189 194 -222 135 -222 c 0
 86 -222 38 -183 38 -122 c 0
 38 -67.3 46.1 -35.4 83.3 24.6 c 1
 88.6 70.1 90 116.4 90 180 c 2
 90 235 l 2
 90 310 88 385 80 428 c 1
 83 432 l 1
 100.7 430.7 128 429 154 429 c 0
 182 429 209.3 432 223 434 c 0
 229 434 232 431 232 424 c 0
 225.7 364 222 321 222 246 c 2
 222 180 l 2
 222 104 224 57 232 0 c 1
 230 -3 l 1
 211.3 -1 190 0 156 0 c 0
 150.4 0 145.2 -0.1 140.4 -0.1 c 1
 124.7 -35.9 124 -72.9 124 -93 c 0
 124 -119.9 144 -142 171 -142 c 0
 194 -142 222.5 -134.8 238 -112 c 1
 251 -116 258 -126 262 -139 c 1
85 607 m 0
 85 645 116 676 156 676 c 0
 196 676 227 645 227 607 c 0
 227 569 196 538 156 538 c 0
 116 538 85 569 85 607 c 0
EndSplineSet
Colour: ff80cc
EndChar

StartChar: Idotaccent
Encoding: 304 304 68
Width: 330
VWidth: 999
Flags: HW
HStem: -3 21<94 178 178 262> 628 20<94 178 178 262> 721 142<123.5 232.5>
VStem: 103 150<741.5 842.5> 106 144<2.67992 642.32>
LayerCount: 2
Fore
SplineSet
107 792 m 0
 107 830 138 861 178 861 c 0
 218 861 249 830 249 792 c 0
 249 754 218 723 178 723 c 0
 138 723 107 754 107 792 c 0
93 445 m 2
 93 520 89 588 81 645 c 1
 83 648 l 1
 83 648 131 645 165 645 c 0
 200 645 248 648 248 648 c 1
 249 645 l 1
 241 592 237 520 237 445 c 2
 237 200 l 2
 237 125 241 57 249 0 c 1
 247 -3 l 1
 247 -3 199 0 165 0 c 0
 130 0 82 -3 82 -3 c 1
 81 0 l 1
 89 54 93 125 93 200 c 2
 93 445 l 2
EndSplineSet
Substitution2: "'c2sc' Versale nach Kapitaelchen 1" idotaccent.sc
Position2: "'cpsp' Versalabstaende 1" dx=2 dy=0 dh=5 dv=0
Colour: ff00ff
EndChar

StartChar: afii10057
Encoding: 1032 1032 69
Width: 443
VWidth: 999
Flags: HW
HStem: -10 82<85.5 194.39> 628 20G<200 284 284 364>
VStem: 210 144<154.671 642.32>
AnchorPoint: "top_akzent" 252 806 basechar 0
AnchorPoint: "top_punkt" 251 723 basechar 0
LayerCount: 2
Fore
SplineSet
210 346 m 2
 210 445 l 2
 210 520 208 588 200 645 c 1
 202 648 l 1
 202 648 250 645 284 645 c 0
 319 645 363 648 363 648 c 1
 364 645 l 1
 356 592 354 520 354 445 c 2
 354 308 l 2
 354 193.5 343.4 152.7 285 81 c 0
 233.1 17.3 158 -10 95 -10 c 0
 76 -10 28 -6 20 -1 c 1
 19 2 l 1
 30 21 46 94 46 123 c 1
 75 129 l 1
 86 109 128 72 157 72 c 0
 199.1 72 214 123.8 214 167 c 0
 214 236.8 210 305 210 346 c 2
EndSplineSet
EndChar

StartChar: afii10061
Encoding: 1036 1036 70
Width: 693
VWidth: 999
Flags: HW
HStem: -4 21<443 478.5 586.5 596> -3 21<94 178 178 262> 312 45<187 249.712> 569 89<450.534 559.69> 628 20<94 178 178 262> 822 148
VStem: 106 144<2.67992 642.32> 275 214
LayerCount: 2
Fore
SplineSet
93 445 m 2
 93 520 89 588 81 645 c 1
 83 648 l 1
 83 648 131 645 165 645 c 0
 200 645 248 648 248 648 c 1
 249 645 l 1
 241 592 237 520 237 445 c 2
 237 361.2 l 1
 249.5 366.4 262.3 377 278.9 393 c 0
 354.7 466 429.9 554.4 506 648 c 1
 519 645 577 645 590 645 c 0
 605 645 665 645 681 648 c 1
 593 571 435 433 367 354 c 1
 367 352.3 371 350 377 349 c 0
 446 337 479 300 521 246 c 0
 575 176 593 89 673 0 c 1
 670 -4 l 1
 657 -2 586 0 563 0 c 0
 538 0 518 -2 496 -4 c 1
 450 73 430 115 405 169 c 0
 368.8 247.2 337.4 302.5 237 311.5 c 1
 237 200 l 2
 237 125 241 57 249 0 c 1
 247 -3 l 1
 247 -3 199 0 165 0 c 0
 130 0 82 -3 82 -3 c 1
 81 0 l 1
 89 54 93 125 93 200 c 2
 93 445 l 2
432 843 m 1
 459.4 824.3 480 791 489 762 c 1
 482 748.1 l 1
 330 704 l 2
 307.8 697.6 299.1 695 291 695 c 0
 282.9 695 275 711 275 720 c 0
 275 727 276.8 734.8 290 744 c 2
 432 843 l 1
EndSplineSet
LCarets2: 1 0 
Colour: ff00ff
EndChar

StartChar: uni040D
Encoding: 1037 1037 71
Width: 746
VWidth: 999
Flags: HW
HStem: -3 21<94 178 178 262 500 584 584 668> 628 20<94 178 178 262 500 584 584 668> 822 148
VStem: 106 144<2.67992 642.32> 230 214 512 144<2.67992 642.32>
DStem2: 187 134 187 78 0.608002 0.793935<0 493.367>
LayerCount: 2
Fore
SplineSet
297 843 m 1
 439 744 l 2
 452.2 734.8 454 727 454 720 c 0
 454 711 446.1 695 438 695 c 0
 429.9 695 421.2 697.6 399 704 c 2
 247 748.1 l 1
 240 762 l 1
 249 791 269.6 824.3 297 843 c 1
93 445 m 2
 93 520 89 588 81 645 c 1
 83 648 l 1
 83 648 131 645 165 645 c 0
 200 645 248 648 248 648 c 1
 249 645 l 1
 241 592 237 520 237 445 c 2
 237 200 l 2
 237 194.4 237.1 188.8 237.1 183.3 c 1
 506.9 535.6 l 1
 505 575.2 501.6 612 497 645 c 1
 499 648 l 1
 499 648 547 645 581 645 c 0
 616 645 664 648 664 648 c 1
 665 645 l 1
 657 592 653 520 653 445 c 2
 653 200 l 2
 653 125 657 57 665 0 c 1
 663 -3 l 1
 663 -3 615 0 581 0 c 0
 546 0 498 -3 498 -3 c 1
 497 0 l 1
 505 54 509 125 509 200 c 2
 509 445 l 2
 509 450.8 508.9 456.6 508.9 462.3 c 1
 239.1 109.9 l 1
 241 70.1 244.3 33.2 249 0 c 1
 247 -3 l 1
 247 -3 199 0 165 0 c 0
 130 0 82 -3 82 -3 c 1
 81 0 l 1
 89 54 93 125 93 200 c 2
 93 445 l 2
EndSplineSet
LCarets2: 1 0 
Colour: ff00ff
EndChar

StartChar: afii10062
Encoding: 1038 1038 72
Width: 620
VWidth: 999
Flags: HW
HStem: -9.9 74.7<158.031 239.097> 628 20<24.5 35.4097 194.5 207.169 472.969 492 584.006 587> 714 41<303.963 396.037>
VStem: 220 80<761.847 827.403> 401 79<761.847 827.796>
LayerCount: 2
Fore
SplineSet
260.1 87.4 m 1
 183 283 54.8 569.6 16 648 c 1
 33 645 99 645 116 645 c 0
 133 645 186 645 203 648 c 1
 232 530 250.6 458.7 344 241 c 1
 402.9 380.6 459.9 550.5 486 648 c 1
 498 645 547 645 558 645 c 0
 569 645 591 645 603 648 c 1
 374 131 l 2
 348.3 72.9 334.4 45.5 299.5 13 c 0
 258.6 -25.1 212.7 -39.9 164.3 -39.9 c 0
 132.6 -39.9 69.3 -31 53.3 -17.5 c 1
 52.7 -14.4 l 1
 66.3 2.8 92.6 72.8 96.7 101.5 c 1
 126.3 103.4 l 1
 134.8 80.8 167.4 34.7 201.1 34.7 c 0
 224.5 34.7 249.5 63.9 260.1 87.4 c 1
350 755 m 0
 383 755 401 772 401 789 c 0
 401 794 400 800 400 802 c 0
 400 817 420 832 443 832 c 0
 470 832 480 818 480 799 c 0
 480 747 416 714 350 714 c 0
 284 714 220 747 220 799 c 0
 220 818 230 832 257 832 c 0
 280 832 300 817 300 802 c 0
 300 800 299 794 299 789 c 0
 299 772 317 755 350 755 c 0
EndSplineSet
LCarets2: 1 0 
Colour: ff00ff
EndChar

StartChar: afii10020
Encoding: 1043 1043 73
Width: 563
VWidth: 999
Flags: HW
HStem: -3 21<92 173 173 257> 564 81<251.435 501.657>
VStem: 103 144<2.67992 562.332>
LayerCount: 2
Fore
SplineSet
247 435 m 2
 247 200 l 2
 247 125 249 53 257 0 c 1
 256 -3 l 1
 256 -3 208 0 173 0 c 0
 139 0 94 -3 94 -3 c 1
 92 0 l 1
 100 57 103 125 103 200 c 2
 103 445 l 2
 103 520 101 591 93 645 c 1
 94 648 l 1
 94 648 143 645 177 645 c 2
 481 645 l 2
 502 645 525 646 541 648 c 1
 543 645 l 1
 542 631 541 613 541 603 c 0
 541 593 542 554 543 546 c 1
 541 542 l 1
 541 542 389 564 255 564 c 1
 248 540 247 452 247 435 c 2
EndSplineSet
Colour: ff00ff
EndChar

StartChar: afii10021
Encoding: 1044 1044 74
Width: 740
VWidth: 999
Flags: HW
HStem: -141 173<27 85 641.401 692> 0 53<227.009 471.857> 592 53<303.152 471.721>
VStem: 24 64<-138 -63.5> 480 144<69.1735 577.818> 632 63<-138 -63.5>
LayerCount: 2
Fore
SplineSet
447 53 m 2
 463 53 469 59 472 68 c 0
 478 92 480 183 480 200 c 2
 480 436 l 2
 480 453 478 555 472 579 c 1
 466 588 463 592 449 592 c 2
 336 592 l 2
 312 592 303 582 301 557 c 0
 294 456 281 361 270 293 c 0
 250 176 227 86 227 65 c 0
 227 53 239 53 252 53 c 2
 447 53 l 2
211 0 m 2
 115 0 101 -65 88 -138 c 1
 85 -141 l 1
 27 -141 l 1
 24 -138 l 1
 10 11 l 2
 10 21 16 29 46 32 c 0
 70 34 95 32 112 47 c 0
 143 73 161 145 199 301 c 1
 225 415 235 518 235 581 c 0
 235 603 232 625 228 645 c 1
 229 648 l 1
 229 648 261 645 302 645 c 2
 572 645 l 2
 613 645 635 648 635 648 c 1
 636 645 l 1
 626 591 624 520 624 445 c 2
 624 200 l 2
 624 90 632 35 673 32 c 0
 703 30 709 21 709 11 c 2
 695 -138 l 1
 692 -141 l 1
 634 -141 l 1
 632 -138 l 1
 619 -65 604 0 508 0 c 2
 211 0 l 2
EndSplineSet
EndChar

StartChar: afii10024
Encoding: 1046 1046 75
Width: 1013
VWidth: 999
Flags: HW
HStem: -4 21G<20 29.5 186 220 793 827 983.5 993> -3 21<424 508 508 592> 628 20G<20 56 180.5 225 424 508 508 592 788 832.5 957 993>
VStem: 436 144<2.67992 642.32>
LayerCount: 2
Fore
SplineSet
436 445 m 2
 436 520 432 588 424 645 c 1
 426 648 l 1
 426 648 474 645 508 645 c 0
 543 645 591 648 591 648 c 1
 592 645 l 1
 584 592 580 520 580 445 c 2
 580 375.5 l 1
 585.9 380.3 592.2 386.2 599 393 c 0
 675 466 750 554 826 648 c 1
 839 645 897 645 910 645 c 0
 925 645 985 645 1001 648 c 1
 913 571 755 433 687 354 c 1
 687 352 691 350 697 349 c 0
 766 337 799 300 841 246 c 0
 895 176 913 89 993 0 c 1
 990 -4 l 1
 977 -2 906 0 883 0 c 0
 858 0 838 -2 816 -4 c 1
 770 73 750 115 725 169 c 0
 691.7 240.9 662.5 293.4 580 308.4 c 1
 580 200 l 2
 580 125 584 57 592 0 c 1
 590 -3 l 1
 590 -3 542 0 508 0 c 0
 473 0 425 -3 425 -3 c 1
 424 0 l 1
 432 54 436 125 436 200 c 2
 436 308.9 l 1
 351.2 294.7 321.7 241.8 288 169 c 0
 263 115 243 73 197 -4 c 1
 175 -2 155 0 130 0 c 0
 107 0 36 -2 23 -4 c 1
 20 0 l 1
 100 89 118 176 172 246 c 0
 214 300 247 337 316 349 c 0
 322 350 326 352 326 354 c 1
 258 433 100 571 12 648 c 1
 28 645 88 645 103 645 c 0
 116 645 174 645 187 648 c 1
 263 554 338 466 414 393 c 0
 422 385 429.2 378.3 436 373.1 c 1
 436 445 l 2
EndSplineSet
Colour: ff80cc
EndChar

StartChar: afii10025
Encoding: 1047 1047 76
Width: 551
VWidth: 999
Flags: HW
HStem: -12 53<162.21 321.878> 328 53<158.501 299.553> 608 50<157.055 298.941>
VStem: 23 109<73.4672 161.563> 49 55<471 539.6> 336 148<426.2 571.138> 366 160<95.7764 282.713>
LayerCount: 2
Fore
SplineSet
248 41 m 0
 317.8 41 366 77 366 176 c 0
 366 227 366 328 249 328 c 2
 176 328 l 2
 165 328 158 343 158 354 c 0
 158 365 165 381 176 381 c 2
 223 381 l 2
 333.8 381 336 459 336 506 c 0
 336 550 303.8 608 249 608 c 0
 126 608 128 550 104 469 c 1
 49 471 l 1
 64 618 l 1
 143 648 191 658 251 658 c 0
 399 658 484 618 484 516 c 0
 484 437 448.8 381 367 360 c 1
 476.8 339 526 303 526 182 c 0
 526 39.8 395.8 -12 246 -12 c 0
 165 -12 117 2 80 31 c 0
 48 56 23 89 23 121 c 0
 23 152 40 177 68 177 c 0
 102 177 119 161 132 123 c 0
 157 50 172 41 248 41 c 0
EndSplineSet
EndChar

StartChar: afii10026
Encoding: 1048 1048 77
Width: 746
VWidth: 999
Flags: HW
HStem: -3 21<81 165 165 249 497 581 581 665> 628 20<81 165 165 249 497 581 581 665>
VStem: 93 144<2.67992 642.32> 509 144<2.67992 642.32>
DStem2: 207 144 207 68 0.608002 0.793935<0 477.488>
LayerCount: 2
Fore
SplineSet
93 445 m 2
 93 520 89 588 81 645 c 1
 83 648 l 1
 83 648 131 645 165 645 c 0
 200 645 248 648 248 648 c 1
 249 645 l 1
 241 592 237 520 237 445 c 2
 237 200 l 2
 237 194.4 237.1 188.8 237.1 183.3 c 1
 506.9 535.6 l 1
 505 575.2 501.6 612 497 645 c 1
 499 648 l 1
 499 648 547 645 581 645 c 0
 616 645 664 648 664 648 c 1
 665 645 l 1
 657 592 653 520 653 445 c 2
 653 200 l 2
 653 125 657 57 665 0 c 1
 663 -3 l 1
 663 -3 615 0 581 0 c 0
 546 0 498 -3 498 -3 c 1
 497 0 l 1
 505 54 509 125 509 200 c 2
 509 445 l 2
 509 450.8 508.9 456.6 508.9 462.3 c 1
 239.1 109.9 l 1
 241 70.1 244.3 33.2 249 0 c 1
 247 -3 l 1
 247 -3 199 0 165 0 c 0
 130 0 82 -3 82 -3 c 1
 81 0 l 1
 89 54 93 125 93 200 c 2
 93 445 l 2
EndSplineSet
EndChar

StartChar: afii10027
Encoding: 1049 1049 78
Width: 746
VWidth: 999
Flags: HW
HStem: -3 21<81 165 165 249 497 581 581 665> 628 20<81 165 165 249 497 581 581 665> 714 41<325.963 418.037>
VStem: 93 144<2.67992 642.32> 242 80<761.847 827.403> 423 79<761.847 827.796> 509 144<2.67992 642.32>
DStem2: 207 144 207 68 0.608002 0.793935<0 477.488>
LayerCount: 2
Fore
SplineSet
93 445 m 2
 93 520 89 588 81 645 c 1
 83 648 l 1
 83 648 131 645 165 645 c 0
 200 645 248 648 248 648 c 1
 249 645 l 1
 241 592 237 520 237 445 c 2
 237 200 l 2
 237 194.4 237.1 188.8 237.1 183.3 c 1
 506.9 535.6 l 1
 505 575.2 501.6 612 497 645 c 1
 499 648 l 1
 499 648 547 645 581 645 c 0
 616 645 664 648 664 648 c 1
 665 645 l 1
 657 592 653 520 653 445 c 2
 653 200 l 2
 653 125 657 57 665 0 c 1
 663 -3 l 1
 663 -3 615 0 581 0 c 0
 546 0 498 -3 498 -3 c 1
 497 0 l 1
 505 54 509 125 509 200 c 2
 509 445 l 2
 509 450.8 508.9 456.6 508.9 462.3 c 1
 239.1 109.9 l 1
 241 70.1 244.3 33.2 249 0 c 1
 247 -3 l 1
 247 -3 199 0 165 0 c 0
 130 0 82 -3 82 -3 c 1
 81 0 l 1
 89 54 93 125 93 200 c 2
 93 445 l 2
372 755 m 0
 405 755 423 772 423 789 c 0
 423 794 422 800 422 802 c 0
 422 817 442 832 465 832 c 0
 492 832 502 818 502 799 c 0
 502 747 438 714 372 714 c 0
 306 714 242 747 242 799 c 0
 242 818 252 832 279 832 c 0
 302 832 322 817 322 802 c 0
 322 800 321 794 321 789 c 0
 321 772 339 755 372 755 c 0
EndSplineSet
LCarets2: 1 0 
Colour: ff00ff
EndChar

StartChar: afii10033
Encoding: 1055 1055 79
Width: 784
VWidth: 999
Flags: HW
HStem: -3 21<90 174 174 255 529 622 622 694> 585 60<253.326 530.674>
VStem: 101 144<2.67992 570.83> 539 144<2.67992 570.83>
LayerCount: 2
Fore
SplineSet
622 645 m 2
 656 645 692 648 692 648 c 1
 693 645 l 1
 685 591 683 520 683 445 c 2
 683 200 l 2
 683 125 686 57 694 0 c 1
 692 -3 l 1
 692 -3 656 0 622 0 c 0
 587 0 530 -3 530 -3 c 1
 529 0 l 1
 537 53 539 125 539 200 c 2
 539 445 l 2
 539 462 538 548 531 572 c 1
 524 581 520 585 505 585 c 2
 279 585 l 2
 264 585 260 581 253 572 c 1
 246 548 245 462 245 445 c 2
 245 200 l 2
 245 125 247 53 255 0 c 1
 254 -3 l 1
 254 -3 209 0 174 0 c 0
 140 0 92 -3 92 -3 c 1
 90 0 l 1
 98 57 101 125 101 200 c 2
 101 445 l 2
 101 520 99 591 91 645 c 1
 92 648 l 1
 92 648 140 645 174 645 c 2
 622 645 l 2
EndSplineSet
Colour: ff00ff
EndChar

StartChar: afii10034
Encoding: 1056 1056 80
Width: 598
VWidth: 999
Flags: HW
HStem: -3 21<81 165 165 247> 274 51<235.835 380.582> 604 48<202.526 387.538>
VStem: 93 142<2.67993 284 329.159 597.193> 422 151<399.424 566.15>
LayerCount: 2
Fore
SplineSet
235 560 m 2
 235 335 l 1
 248 328 289 325 314 325 c 0
 372.1 325 422 367 422 468 c 0
 422 587 374 604 315 604 c 0
 243 604 235 589 235 560 c 2
93 445 m 2
 93 520 89 588 81 645 c 1
 83 648 l 1
 83 648 131 645 165 645 c 0
 195 645 316 652 342 652 c 0
 413.1 652 467.7 642.6 503 618 c 0
 559 579 573 522.3 573 486 c 0
 573 383 507 274 325 274 c 0
 290 274 257 277 235 284 c 1
 235 200 l 2
 235 125 239 57 247 0 c 1
 245 -3 l 1
 245 -3 199 0 165 0 c 0
 130 0 82 -3 82 -3 c 1
 81 0 l 1
 89 54 93 125 93 200 c 2
 93 445 l 2
EndSplineSet
Colour: ff00ff
EndChar

StartChar: afii10035
Encoding: 1057 1057 81
Width: 706
VWidth: 999
Flags: HW
HStem: -10 60<329.73 503.017> 603 55<311.6 485.335>
VStem: 37 163<216.639 441.284>
LayerCount: 2
Fore
SplineSet
414 658 m 0
 536 658 639 613 639 613 c 1
 641 610 l 1
 629.2 560.7 624.6 531 621 480 c 1
 591 479 l 1
 550 561 497 603 407 603 c 0
 325 603 215 532 215 329 c 0
 215 158.8 297 50 406 50 c 0
 499 50 554 67 629 139 c 1
 653 105 l 1
 569 18 469.2 -10 380 -10 c 0
 295.2 -10 235.1 7.7 175 48 c 0
 96 101 52 205 52 310 c 0
 52 419.9 97.1 522.3 176 584 c 0
 238.5 632.8 323 658 414 658 c 0
EndSplineSet
Colour: ff00ff
EndChar

StartChar: afii10036
Encoding: 1058 1058 82
Width: 602
VWidth: 999
Flags: HW
HStem: -3 21<219 301 301 383> 567 78<17.7551 224.565 377.435 584.245>
VStem: 229 144<2.67992 565.827>
LayerCount: 2
Fore
SplineSet
229 436 m 2
 229 453 228 543 221 567 c 1
 87 567 17 545 17 545 c 1
 15 549 l 1
 17 564 17 617 15 645 c 1
 17 648 l 1
 33 646 56 645 77 645 c 2
 525 645 l 2
 546 645 569 646 585 648 c 1
 587 645 l 1
 585 617 585 564 587 549 c 1
 585 545 l 1
 585 545 515 567 381 567 c 1
 374 543 373 453 373 436 c 2
 373 200 l 2
 373 125 375 57 383 0 c 1
 381 -3 l 1
 381 -3 335 0 301 0 c 0
 266 0 220 -3 220 -3 c 1
 219 0 l 1
 227 54 229 125 229 200 c 2
 229 436 l 2
EndSplineSet
Colour: ff00ff
EndChar

StartChar: afii10037
Encoding: 1059 1059 83
Width: 620
VWidth: 999
Flags: HW
HStem: -9.9 74.7<158.031 239.097> 628 20G<24.5 35.4097 194.5 207.169 472.969 492 584.006 587>
LayerCount: 2
Fore
SplineSet
260.1 87.4 m 1
 183 283 54.8 569.6 16 648 c 1
 33 645 99 645 116 645 c 0
 133 645 186 645 203 648 c 1
 232 530 250.6 458.7 344 241 c 1
 402.9 380.6 459.9 550.5 486 648 c 1
 498 645 547 645 558 645 c 0
 569 645 591 645 603 648 c 1
 374 131 l 2
 348.3 72.9 334.4 45.5 299.5 13 c 0
 258.6 -25.1 212.7 -39.9 164.3 -39.9 c 0
 132.6 -39.9 69.3 -31 53.3 -17.5 c 1
 52.7 -14.4 l 1
 66.3 2.8 92.6 72.8 96.7 101.5 c 1
 126.3 103.4 l 1
 134.8 80.8 167.4 34.7 201.1 34.7 c 0
 224.5 34.7 249.5 63.9 260.1 87.4 c 1
EndSplineSet
EndChar

StartChar: afii10039
Encoding: 1061 1061 84
Width: 672
VWidth: 999
Flags: HW
HStem: -3 21<17 62.2651 128 159.076 443.368 477 610.089 651> 628 20<24.5 67.1636 196 220.128 481.034 514 608.918 626>
LayerCount: 2
Fore
SplineSet
661 -3 m 1
 641 0 593 0 573 0 c 0
 553 0 487 0 467 -3 c 1
 419.7 78.2 359.5 176.4 311.3 250.7 c 0
 308.3 256.6 305.9 255.2 303.7 252.3 c 0
 250.1 177.8 184.2 79.8 134 -3 c 1
 122 0 94 0 81 0 c 0
 69 0 23 0 11 -3 c 1
 113.5 132.7 196.4 239.9 253.5 314 c 1
 193.5 402.2 119.3 505.9 15 648 c 1
 34 645 105 645 124 645 c 0
 143 645 186 645 206 648 c 1
 234.3 595.4 275.1 532.8 340.9 437 c 0
 349 426.3 351 424 356.4 428.9 c 1
 426.9 520.9 454.1 559.4 508 648 c 1
 520 645 562 645 574 645 c 0
 586 645 620 645 632 648 c 1
 585.8 590 500.5 489.9 404.3 365 c 1
 466.8 275 559.2 144.7 661 -3 c 1
EndSplineSet
Colour: ff00ff
EndChar

StartChar: afii10040
Encoding: 1062 1062 85
Width: 780
VWidth: 999
Flags: HW
HStem: 0 53<241.144 497.856> 628 20G<78 161 161 243 496 578 578 661>
VStem: 89 144<69.1735 642.32> 506 144<69.1735 642.32> 652 76<-138 -70.9162>
LayerCount: 2
Fore
SplineSet
650 200 m 2
 650 90 676.2 35 710 32 c 0
 734.9 29.8 740 20.7 740 11 c 2
 728 -138 l 1
 726 -141 l 1
 654 -141 l 1
 652 -138 l 1
 641.1 -65.4 599.7 0 520 0 c 2
 161 0 l 2
 127 0 80 -3 80 -3 c 1
 79 0 l 1
 87 54 89 125 89 200 c 2
 89 445 l 2
 89 520 86 588 78 645 c 1
 80 648 l 1
 80 648 127 645 161 645 c 0
 196 645 242 648 242 648 c 1
 243 645 l 1
 235 592 233 520 233 445 c 2
 233 200 l 2
 233 183 234 94 241 70 c 0
 244 61 251 55 269 55 c 2
 470 55 l 2
 488 55 495 61 498 70 c 0
 505 94 506 183 506 200 c 2
 506 445 l 2
 506 520 504 592 496 645 c 1
 497 648 l 1
 497 648 543 645 578 645 c 0
 612 645 659 648 659 648 c 1
 661 645 l 1
 653 588 650 520 650 445 c 2
 650 200 l 2
EndSplineSet
EndChar

StartChar: afii10041
Encoding: 1063 1063 86
Width: 694
VWidth: 999
Flags: HW
HStem: -3 21<441 525 525 609> 244 73<184 373.585> 628 20G<75 157 157 239 441 525 525 609>
VStem: 85 144<333.519 642.32> 453 144<2.67992 642.32>
LayerCount: 2
Fore
SplineSet
229 445 m 2
 229 426 l 2
 229 344 240 317 312 317 c 0
 338.6 317 394.6 320.3 453 354 c 1
 453 445 l 2
 453 520 449 588 441 645 c 1
 443 648 l 1
 443 648 491 645 525 645 c 0
 560 645 608 648 608 648 c 1
 609 645 l 1
 601 592 597 520 597 445 c 2
 597 200 l 2
 597 125 601 57 609 0 c 1
 607 -3 l 1
 607 -3 559 0 525 0 c 0
 490 0 442 -3 442 -3 c 1
 441 0 l 1
 449 54 453 125 453 200 c 2
 453 300.6 l 1
 382.3 257.8 294.9 244 241 244 c 0
 127 244 85 323 85 422 c 2
 85 445 l 2
 85 520 83 588 75 645 c 1
 77 648 l 1
 77 648 123 645 157 645 c 0
 192 645 238 648 238 648 c 1
 239 645 l 1
 231 592 229 520 229 445 c 2
EndSplineSet
EndChar

StartChar: afii10042
Encoding: 1064 1064 87
Width: 1018
VWidth: 999
Flags: HW
HStem: 0 53<255.144 427.856 588.144 762.856> 628 20G<92 175 175 257 425 508 508 590 761 843 843 926>
VStem: 103 144<69.1801 642.32> 436 144<69.1801 642.32> 771 144<69.1801 642.32>
LayerCount: 2
Fore
SplineSet
915 200 m 2
 915.3 125 917 57 925 0 c 1
 923 -3 l 1
 923 -3 877 0 843 0 c 2
 176 0 l 2
 141 0 94 -3 94 -3 c 1
 93 0 l 1
 101 54 103 125 103 200 c 2
 103 445 l 2
 103 520 100 588 92 645 c 1
 94 648 l 1
 94 648 141 645 175 645 c 0
 210 645 256 648 256 648 c 1
 257 645 l 1
 249 592 247 520 247 445 c 2
 247 209 l 2
 247 192 248 92 255 68 c 0
 258 59 265 53 283 53 c 2
 400 53 l 2
 418 53 425 59 428 68 c 0
 435 92 436 192 436 209 c 2
 436 445 l 2
 436 520 433 588 425 645 c 1
 427 648 l 1
 427 648 474 645 508 645 c 0
 543 645 589 648 589 648 c 1
 590 645 l 1
 582 592 580 520 580 445 c 2
 580 209 l 2
 580 192 581 92 588 68 c 0
 591 59 598 53 616 53 c 2
 735 53 l 2
 753 53 760 59 763 68 c 0
 770 92 771 192 771 209 c 2
 771 445 l 2
 771 520 769 592 761 645 c 1
 762 648 l 1
 762 648 808 645 843 645 c 0
 877 645 924 648 924 648 c 1
 926 645 l 1
 918 588 915 520 915 445 c 2
 915 200 l 2
EndSplineSet
EndChar

StartChar: afii10043
Encoding: 1065 1065 88
Width: 1049
VWidth: 999
Flags: HW
HStem: 0 53<255.144 427.856 588.144 762.856> 628 20<92 175 175 257 425 508 508 590 761 843 843 926>
VStem: 103 144<69.1801 642.32> 436 144<69.1801 642.32> 771 144<69.1801 642.32> 917 85<-138 -51.0833>
LayerCount: 2
Fore
SplineSet
814 0 m 2
 176 0 l 2
 141 0 94 -3 94 -3 c 1
 93 0 l 1
 101 54 103 125 103 200 c 2
 103 445 l 2
 103 520 100 588 92 645 c 1
 94 648 l 1
 94 648 141 645 175 645 c 0
 210 645 256 648 256 648 c 1
 257 645 l 1
 249 592 247 520 247 445 c 2
 247 209 l 2
 247 192 248 92 255 68 c 0
 258 59 265 53 283 53 c 2
 400 53 l 2
 418 53 425 59 428 68 c 0
 435 92 436 192 436 209 c 2
 436 445 l 2
 436 520 433 588 425 645 c 1
 427 648 l 1
 427 648 474 645 508 645 c 0
 543 645 589 648 589 648 c 1
 590 645 l 1
 582 592 580 520 580 445 c 2
 580 209 l 2
 580 192 581 92 588 68 c 0
 591 59 598 53 616 53 c 2
 735 53 l 2
 753 53 760 59 763 68 c 0
 770 92 771 192 771 209 c 2
 771 445 l 2
 771 520 769 592 761 645 c 1
 762 648 l 1
 762 648 808 645 843 645 c 0
 877 645 924 648 924 648 c 1
 926 645 l 1
 918 588 915 520 915 445 c 2
 915 200 l 2
 915 90 950.2 35 984 32 c 0
 1008.9 29.8 1014 20.7 1014 11 c 2
 1002 -138 l 1
 1000 -141 l 1
 919 -141 l 1
 917 -138 l 1
 906.1 -65.4 893.7 0 814 0 c 2
EndSplineSet
EndChar

StartChar: afii10044
Encoding: 1066 1066 89
Width: 759
VWidth: 999
Flags: HW
HStem: -3 48<202.526 383.209> 329 51<235 381.26> 632 20G<81 165 165 247>
VStem: 93 142<51.8069 329 380 646.32> 422 152<87.9148 284.608>
LayerCount: 2
Fore
SplineSet
395 85 m 2
 395 56 403 41 475 41 c 0
 534 41 582 68 582 180 c 0
 582 281 542 325 484 325 c 2
 484 325 411 325 395 325 c 1
 395 85 l 2
253 200 m 2
 253 445 l 2
 253 485 251.9 523 249.6 558 c 1
 143 553.3 47 542 47 542 c 1
 45 546 l 1
 46 554 47 593 47 603 c 0
 47 613 46 631 45 645 c 1
 47 648 l 1
 63 646 86 644.6 107 645 c 2
 242 645 l 1
 242 645 290 645 325 645 c 0
 359 645 405 648 405 648 c 1
 407 645 l 1
 399 588 395 520 395 445 c 2
 395 376 l 1
 525 376 l 2
 703 376 734 272 734 187 c 0
 734 135 720 66 664 27 c 0
 629 2 573 -7 502 -7 c 0
 476 -7 355 0 325 0 c 0
 291 0 243 -3 243 -3 c 1
 241 0 l 1
 249 57 253 125 253 200 c 2
EndSplineSet
EndChar

StartChar: afii10045
Encoding: 1067 1067 90
Width: 902
VWidth: 999
Flags: HW
HStem: -7 53<202.526 386.659> -3 21<653 737 737 821> 325 51<235 381.26> 628 20<81 165 165 247 653 737 737 821>
VStem: 93 142<53.5694 325 376 642.32> 422 152<84.7613 280.608> 665 144<2.67992 642.32>
LayerCount: 2
Fore
SplineSet
665 445 m 2
 665 520 661 588 653 645 c 1
 655 648 l 1
 655 648 703 645 737 645 c 0
 772 645 820 648 820 648 c 1
 821 645 l 1
 813 592 809 520 809 445 c 2
 809 200 l 2
 809 125 813 57 821 0 c 1
 819 -3 l 1
 819 -3 771 0 737 0 c 0
 702 0 654 -3 654 -3 c 1
 653 0 l 1
 661 54 665 125 665 200 c 2
 665 445 l 2
235 90 m 2
 235 61 243 46 315 46 c 0
 374 46 422 68 422 180 c 0
 422 281 382 325 324 325 c 2
 324 325 251 325 235 325 c 1
 235 90 l 2
93 200 m 2
 93 445 l 2
 93 520 89 591 81 645 c 1
 82 648 l 1
 82 648 130 645 165 645 c 0
 199 645 245 648 245 648 c 1
 247 645 l 1
 239 588 235 520 235 445 c 2
 235 376 l 1
 365 376 l 2
 543 376 574 272 574 187 c 0
 574 135 560 66 504 27 c 0
 468.7 2.4 413.1 -7 342 -7 c 0
 316 -7 195 0 165 0 c 0
 131 0 83 -3 83 -3 c 1
 81 0 l 1
 89 57 93 125 93 200 c 2
EndSplineSet
Colour: ff00ff
EndChar

StartChar: afii10046
Encoding: 1068 1068 91
Width: 599
VWidth: 999
Flags: HW
HStem: -7 53<202.526 386.659> 325 51<235 381.26> 628 20G<81 165 165 247>
VStem: 93 142<53.5694 325 376 642.32> 422 152<84.7613 280.608>
LayerCount: 2
Fore
SplineSet
235 90 m 2
 235 61 243 46 315 46 c 0
 374 46 422 68 422 180 c 0
 422 281 382 325 324 325 c 2
 324 325 251 325 235 325 c 1
 235 90 l 2
93 200 m 2
 93 445 l 2
 93 520 89 591 81 645 c 1
 82 648 l 1
 82 648 130 645 165 645 c 0
 199 645 245 648 245 648 c 1
 247 645 l 1
 239 588 235 520 235 445 c 2
 235 376 l 1
 365 376 l 2
 543 376 574 272 574 187 c 0
 574 135 560 66 504 27 c 0
 468.7 2.4 413.1 -7 342 -7 c 0
 316 -7 195 0 165 0 c 0
 131 0 83 -3 83 -3 c 1
 81 0 l 1
 89 57 93 125 93 200 c 2
EndSplineSet
EndChar

StartChar: afii10047
Encoding: 1069 1069 92
Width: 674
VWidth: 999
Flags: HMW
HStem: -12 34<194 359> 273 56<309 422> 311 49<155 284> 621 37<189 346>
VStem: 472 89<186 307 344 460>
LayerCount: 2
Fore
SplineSet
292 603 m 0
 202 603 146 561 105 479 c 1
 75 480 l 1
 71 531 67 561 55 610 c 1
 57 613 l 1
 57 613 160 658 282 658 c 0
 499 658 616 513 616 331 c 0
 616 131 483 -12 279 -12 c 0
 157 -12 54 33 54 33 c 1
 52 36 l 1
 64 85 68 115 72 166 c 1
 102 167 l 1
 143 85 199 43 289 43 c 0
 400 43 459 167 459 307 c 1
 429 281 398 266 359 266 c 0
 327 266 300 274 274 285 c 0
 251 295 223 304 194 304 c 0
 156 304 140 288 132 288 c 0
 128 288 123 292 123 300 c 0
 123 325 187 378 246 378 c 0
 281 378 308 372 330 361 c 0
 351 351 372 346 400 346 c 0
 429 346 445 352 459 358 c 1
 451 483 391 603 292 603 c 0
EndSplineSet
EndChar

StartChar: afii10048
Encoding: 1070 1070 93
Width: 964
VWidth: 999
Flags: HW
HStem: -10 50<557.005 681.702> -3 21<81 165 165 249> 294 60<197 315> 608 50<549.929 674.614> 628 20<81 165 165 249>
VStem: 93 144<2.67992 642.32> 315 163<164.656 294 354 455.799> 749 163<175.193 471.342>
LayerCount: 2
Fore
SplineSet
608 608 m 0
 533.9 608 478 537 478 327 c 0
 478 135 531 40 621 40 c 0
 704 40 749 131 749 310 c 0
 749 518 703 608 608 608 c 0
93 445 m 2
 93 520 89 588 81 645 c 1
 83 648 l 1
 83 648 131 645 165 645 c 0
 200 645 248 648 248 648 c 1
 249 645 l 1
 241 592 237 520 237 445 c 2
 237 354 l 1
 316 354 l 1
 332 533 423 658 610 658 c 0
 812 658 912 527 912 329 c 0
 912 129 830 -10 616 -10 c 0
 426 -10 317 100 315 294 c 1
 237 294 l 1
 237 200 l 2
 237 125 241 57 249 0 c 1
 247 -3 l 1
 247 -3 199 0 165 0 c 0
 130 0 82 -3 82 -3 c 1
 81 0 l 1
 89 54 93 125 93 200 c 2
 93 445 l 2
EndSplineSet
EndChar

StartChar: afii10049
Encoding: 1071 1071 94
Width: 667
VWidth: 999
Flags: HW
HStem: -3 21G<31 43 194.5 209.5 418 500 500 582> 296 56<325.371 428> 602 50<276.183 458.805>
VStem: 96 155<398.052 573.632> 428 142<2.67993 296 352 594.385>
LayerCount: 2
Fore
SplineSet
359 602 m 0
 298 602 251 600 251 482 c 0
 251 357 297 352 394 352 c 2
 428 352 l 1
 428 553 l 2
 428 582 421 602 359 602 c 0
246.7 311.8 m 1
 163.4 332.1 96 378.4 96 483 c 0
 96 548 120 592 161 618 c 0
 207 648 274 652 340 652 c 0
 365 652 466 645 496 645 c 0
 530 645 580 648 580 648 c 1
 582 645 l 1
 574 588 570 520 570 445 c 2
 570 200 l 2
 570 125 574 54 582 0 c 1
 581 -3 l 1
 581 -3 535 0 500 0 c 0
 466 0 420 -3 420 -3 c 1
 418 0 l 1
 426 57 428 125 428 200 c 2
 428 296 l 1
 416.1 296 403.7 296.1 391 296.3 c 1
 362.6 261.7 336.2 214.6 309 176 c 0
 259 104 215 31 204 -3 c 1
 185 0 145 0 126 0 c 0
 106 0 53 0 33 -3 c 1
 31 0 l 1
 81.4 57.1 183.5 227.4 246.7 311.8 c 1
EndSplineSet
EndChar

StartChar: afii10089
Encoding: 1095 1095 95
Width: 588
VWidth: 999
Flags: HW
HStem: -3 21G<360 436 436 512> 117 59<190.372 301.195> 412 20G<66 142 142 218 360 436 436 512>
VStem: 77 132<183.932 426.357> 370 132<2.66467 180 235 426.449>
LayerCount: 2
Fore
SplineSet
77 291 m 0
 77 350.5 74 376 66 429 c 1
 67 432 l 1
 67 432 107 429 142 429 c 0
 176 429 216 432 216 432 c 1
 218 429 l 1
 210 372 209 355.5 209 293 c 0
 209 223 212.8 176 252 176 c 0
 301 176 338 203 370 235 c 1
 370 250 l 2
 370 321 369 375 360 429 c 1
 361 432 l 1
 361 432 401 429 436 429 c 0
 470 429 510 432 510 432 c 1
 512 429 l 1
 504 374.5 503 325 502 250 c 1
 502 179 l 2
 502 104 503 57 512 0 c 1
 510 -3 l 1
 510 -3 470 0 436 0 c 0
 401 0 361 -3 361 -3 c 1
 360 0 l 1
 369 54 370 105 370 179 c 2
 370 180 l 1
 331 151 273 117 213 117 c 0
 167.7 117 130.4 120.6 109.5 140 c 0
 79.7 167.8 77 221.8 77 291 c 0
EndSplineSet
EndChar

StartChar: afii10090
Encoding: 1096 1096 96
Width: 941
VWidth: 999
Flags: HW
HStem: 0 50<226.326 395.674 544.326 713.673> 412 20G<76 153 153 228 394 470 470 546 712 789 789 865>
VStem: 86 132<64.1772 426.335> 404 132<64.1772 426.335> 722 132<64.1772 426.335>
CounterMasks: 1 38
LayerCount: 2
Fore
SplineSet
854 200 m 2
 854 125.5 856 54 864 0 c 1
 863 -3 l 1
 863 -3 845 0 811 0 c 2
 184 0 l 2
 150 0 77 -3 77 -3 c 1
 76 0 l 1
 84 54 86 125 86 200 c 2
 86 250 l 2
 86 325 85 372 76 429 c 1
 78 432 l 1
 78 432 119 429 153 429 c 0
 188 429 227 432 227 432 c 1
 228 429 l 1
 219 375 218 324 218 250 c 2
 218 200 l 2
 218 183 219 87 226 63 c 1
 233 54 237 50 252 50 c 2
 370 50 l 2
 385 50 389 54 396 63 c 1
 403 87 404 183 404 200 c 2
 404 250 l 2
 404 325 403 372 394 429 c 1
 396 432 l 1
 396 432 436 429 470 429 c 0
 505 429 545 432 545 432 c 1
 546 429 l 1
 537 375 536 324 536 250 c 2
 536 200 l 2
 536 183 537 87 544 63 c 1
 551 54 555 50 570 50 c 2
 687 50 l 2
 702 50 707 54 714 63 c 1
 721 87 722 183 722 200 c 2
 722 249 l 2
 722 325 720.5 372 712 429 c 1
 714 432 l 1
 714 432 754.7 429 789 429 c 0
 824 429 864 432 864 432 c 1
 865 429 l 1
 856.5 375.5 854 324.1 854 249 c 2
 854 200 l 2
EndSplineSet
EndChar

StartChar: afii10091
Encoding: 1097 1097 97
Width: 961
VWidth: 999
Flags: HW
HStem: 0 50<226.326 395.674 544.326 713.673> 412 20<76 153 153 228 394 470 470 546 712 789 789 865>
VStem: 86 132<64.1772 426.335> 404 132<64.1772 426.335> 722 132<64.1772 426.335> 846 66<-125 -45.6667>
LayerCount: 2
Fore
SplineSet
743 0 m 2
 184 0 l 2
 150 0 77 -3 77 -3 c 1
 76 0 l 1
 84 54 86 125 86 200 c 2
 86 250 l 2
 86 325 85 372 76 429 c 1
 78 432 l 1
 78 432 119 429 153 429 c 0
 188 429 227 432 227 432 c 1
 228 429 l 1
 219 375 218 324 218 250 c 2
 218 200 l 2
 218 183 219 87 226 63 c 1
 233 54 237 50 252 50 c 2
 370 50 l 2
 385 50 389 54 396 63 c 1
 403 87 404 183 404 200 c 2
 404 250 l 2
 404 325 403 372 394 429 c 1
 396 432 l 1
 396 432 436 429 470 429 c 0
 505 429 545 432 545 432 c 1
 546 429 l 1
 537 375 536 324 536 250 c 2
 536 200 l 2
 536 183 537 87 544 63 c 1
 551 54 555 50 570 50 c 2
 687 50 l 2
 702 50 707 54 714 63 c 1
 721 87 722 183 722 200 c 2
 722 249 l 2
 722 325 720.5 372 712 429 c 1
 714 432 l 1
 714 432 754.7 429 789 429 c 0
 824 429 864 432 864 432 c 1
 865 429 l 1
 856.5 375.5 854 324.1 854 249 c 2
 854 200 l 2
 854 90 860.2 35 894 32 c 0
 918.9 29.8 924 20.7 924 11 c 2
 912 -125 l 1
 910 -128 l 1
 848 -128 l 1
 846 -125 l 1
 835.1 -52.4 822.7 0 743 0 c 2
EndSplineSet
EndChar

StartChar: afii10092
Encoding: 1098 1098 98
Width: 666
VWidth: 999
Flags: HW
HStem: -2 45<323.216 468.373> 219 46<353 465.401> 360.7 68.3<67.4519 218.564>
VStem: 221 132<47.9808 219 265 359.679> 488 142<61.0692 198.945>
LayerCount: 2
Fore
SplineSet
488 131 m 0
 488 184 471 219 400 219 c 2
 353 219 l 1
 353 88 l 2
 353 53 367 43 396 43 c 0
 446 43 488 49 488 131 c 0
218.6 360.7 m 1
 136.6 358.7 78 346 34 327 c 1
 29 331 l 1
 31 345 31 403 29 429 c 1
 31 431 l 1
 46 430 67 429 86 429 c 2
 287 429 l 2
 321 429 361 432 361 432 c 1
 363 429 l 1
 354 372 353 343 353 268 c 2
 353 265 l 1
 452 265 l 2
 548 265 630 230 630 136 c 0
 630 52 568 -2 457 -2 c 0
 390.7 -2 353.3 0 287 0 c 0
 252 0 212 -3 212 -3 c 1
 211 0 l 1
 220 54 221 105 221 179 c 2
 221 250 l 2
 221 291.6 220.7 327.4 218.6 360.7 c 1
EndSplineSet
EndChar

StartChar: afii10093
Encoding: 1099 1099 99
Width: 791
VWidth: 999
Flags: HW
HStem: -3 21G<563 639 639 715> -2 45<188.238 333.373> 219 46<218 330.401> 412 20G<76 152 152 228 563 639 639 715>
VStem: 86 132<47.9797 219 265 426.348> 353 142<61.0692 198.945> 573 132<2.66467 426.449>
LayerCount: 2
Fore
SplineSet
573 250 m 2
 573 321 572 375 563 429 c 1
 564 432 l 1
 564 432 604 429 639 429 c 0
 673 429 713 432 713 432 c 1
 715 429 l 1
 707 374.5 706 325 705 250 c 1
 705 179 l 2
 705 104 706 57 715 0 c 1
 713 -3 l 1
 713 -3 673 0 639 0 c 0
 604 0 564 -3 564 -3 c 1
 563 0 l 1
 572 54 573 105 573 179 c 2
 573 250 l 2
353 131 m 0
 353 184 336 219 265 219 c 2
 218 219 l 1
 218 88 l 2
 218 53 232.3 43 261 43 c 0
 311 43 353 49 353 131 c 0
218 268 m 2
 218 265 l 1
 317 265 l 2
 413 265 495 230 495 136 c 0
 495 52 433 -2 322 -2 c 0
 255.7 -2 218.3 0 152 0 c 0
 117 0 77 -3 77 -3 c 1
 76 0 l 1
 85 54 86 105 86 179 c 2
 86 250 l 2
 86 321 85 375 76 429 c 1
 77 432 l 1
 77 432 117 429 152 429 c 0
 186 429 226 432 226 432 c 1
 228 429 l 1
 219 372 218 343 218 268 c 2
EndSplineSet
Colour: ff00ff
EndChar

StartChar: afii10094
Encoding: 1100 1100 100
Width: 531
VWidth: 999
Flags: HW
HStem: -2 45<188.238 333.373> 219 46<218 330.401> 412 20G<76 152 152 228>
VStem: 86 132<47.9797 219 265 426.348> 353 142<61.0692 198.945>
LayerCount: 2
Fore
SplineSet
353 131 m 0
 353 184 336 219 265 219 c 2
 218 219 l 1
 218 88 l 2
 218 53 232.3 43 261 43 c 0
 311 43 353 49 353 131 c 0
218 268 m 2
 218 265 l 1
 317 265 l 2
 413 265 495 230 495 136 c 0
 495 52 433 -2 322 -2 c 0
 255.7 -2 218.3 0 152 0 c 0
 117 0 77 -3 77 -3 c 1
 76 0 l 1
 85 54 86 105 86 179 c 2
 86 250 l 2
 86 321 85 375 76 429 c 1
 77 432 l 1
 77 432 117 429 152 429 c 0
 186 429 226 432 226 432 c 1
 228 429 l 1
 219 372 218 343 218 268 c 2
EndSplineSet
EndChar

StartChar: afii10095
Encoding: 1101 1101 101
Width: 479
VWidth: 999
Flags: HW
HStem: -10 49<118.476 237.004> 18 85<55 98.6878> 196 54<135.266 287> 326 85<55 99.6058> 390 49<120.955 235.311>
VStem: 274 13<196 252.595>
LayerCount: 2
Fore
SplineSet
292.4 250 m 1
 284.3 337.8 246.6 390 194 390 c 0
 149.9 390 119 370 98 325 c 1
 65 326 l 1
 42 408 l 1
 44 411 l 1
 75 427 171 439 221 439 c 0
 350 439 438 354 438 218 c 0
 438 78.9 328 -10 227 -10 c 0
 177 -10 75 2 44 18 c 1
 42 21 l 1
 65 103 l 1
 98 104 l 1
 119 59 145.9 39 190 39 c 0
 248.5 39 289.7 90.5 293.7 196 c 1
 155 196 l 2
 152 196 150.5 197 151 200 c 2
 158 246 l 2
 158.6 249.8 160 250 162 250 c 2
 292.4 250 l 1
EndSplineSet
EndChar

StartChar: afii10096
Encoding: 1102 1102 102
Width: 775
VWidth: 999
Flags: HW
HStem: -10 49<457.169 562.595> -3 21G<76 152 152 228> 193 49<191 285.759> 392 47<453.631 561.379> 412 20G<76 152 152 228>
VStem: 86 132<2.6647 193 242 426.469> 191 27<193 242> 284 136<109.182 193 242 322.984> 597 137<112.074 324.501>
LayerCount: 2
Fore
SplineSet
506 392 m 0
 439 392 420 330.5 420 216 c 0
 420 93.5 446.4 39 513 39 c 0
 572.4 39 597 97.5 597 211 c 0
 597 332.5 574.4 392 506 392 c 0
86 250 m 2
 86 321 85 375 76 429 c 1
 77 432 l 1
 77 432 117 429 152 429 c 0
 186 429 226 432 226 432 c 1
 228 429 l 1
 220 375 219 325 218 250 c 1
 218 242 l 1
 284 242 l 1
 296 361 371 439 509 439 c 0
 682 439 734 321 734 217 c 0
 734 117 679 -10 512 -10 c 0
 358 -10 289.4 90.5 284 193 c 1
 218 193 l 1
 218 179 l 2
 218 104 219 57 228 0 c 1
 226 -3 l 1
 226 -3 186 0 152 0 c 0
 117 0 77 -3 77 -3 c 1
 76 0 l 1
 85 54 86 105 86 179 c 2
 86 250 l 2
EndSplineSet
EndChar

StartChar: afii10097
Encoding: 1103 1103 103
Width: 532
VWidth: 999
Flags: HW
HStem: -3 21G<16 21.5 169.5 188 304 377 377 456> 190 45<261.148 314> 393 39<205.766 343.099>
VStem: 48 137<254.468 377.103> 314 132<2.65817 190 235 388.672>
LayerCount: 2
Fore
SplineSet
314 235 m 1
 314 357 l 2
 314 389 299 393 260 393 c 0
 208.5 393 185 368 185 321 c 0
 185 271 203 235 249 235 c 2
 314 235 l 1
159 201.5 m 1
 159 206.4 l 1
 109.7 215.5 48 249.8 48 310 c 0
 48 367.5 76 432 237 432 c 0
 274 432 322.4 429 377 429 c 0
 412 429 455 432 455 432 c 1
 456 429 l 1
 447 375 446 324 446 251 c 2
 446 178 l 2
 446 108 447 54 456 0 c 1
 455 -3 l 1
 455 -3 412 0 377 0 c 0
 343 0 306 -3 306 -3 c 1
 304 0 l 1
 313 57 314 95 314 169 c 2
 314 190 l 1
 305 190 l 2
 259.5 190 251 152 228 104 c 0
 211 70 200 38 176 -3 c 1
 163 -1 115 0 100 0 c 0
 85 0 25 -1 18 -3 c 1
 16 3 l 1
 65 57 78 94 118 151 c 0
 134.4 174 147 191.4 159 201.5 c 1
EndSplineSet
EndChar

StartChar: uni04D0
Encoding: 1232 1232 106
Width: 701
VWidth: 999
Flags: HW
HStem: -3 21<26 70.5 115 128.893 503.999 515.5 654 670.5> 221 53<223.642 411.509> 638 20<267 451> 715 41<282.963 375.037>
VStem: 199 80<762.847 828.403> 380 79<762.847 828.796>
DStem2: 20 -3 200.278 219.172 0.407548 0.913184<44.0152 286.317 337.696 574.92> 405 658 323.043 494 0.382928 -0.923778<120.116 356.239>
LayerCount: 2
Fore
SplineSet
329 756 m 0
 362 756 380 773 380 790 c 0
 380 795 379 801 379 803 c 0
 379 818 399 833 422 833 c 0
 449 833 459 819 459 800 c 0
 459 748 395 715 329 715 c 0
 263 715 199 748 199 800 c 0
 199 819 209 833 236 833 c 0
 259 833 279 818 279 803 c 0
 279 801 278 795 278 790 c 0
 278 773 296 756 329 756 c 0
411.5 275.1 m 1
 387.3 338.5 358.7 412 323 494 c 1
 317.1 494 l 1
 223.6 275.9 l 1
 255 274.5 299.1 274 328 274 c 0
 351.7 274 383.1 274.5 411.5 275.1 c 1
200.3 219.2 m 1
 166.2 135.1 136.8 56.2 121 -3 c 1
 109 0 87 0 76 0 c 0
 65 0 32 0 20 -3 c 1
 121 218 219 431 315 653 c 1
 405 653 l 1
 491 434 629 98 679 -3 c 1
 662 0 605 0 588 0 c 0
 571 0 524 0 507 -3 c 1
 501 18.7 479.3 93.7 432.5 219.7 c 1
 399.8 220.4 365.1 221 333 221 c 0
 297.3 221 238.3 220.1 200.3 219.2 c 1
EndSplineSet
LCarets2: 1 0 
Colour: ff00ff
EndChar

StartChar: uni04D1
Encoding: 1233 1233 107
Width: 516
VWidth: 999
Flags: HW
HStem: -10 60<136 258.155 437.552 489.224> 385 54<175.656 291.674> 498 41<167.718 248.739>
VStem: 34 134<62.0884 164.206> 82 83<542.682 622.64> 251 83<542.363 622.388> 311 130<84.3444 222 271.049 367.104>
DStem2: 188 240 231 201 0.966645 0.25612<-22.5783 114.287>
LayerCount: 2
Fore
SplineSet
311 222 m 1
 231 201 l 2
 180.8 187.8 168 143.1 168 107 c 0
 168 80 190 50 220 50 c 0
 248 50 271 61 294 84 c 0
 301.1 91.1 309 116 309 129 c 2
 311 222 l 1
437 80 m 0
 437 47 458 44 498 44 c 1
 504 39 506.7 31.7 508 23 c 1
 478 0 428.1 -10 389 -10 c 0
 346 -10 324 7 310 48 c 1
 308 48 l 1
 263 3 210.1 -10 171 -10 c 0
 101 -10 34 29 34 98 c 0
 34 166 92 217 188 240 c 1
 305 271 l 2
 308 272 311 276 311 283 c 0
 311 360.1 286 385 242 385 c 0
 197 385 153 356 119 306 c 1
 86 307 l 1
 66 382 l 1
 69 386 l 1
 93 407 189 439 261 439 c 0
 309.1 439 369.3 427.5 401 399.1 c 0
 428.6 374.3 441 337.1 441 277 c 0
 441 266 437 109 437 80 c 0
384 590 m 0
 384 535 321 498 257 498 c 0
 192 498 132 536 132 590 c 0
 132 612 153 628 176 628 c 0
 198 628 215 609 215 593 c 0
 215 590 215 588 214 585 c 0
 213 582 213 579 213 577 c 0
 213 555 228 539 258 539 c 0
 287 539 303 554 303 576 c 0
 303 579 303 582 302 585 c 0
 301 587 301 589 301 592 c 0
 301 609 323 628 341 628 c 0
 365 628 384 616 384 590 c 0
EndSplineSet
LCarets2: 1 0 
Colour: ff00ff
EndChar

StartChar: uni04D2
Encoding: 1234 1234 108
Width: 701
VWidth: 999
Flags: HW
HStem: -3 21<26 70.5 115 128.893 503.999 515.5 654 670.5> 221 53<223.642 411.509> 638 20<267 451> 694 125<192.107 285.707 401.293 494.893>
VStem: 177 124<709.537 803.707> 386 124<709.537 803.707>
DStem2: 20 -3 200.278 219.172 0.407548 0.913184<44.0152 286.317 337.696 574.92> 405 658 323.043 494 0.382928 -0.923778<120.116 356.239>
LayerCount: 2
Fore
SplineSet
383 786 m 0
 383 823 412 852 449 852 c 0
 484 852 513 823 513 786 c 0
 513 751 484 721 449 721 c 0
 412 721 383 751 383 786 c 0
174 786 m 0
 174 823 203 852 238 852 c 0
 275 852 304 823 304 786 c 0
 304 751 275 721 238 721 c 0
 203 721 174 751 174 786 c 0
411.5 275.1 m 1
 387.3 338.5 358.7 412 323 494 c 1
 317.1 494 l 1
 223.6 275.9 l 1
 255 274.5 299.1 274 328 274 c 0
 351.7 274 383.1 274.5 411.5 275.1 c 1
200.3 219.2 m 1
 166.2 135.1 136.8 56.2 121 -3 c 1
 109 0 87 0 76 0 c 0
 65 0 32 0 20 -3 c 1
 121 218 219 431 315 653 c 1
 405 653 l 1
 491 434 629 98 679 -3 c 1
 662 0 605 0 588 0 c 0
 571 0 524 0 507 -3 c 1
 501 18.7 479.3 93.7 432.5 219.7 c 1
 399.8 220.4 365.1 221 333 221 c 0
 297.3 221 238.3 220.1 200.3 219.2 c 1
EndSplineSet
LCarets2: 1 0 
Colour: ff00ff
EndChar

StartChar: uni04D3
Encoding: 1235 1235 109
Width: 516
VWidth: 999
Flags: HW
HStem: -10 60<136 258.155 437.552 489.224> 385 54<175.656 291.674> 511 125<95.1072 188.707 304.293 397.893>
VStem: 34 134<62.0884 164.206> 80 124<526.537 620.707> 289 124<526.537 620.707> 311 130<84.3444 222 271.049 367.104>
DStem2: 188 240 231 201 0.966645 0.25612<-22.5783 114.287>
LayerCount: 2
Fore
SplineSet
286 603 m 0
 286 640 315 669 352 669 c 0
 387 669 416 640 416 603 c 0
 416 568 387 538 352 538 c 0
 315 538 286 568 286 603 c 0
77 603 m 0
 77 640 106 669 141 669 c 0
 178 669 207 640 207 603 c 0
 207 568 178 538 141 538 c 0
 106 538 77 568 77 603 c 0
311 222 m 1
 231 201 l 2
 180.8 187.8 168 143.1 168 107 c 0
 168 80 190 50 220 50 c 0
 248 50 271 61 294 84 c 0
 301.1 91.1 309 116 309 129 c 2
 311 222 l 1
437 80 m 0
 437 47 458 44 498 44 c 1
 504 39 506.7 31.7 508 23 c 1
 478 0 428.1 -10 389 -10 c 0
 346 -10 324 7 310 48 c 1
 308 48 l 1
 263 3 210.1 -10 171 -10 c 0
 101 -10 34 29 34 98 c 0
 34 166 92 217 188 240 c 1
 305 271 l 2
 308 272 311 276 311 283 c 0
 311 360.1 286 385 242 385 c 0
 197 385 153 356 119 306 c 1
 86 307 l 1
 66 382 l 1
 69 386 l 1
 93 407 189 439 261 439 c 0
 309.1 439 369.3 427.5 401 399.1 c 0
 428.6 374.3 441 337.1 441 277 c 0
 441 266 437 109 437 80 c 0
EndSplineSet
LCarets2: 1 0 
Colour: ff00ff
EndChar

StartChar: uni04D4
Encoding: 1236 1236 110
Width: 842
VWidth: 999
Flags: HW
HStem: 0 70.6<492.929 757.492> 215 54<209.525 463.333> 311 62<492 718.397> 574.3 70.7<519.047 781.245>
LayerCount: 2
Fore
SplineSet
205.2 213.3 m 1
 164.7 130.8 129.9 54.3 108 -3 c 1
 96 0 74 0 63 0 c 0
 52 0 11 0 -1 -3 c 1
 105 200 214 402 357 647.7 c 1
 392 645.2 l 1
 440 645.2 l 1
 478.1 645 l 1
 722 645 l 2
 743 645 766 646 782 648 c 1
 784 645 l 1
 783 631 782 612 782 604 c 0
 782 595 783 576 784 568 c 1
 782 564 l 1
 782 564 654.7 574.3 549 574.3 c 0
 537.3 574.3 527.1 574.2 518.2 574 c 1
 519.3 515.4 520.1 444.9 521.1 373.1 c 1
 619.6 373.9 671.1 378.4 725 383 c 1
 728 380 l 1
 726 371 725 356 725 347 c 0
 725 338 726 313 728 304 c 1
 725 301 l 1
 667.8 306.8 578.4 309.8 522.1 310.7 c 1
 523.5 221.4 525.5 134.8 529.1 70.8 c 1
 630.7 74.5 792 91 792 91 c 1
 794 87 l 1
 793 79 792 54 792 44 c 0
 792 34 793 14 794 0 c 1
 792 -3 l 1
 776 -1 753 0 732 0 c 2
 535 0 l 1
 523.5 0 l 1
 440 0 l 2
 423 0 402 0 385 -3 c 1
 385 22.9 385.3 109.6 385.6 214.8 c 1
 373.6 214.9 361.6 215 350 215 c 0
 316.6 215 246.1 214.2 205.2 213.3 c 1
385.7 269.3 m 1
 386 357.3 386.3 452.5 386.5 533.5 c 1
 374.5 533.5 l 1
 328.9 453.2 279.1 360.3 233.8 270.7 c 1
 269.1 270.2 319.4 269 345 269 c 0
 357.1 269 371.1 269.1 385.7 269.3 c 1
EndSplineSet
Colour: ff00ff
EndChar

StartChar: uni04D5
Encoding: 1237 1237 111
Width: 771
VWidth: 999
Flags: HW
HStem: -10 50<166.273 273.917> -10 60<512.767 652.361> 208 50<200.98 311 450 614.659> 394 45<163.569 283.81 494.687 594.967>
VStem: 23 129<52.3757 165.935> 311 138<117.749 208 258 339.479> 621 123<263.568 366.599>
LayerCount: 2
Fore
SplineSet
311 210 m 1
 165 198 152 157 152 106 c 0
 152 61 179.7 40 208 40 c 0
 248 40 289 61 304 100 c 0
 311 118 311 160 311 210 c 1
450 258 m 1
 604 266 621 245 621 306 c 0
 621 338 599 394 546 394 c 0
 482.9 394 453 321 450 258 c 1
219 394 m 0
 170 394 122 340 93 295 c 1
 63 296 l 1
 46 373 l 1
 49 377 l 1
 76 397 149 439 229 439 c 0
 268 439 371 429 393 358 c 1
 427 409 494 439 557 439 c 0
 607.1 439 651.1 430.7 681 410 c 0
 725.7 379.1 744 329.4 744 309 c 0
 744 278 741 247 724 227 c 1
 685 207 598 215 449 208 c 1
 449 102 517 50 576 50 c 0
 635 50 677 72 710 107 c 1
 721.1 102.9 731.2 93.6 737 84 c 1
 705 30 633 -10 560 -10 c 0
 460 -10 414 34 392 59 c 1
 354 12 264 -10 204 -10 c 0
 88 -10 23 33 23 101 c 0
 23 147 48.4 186.7 110 214 c 0
 159.6 236 227.5 249.6 311 255 c 1
 310 349 299 394 219 394 c 0
EndSplineSet
Colour: ff00ff
EndChar

StartChar: uni04D6
Encoding: 1238 1238 112
Width: 594
VWidth: 999
Flags: HW
HStem: 0 73<244.435 487.022> 311 61<240 463.736> 577 68<244.435 479.755> 715 41<227.963 320.037>
VStem: 96 144<74.1699 311 372 575.826> 144 80<762.847 828.403> 325 79<762.847 828.796>
LayerCount: 2
Fore
SplineSet
274 756 m 0
 307 756 325 773 325 790 c 0
 325 795 324 801 324 803 c 0
 324 818 344 833 367 833 c 0
 394 833 404 819 404 800 c 0
 404 748 340 715 274 715 c 0
 208 715 144 748 144 800 c 0
 144 819 154 833 181 833 c 0
 204 833 224 818 224 803 c 0
 224 801 223 795 223 790 c 0
 223 773 241 756 274 756 c 0
240 200 m 2
 240 183 241 97 248 73 c 1
 382 73 544 95 544 95 c 1
 546 91 l 1
 545 83 544 46 544 36 c 0
 544 26 544.5 13.2 546 0 c 1
 544 -3 l 1
 528 -1 505 0 484 0 c 2
 170 0 l 2
 135 0 85 -3 85 -3 c 1
 84 0 l 1
 92 54 96 125 96 200 c 2
 96 445 l 2
 96 520 92 588 84 645 c 1
 86 648 l 1
 86 648 136 645 170 645 c 2
 474 645 l 2
 495 645 518 646 534 648 c 1
 536 645 l 1
 534.8 631 534 618 534 610 c 0
 534 601 535 577 536 569 c 1
 534 565 l 1
 534 565 382 577 248 577 c 1
 241 553 240 462 240 445 c 2
 240 372 l 1
 358 372 418 377 477 382 c 1
 480 379 l 1
 478 370 477 351 477 342 c 0
 477 333 478 313 480 304 c 1
 477 301 l 1
 408 308 288 311 240 311 c 1
 240 200 l 2
EndSplineSet
LCarets2: 1 0 
Colour: ff00ff
EndChar

StartChar: uni04D7
Encoding: 1239 1239 113
Width: 508
VWidth: 999
Flags: HW
HStem: -10 76<222.885 377.839> 225 45<174 344> 389 50<216.934 317.341> 498 41<185.718 266.739>
VStem: 40 129<120.369 225 270 303.578> 100 83<542.682 622.64> 269 83<542.363 622.388> 344 130<247.965 352.181>
LayerCount: 2
Fore
SplineSet
173 255 m 1
 329 255 l 1
 329 342.5 304.9 389 264 389 c 0
 235.7 389 216.2 376.3 203.5 359 c 0
 188.7 338.8 176.5 304 173 255 c 1
448 107 m 1
 458 107 464 89 464 76 c 1
 409.5 13 338 -10 266 -10 c 0
 191 -10 132.2 6.5 98 42 c 0
 56.7 84.9 35 147 35 206 c 0
 35 288.9 68 349 116.5 389 c 0
 156.2 421.7 216 439 271 439 c 0
 425 439 460 339 460 214 c 1
 454 208 l 1
 454 208 368.5 210 268.5 210 c 2
 169 210 l 1
 169 164.1 180.2 129 202.2 105 c 0
 226 79.1 262.4 66 311 66 c 0
 353 66 401.5 69.5 448 107 c 1
352 590 m 0
 352 535 289 498 225 498 c 0
 160 498 100 536 100 590 c 0
 100 612 121 628 144 628 c 0
 166 628 183 609 183 593 c 0
 183 590 183 588 182 585 c 0
 181 582 181 579 181 577 c 0
 181 555 196 539 226 539 c 0
 255 539 271 554 271 576 c 0
 271 579 271 582 270 585 c 0
 269 587 269 589 269 592 c 0
 269 609 291 628 309 628 c 0
 333 628 352 616 352 590 c 0
EndSplineSet
LCarets2: 1 0 
Colour: ff00ff
EndChar

StartChar: uni04D8
Encoding: 1240 1240 114
Width: 702
VWidth: 999
Flags: HW
HStem: -12 34<246.269 393.278> 216 44<122 511> 624 34<207.892 368.818>
VStem: 521 90<221.919 443.038>
LayerCount: 2
Fore
SplineSet
512 250 m 1
 193 253 l 1
 229 97 280 32 355 32 c 0
 439 32 490 115 512 250 c 1
105 494 m 1
 75 522 l 1
 151 620 226.5 658 336 658 c 0
 573 658 666 485 666 327 c 0
 666 131 546 -11 348 -11 c 0
 142 -11 57 92 40 305 c 1
 52 320 l 1
 515 305 l 1
 516 314 516 317 516 327 c 0
 516 505 433 577 332 577 c 0
 252 577 166 552 105 494 c 1
EndSplineSet
Colour: ff00ff
EndChar

StartChar: afii10846
Encoding: 1241 1241 115
Width: 450
VWidth: 999
Flags: HW
HStem: -11 50<180.659 281.066> 158 45<154 324> 362 76<120.161 275.115>
VStem: 24 130<75.8194 180.035> 329 129<124.422 158 203 307.631>
LayerCount: 2
Fore
SplineSet
325 173 m 1
 169 173 l 1
 169 85.5 193.1 39 234 39 c 0
 262.3 39 281.8 51.7 294.5 69 c 0
 309.3 89.2 321.5 124 325 173 c 1
50 321 m 1
 40 321 34 339 34 352 c 1
 88.5 415 160 438 232 438 c 0
 307 438 365.8 421.5 400 386 c 0
 441.3 343.1 463 281 463 222 c 0
 463 139.1 430 79 381.5 39 c 0
 341.8 6.3 282 -11 227 -11 c 0
 73 -11 38 89 38 214 c 1
 44 220 l 1
 44 220 129.5 218 229.5 218 c 2
 329 218 l 1
 329 263.9 317.8 299 295.8 323 c 0
 272 348.9 235.6 362 187 362 c 0
 145 362 96.5 358.5 50 321 c 1
EndSplineSet
Colour: ff00ff
EndChar

StartChar: uni04DA
Encoding: 1242 1242 116
Width: 702
VWidth: 999
Flags: HW
HStem: -12 34<246.269 393.278> 216 44<122 511> 624 34<207.892 368.818> 711 125<168.293 263.707 388.293 483.37>
VStem: 153 126<726.2 820.707> 373 126<727.191 819.706> 521 90<221.919 443.038>
LayerCount: 2
Fore
SplineSet
512 250 m 1
 193 253 l 1
 229 97 280 32 355 32 c 0
 439 32 490 115 512 250 c 1
105 494 m 1
 75 522 l 1
 151 620 226.5 658 336 658 c 0
 573 658 666 485 666 327 c 0
 666 131 546 -11 348 -11 c 0
 142 -11 57 92 40 305 c 1
 52 320 l 1
 515 305 l 1
 516 314 516 317 516 327 c 0
 516 505 433 577 332 577 c 0
 252 577 166 552 105 494 c 1
373 773 m 0
 373 808 401 836 436 836 c 0
 470 836 499 808 499 773 c 0
 499 739 470 711 436 711 c 0
 401 711 373 739 373 773 c 0
153 773 m 0
 153 808 181 836 216 836 c 0
 251 836 279 808 279 773 c 0
 279 739 251 711 216 711 c 0
 181 711 153 739 153 773 c 0
EndSplineSet
LCarets2: 1 0 
Colour: ff00ff
EndChar

StartChar: uni04DB
Encoding: 1243 1243 117
Width: 450
VWidth: 999
Flags: HW
HStem: -11 50<180.659 281.066> 158 45<154 324> 362 76<120.161 275.115> 509 125<74.1072 167.707 283.293 376.893>
VStem: 24 130<75.8194 180.035> 59 124<524.537 618.707> 268 124<524.537 618.707> 329 129<124.422 158 203 307.631>
LayerCount: 2
Fore
SplineSet
325 173 m 1
 169 173 l 1
 169 85.5 193.1 39 234 39 c 0
 262.3 39 281.8 51.7 294.5 69 c 0
 309.3 89.2 321.5 124 325 173 c 1
50 321 m 1
 40 321 34 339 34 352 c 1
 88.5 415 160 438 232 438 c 0
 307 438 365.8 421.5 400 386 c 0
 441.3 343.1 463 281 463 222 c 0
 463 139.1 430 79 381.5 39 c 0
 341.8 6.3 282 -11 227 -11 c 0
 73 -11 38 89 38 214 c 1
 44 220 l 1
 44 220 129.5 218 229.5 218 c 2
 329 218 l 1
 329 263.9 317.8 299 295.8 323 c 0
 272 348.9 235.6 362 187 362 c 0
 145 362 96.5 358.5 50 321 c 1
265 601 m 0
 265 638 294 667 331 667 c 0
 366 667 395 638 395 601 c 0
 395 566 366 536 331 536 c 0
 294 536 265 566 265 601 c 0
56 601 m 0
 56 638 85 667 120 667 c 0
 157 667 186 638 186 601 c 0
 186 566 157 536 120 536 c 0
 85 536 56 566 56 601 c 0
EndSplineSet
LCarets2: 1 0 
Colour: ff00ff
EndChar

StartChar: uni04E0
Encoding: 1248 1248 118
Width: 546
VWidth: 999
Flags: HW
HStem: -7 52<187.8 310.404> 531 109<130.25 358> 631 20<85.6666 107.334 458 481.333>
VStem: 356 142<120.28 303.377>
LayerCount: 2
Fore
SplineSet
281 408 m 2
 306.3 453.3 332 494.3 358 531 c 1
 284 528.3 192.7 523 84 515 c 1
 87.3 541.7 89 568 89 594 c 0
 89 606 87.3 625 84 651 c 1
 130.7 643.7 237.3 640 404 640 c 0
 426.7 640 448 643 468 649 c 1
 482 628 l 1
 358 401 l 1
 386.7 395 412.3 382.3 435 363 c 0
 477 327 498 280.3 498 223 c 0
 498 155.7 475.7 100 431 56 c 0
 388.3 14 336 -7 274 -7 c 0
 181.3 -7 117.3 9 82 41 c 1
 79 46 l 1
 100 130 l 1
 134 131 l 1
 164 73.7 204.7 45 256 45 c 0
 282 45 304.3 56.7 323 80 c 0
 345 107.3 356 145 356 193 c 0
 356 260.3 342.3 305.3 315 328 c 1
 294.3 342 272.7 349.7 250 351 c 1
 281 408 l 2
EndSplineSet
Colour: ff00ff
EndChar

StartChar: uni04E1
Encoding: 1249 1249 119
Width: 453
VWidth: 999
Flags: HW
HStem: -232 49<109.151 235.349> 370 59<31.1279 240>
VStem: 280 142<-112.516 61.5981>
LayerCount: 2
Fore
SplineSet
39 74 m 1
 240 370 l 1
 165.3 368.7 94.7 365 28 359 c 1
 26 362 l 1
 27.3 372.7 28 384.3 28 397 c 2
 26 429 l 1
 28 432 l 1
 43.3 430 62 429 84 429 c 2
 336 429 l 2
 348 429 364.7 430 386 432 c 2
 417 435 l 2
 420.3 435 422 433 422 429 c 1
 417.3 423.7 407.3 409.7 392 387 c 2
 237 158 l 1
 283.7 156.7 324.3 142.7 359 116 c 1
 401 82 422 38 422 -16 c 0
 422 -79.3 399.7 -131.7 355 -173 c 0
 312.3 -212.3 260 -232 198 -232 c 0
 105.3 -232 41.3 -217 6 -187 c 1
 3 -182 l 1
 24 -103 l 1
 58 -102 l 1
 88 -156 128.7 -183 180 -183 c 0
 206 -183 228.3 -172 247 -150 c 0
 269 -124.7 280 -89.3 280 -44 c 0
 280 22 265.3 65.3 236 86 c 0
 217.3 98.7 196.7 105 174 105 c 0
 136.7 105 101.7 91.3 69 64 c 1
 39 74 l 1
EndSplineSet
Colour: ff00ff
EndChar

StartChar: uni04E6
Encoding: 1254 1254 120
Width: 799
VWidth: 999
Flags: HW
HStem: -10 55<326.227 500.597> 603 55<304.21 483.294> 711 125<238.293 333.707 458.293 553.37>
VStem: 52 161<195.41 434.488> 223 126<726.2 820.707> 443 126<727.191 819.706> 586 161<199.404 453.39>
LayerCount: 2
Fore
SplineSet
443 773 m 0
 443 808 471 836 506 836 c 0
 540 836 569 808 569 773 c 0
 569 739 540 711 506 711 c 0
 471 711 443 739 443 773 c 0
223 773 m 0
 223 808 251 836 286 836 c 0
 321 836 349 808 349 773 c 0
 349 739 321 711 286 711 c 0
 251 711 223 739 223 773 c 0
384 603 m 0
 288 603 213 537 213 327 c 0
 213 135 298 45 418 45 c 0
 532 45 586 131 586 310 c 0
 586 518 525 603 384 603 c 0
747 329 m 0
 747 129 612.1 -10 398 -10 c 0
 200 -10 52 122 52 310 c 0
 52 506 194 658 397 658 c 0
 610 658 747 527 747 329 c 0
EndSplineSet
LCarets2: 1 0 
Colour: ff00ff
EndChar

StartChar: uni04E7
Encoding: 1255 1255 121
Width: 566
VWidth: 999
Flags: HW
HStem: -10 50<234.308 349.488> 389 50<218.541 339.619> 511 125<115.107 208.707 324.293 417.893>
VStem: 41 142<105.349 313.144> 100 124<526.537 620.707> 309 124<526.537 620.707> 383 142<109.544 320.837>
LayerCount: 2
Fore
SplineSet
306 603 m 0
 306 640 335 669 372 669 c 0
 407 669 436 640 436 603 c 0
 436 568 407 538 372 538 c 0
 335 538 306 568 306 603 c 0
97 603 m 0
 97 640 126 669 161 669 c 0
 198 669 227 640 227 603 c 0
 227 568 198 538 161 538 c 0
 126 538 97 568 97 603 c 0
41 205 m 0
 41 360 142 439 285 439 c 0
 454 439 525 340 525 214 c 0
 525 75.8 436 -10 283 -10 c 0
 134 -10 41 72 41 205 c 0
278 389 m 0
 192 389 183 315 183 228 c 0
 183 151 193 40 297 40 c 0
 342 40 383 72 383 187 c 0
 383 326 363 389 278 389 c 0
EndSplineSet
LCarets2: 1 0 
Colour: ff00ff
EndChar

StartChar: uni04EF
Encoding: 1263 1263 126
Width: 539
VWidth: 999
Flags: HW
HStem: -237 21<111 128.595 214 238> 412 20<27 42.25 164.5 187.732 397.039 418 502.5 514> 530 60<118.837 426.084>
VStem: 115 315<530.849 589.524>
LayerCount: 2
Fore
SplineSet
404 530 m 2
 130 530 l 2
 119 530 115 544 115 553 c 0
 115 565 127 590 140 590 c 2
 416 590 l 2
 426 590 430 576 430 568 c 0
 430 555 418 530 404 530 c 2
20 432 m 1
 34 429 95 429 108 429 c 0
 122 429 158 429 171 432 c 1
 204.4 329.7 242.6 227.6 289 125 c 1
 298 124 l 1
 341 220 381.1 331.9 413 432 c 1
 423 429 460 429 470 429 c 0
 480 429 509 429 519 432 c 1
 486 365 257 -112 219 -237 c 1
 209 -234 180 -232 170 -232 c 0
 160 -232 116 -234 106 -237 c 1
 151.2 -161.7 195 -84.7 227 -10 c 1
 215.2 8.5 l 1
 177.1 109.2 64.5 341.1 20 432 c 1
EndSplineSet
LCarets2: 1 0 
Colour: ff00ff
EndChar

StartChar: uni04F1
Encoding: 1265 1265 127
Width: 539
VWidth: 999
Flags: HW
HStem: -237 21<111 128.595 214 238> 412 20<27 42.25 164.5 187.732 397.039 418 502.5 514> 511 125<132.107 225.707 341.293 434.893>
VStem: 117 124<526.537 620.707> 326 124<526.537 620.707>
LayerCount: 2
Fore
SplineSet
323 603 m 0
 323 640 352 669 389 669 c 0
 424 669 453 640 453 603 c 0
 453 568 424 538 389 538 c 0
 352 538 323 568 323 603 c 0
114 603 m 0
 114 640 143 669 178 669 c 0
 215 669 244 640 244 603 c 0
 244 568 215 538 178 538 c 0
 143 538 114 568 114 603 c 0
20 432 m 1
 34 429 95 429 108 429 c 0
 122 429 158 429 171 432 c 1
 204.4 329.7 242.6 227.6 289 125 c 1
 298 124 l 1
 341 220 381.1 331.9 413 432 c 1
 423 429 460 429 470 429 c 0
 480 429 509 429 519 432 c 1
 486 365 257 -112 219 -237 c 1
 209 -234 180 -232 170 -232 c 0
 160 -232 116 -234 106 -237 c 1
 151.2 -161.7 195 -84.7 227 -10 c 1
 215.2 8.5 l 1
 177.1 109.2 64.5 341.1 20 432 c 1
EndSplineSet
LCarets2: 1 0 
Colour: ff00ff
EndChar

StartChar: uni04F3
Encoding: 1267 1267 128
Width: 539
VWidth: 999
Flags: HW
HStem: -237 21<111 128.595 214 238> 412 20<27 42.25 164.5 187.732 397.039 418 502.5 514>
LayerCount: 2
Fore
SplineSet
472 609 m 0
 472 593.4 464.1 587 457.5 580.4 c 2
 359.5 488.4 l 2
 352.6 481.5 346.3 479 341 479 c 0
 327.9 479 321 489.7 321 499 c 0
 321 505.6 323.4 511.6 325.7 515.5 c 2
 393.7 636.6 l 1
 393.8 636.8 l 2
 396.3 640.6 406.2 657 426 657 c 0
 455.1 657 472 633.4 472 609 c 0
343 621 m 0
 343 613.3 340.6 606.5 336.9 601.8 c 2
 244.8 492.8 l 2
 233.8 479.3 224.6 476 217 476 c 0
 203.4 476 199 487.8 199 496 c 0
 199 502.7 200.9 508.1 202.4 511.9 c 2
 261.4 646 l 2
 268.6 661.9 287.4 662 296 662 c 0
 322.5 662 343 641.6 343 621 c 0
20 432 m 1
 34 429 95 429 108 429 c 0
 122 429 158 429 171 432 c 1
 204.4 329.7 242.6 227.6 289 125 c 1
 298 124 l 1
 341 220 381.1 331.9 413 432 c 1
 423 429 460 429 470 429 c 0
 480 429 509 429 519 432 c 1
 486 365 257 -112 219 -237 c 1
 209 -234 180 -232 170 -232 c 0
 160 -232 116 -234 106 -237 c 1
 151.2 -161.7 195 -84.7 227 -10 c 1
 215.2 8.5 l 1
 177.1 109.2 64.5 341.1 20 432 c 1
EndSplineSet
LCarets2: 1 0 
Colour: ff00ff
EndChar

StartChar: uni1E00
Encoding: 7680 7680 129
Width: 701
Flags: HW
HStem: -235 39<265.688 349.812> -68 39<265.172 350.907> -3 21<26 70.5 115 128.893 503.999 515.5 654 670.5> 221 53<223.642 411.509> 638 20<267 451>
VStem: 201 46<-179.682 -83.834> 369 45<-179.241 -83.951>
DStem2: 20 -3 200.278 219.172 0.407548 0.913184<44.0152 286.317 337.696 574.92> 405 658 323.043 494 0.382928 -0.923778<120.116 356.239>
LayerCount: 2
Fore
SplineSet
411.5 275.1 m 1
 387.3 338.5 358.7 412 323 494 c 1
 317.1 494 l 1
 223.6 275.9 l 1
 255 274.5 299.1 274 328 274 c 0
 351.7 274 383.1 274.5 411.5 275.1 c 1
200.3 219.2 m 1
 166.2 135.1 136.8 56.2 121 -3 c 1
 109 0 87 0 76 0 c 0
 65 0 32 0 20 -3 c 1
 121 218 219 431 315 653 c 1
 405 653 l 1
 491 434 629 98 679 -3 c 1
 662 0 605 0 588 0 c 0
 571 0 524 0 507 -3 c 1
 501 18.7 479.3 93.7 432.5 219.7 c 1
 399.8 220.4 365.1 221 333 221 c 0
 297.3 221 238.3 220.1 200.3 219.2 c 1
308 -68 m 0
 273 -68 247 -98 247 -132 c 0
 247 -163 273 -196 308 -196 c 0
 343 -196 369 -163 369 -132 c 0
 369 -97 342 -68 308 -68 c 0
201 -132 m 0
 201 -74 249 -29 307 -29 c 0
 365 -29 414 -73 414 -132 c 0
 414 -188 367 -235 307 -235 c 0
 249 -235 201 -190 201 -132 c 0
EndSplineSet
LCarets2: 1 0 
Colour: ff00ff
EndChar

StartChar: uni1E01
Encoding: 7681 7681 130
Width: 516
VWidth: 999
Flags: HW
HStem: -236 39<181.688 265.812> -69 39<181.172 266.907> -10 60<136 258.155 437.552 489.224> 385 54<175.656 291.674>
VStem: 34 134<62.0884 164.206> 117 46<-180.682 -84.834> 285 45<-180.241 -84.951> 311 130<84.3444 222 271.049 367.104>
DStem2: 188 240 231 201 0.966645 0.25612<-22.5783 114.287>
LayerCount: 2
Fore
SplineSet
311 222 m 1
 231 201 l 2
 180.8 187.8 168 143.1 168 107 c 0
 168 80 190 50 220 50 c 0
 248 50 271 61 294 84 c 0
 301.1 91.1 309 116 309 129 c 2
 311 222 l 1
437 80 m 0
 437 47 458 44 498 44 c 1
 504 39 506.7 31.7 508 23 c 1
 478 0 428.1 -10 389 -10 c 0
 346 -10 324 7 310 48 c 1
 308 48 l 1
 263 3 210.1 -10 171 -10 c 0
 101 -10 34 29 34 98 c 0
 34 166 92 217 188 240 c 1
 305 271 l 2
 308 272 311 276 311 283 c 0
 311 360.1 286 385 242 385 c 0
 197 385 153 356 119 306 c 1
 86 307 l 1
 66 382 l 1
 69 386 l 1
 93 407 189 439 261 439 c 0
 309.1 439 369.3 427.5 401 399.1 c 0
 428.6 374.3 441 337.1 441 277 c 0
 441 266 437 109 437 80 c 0
224 -69 m 0
 189 -69 163 -99 163 -133 c 0
 163 -164 189 -197 224 -197 c 0
 259 -197 285 -164 285 -133 c 0
 285 -98 258 -69 224 -69 c 0
117 -133 m 0
 117 -75 165 -30 223 -30 c 0
 281 -30 330 -74 330 -133 c 0
 330 -189 283 -236 223 -236 c 0
 165 -236 117 -191 117 -133 c 0
EndSplineSet
LCarets2: 1 0 
Colour: ff00ff
EndChar

StartChar: uni1E02
Encoding: 7682 7682 131
Width: 675
VWidth: 999
Flags: HW
HStem: -3 44<171.13 393.675> 327 44<189 355.197> 604 44<169.89 351.471> 729 104<234.542 317.458>
VStem: 103 86<49.3073 327 371 597.325> 224 104<739.542 822.458> 395 87<424.724 562.128> 442 99<97.3818 255.662>
LayerCount: 2
Fore
SplineSet
245 550 m 2
 245 375 l 1
 323 375 l 2
 406 375 426 408 426 481 c 0
 426 568.3 392 595 336 595 c 0
 255 595 245 583 245 550 c 2
245 322 m 1
 245 97 l 2
 245 64 262 50 332 50 c 0
 466 50 473 96 473 165 c 0
 473 236.2 455 322 338 322 c 2
 245 322 l 1
177 645 m 0
 240 645 304 648 339 648 c 0
 525 648 575 560 575 493 c 0
 575 438 523 385 472 360 c 1
 559 335 634 280 634 184 c 0
 634 98 560 -3 361 -3 c 0
 272 -3 249 0 177 0 c 0
 142 0 92 -3 92 -3 c 1
 91 0 l 1
 99 54 103 125 103 200 c 2
 103 445 l 2
 103 520 99 588 91 645 c 1
 93 648 l 1
 93 648 143 645 177 645 c 0
EndSplineSet
LCarets2: 1 0 
Colour: ff00ff
EndChar

StartChar: uni1E03
Encoding: 7683 7683 132
Width: 586
VWidth: 999
Flags: HW
HStem: -10 50<226.069 364.494> 371 68<268.478 367.418> 536 142<209.5 318.5> 678 20<207.465 223.167>
VStem: 85 132<52.4208 342.501 384 659.981> 189 150<556.5 657.5> 405 142<129.939 327.643>
LayerCount: 2
Fore
SplineSet
235.3 53.8 m 0
 250.6 44 274 40 308 40 c 0
 336.3 40 366.5 51.5 384 87.5 c 0
 399.4 119.1 406 165.2 406 222 c 0
 406 319 373 371 312 371 c 0
 287.9 371 267 363 218 328 c 1
 218 108 l 2
 218 80.4 220.9 63 235.3 53.8 c 0
218 500 m 2
 218 384 l 1
 278 429 313 439 356 439 c 0
 409.1 439 453.6 425.2 493 389 c 0
 529.8 355.2 548 301 548 242 c 0
 548 152.6 512.5 84.6 464 43 c 0
 420.2 5.5 366.2 -10 314 -10 c 0
 278.4 -10 233.8 -8.7 217.7 -2 c 0
 201.7 4.6 171.7 11 161 11 c 0
 146.5 11 101.2 -9 89 -11 c 1
 83 -9.7 80.7 -8 78 -6 c 1
 82.2 15.8 86 95 86 134 c 2
 86 474 l 2
 86 550 81.7 619.3 74 662 c 1
 76 665 l 1
 116.5 668 195.9 688 221 698 c 1
 227.3 698 230 695 230 688 c 0
 229.1 680.7 228.2 673.4 227.4 666.3 c 1
 238 672.4 250.5 676 264 676 c 0
 304 676 335 645 335 607 c 0
 335 569 304 538 264 538 c 0
 246.7 538 231 543.8 218.8 553.5 c 1
 218.2 536.7 218 519.1 218 500 c 2
EndSplineSet
LCarets2: 1 0 
Colour: ff00ff
EndChar

StartChar: uni1E04
Encoding: 7684 7684 133
Width: 675
VWidth: 999
Flags: HW
HStem: -219 142<214.5 323.5> -3 53<215.709 439.082> 322 53<245 401.023> 595 53<214.342 397.138>
VStem: 103 142<61.1856 322 375 585.479> 194 150<-198.5 -97.5> 426 149<431.082 565.301> 473 161<105.896 265.022>
LayerCount: 2
Fore
SplineSet
245 550 m 2
 245 375 l 1
 323 375 l 2
 406 375 426 408 426 481 c 0
 426 568.3 392 595 336 595 c 0
 255 595 245 583 245 550 c 2
245 322 m 1
 245 97 l 2
 245 64 262 50 332 50 c 0
 466 50 473 96 473 165 c 0
 473 236.2 455 322 338 322 c 2
 245 322 l 1
177 645 m 0
 240 645 304 648 339 648 c 0
 525 648 575 560 575 493 c 0
 575 438 523 385 472 360 c 1
 559 335 634 280 634 184 c 0
 634 98 560 -3 361 -3 c 0
 272 -3 249 0 177 0 c 0
 142 0 92 -3 92 -3 c 1
 91 0 l 1
 99 54 103 125 103 200 c 2
 103 445 l 2
 103 520 99 588 91 645 c 1
 93 648 l 1
 93 648 143 645 177 645 c 0
198 -148 m 0
 198 -110 229 -79 269 -79 c 0
 309 -79 340 -110 340 -148 c 0
 340 -186 309 -217 269 -217 c 0
 229 -217 198 -186 198 -148 c 0
EndSplineSet
LCarets2: 1 0 
Colour: ff00ff
EndChar

StartChar: uni1E05
Encoding: 7685 7685 134
Width: 586
VWidth: 999
Flags: HW
HStem: -219 142<169.5 278.5> -10 50<226.069 364.494> 371 68<268.478 367.418> 678 20<207.465 223.167>
VStem: 85 132<52.4208 342.501 384 659.981> 149 150<-198.5 -97.5> 405 142<129.939 327.643>
LayerCount: 2
Fore
SplineSet
235.3 53.8 m 0
 250.6 44 274 40 308 40 c 0
 336.3 40 366.5 51.5 384 87.5 c 0
 399.4 119.1 406 165.2 406 222 c 0
 406 319 373 371 312 371 c 0
 287.9 371 267 363 218 328 c 1
 218 108 l 2
 218 80.4 220.9 63 235.3 53.8 c 0
218 500 m 2
 218 384 l 1
 278 429 313 439 356 439 c 0
 409.1 439 453.6 425.2 493 389 c 0
 529.8 355.2 548 301 548 242 c 0
 548 152.6 512.5 84.6 464 43 c 0
 420.2 5.5 366.2 -10 314 -10 c 0
 278.4 -10 233.8 -8.7 217.7 -2 c 0
 201.7 4.6 171.7 11 161 11 c 0
 146.5 11 101.2 -9 89 -11 c 1
 83 -9.7 80.7 -8 78 -6 c 1
 82.2 15.8 86 95 86 134 c 2
 86 474 l 2
 86 550 81.7 619.3 74 662 c 1
 76 665 l 1
 116.5 668 195.9 688 221 698 c 1
 227.3 698 230 695 230 688 c 0
 222.3 626.7 218 574 218 500 c 2
153 -148 m 0
 153 -110 184 -79 224 -79 c 0
 264 -79 295 -110 295 -148 c 0
 295 -186 264 -217 224 -217 c 0
 184 -217 153 -186 153 -148 c 0
EndSplineSet
LCarets2: 1 0 
Colour: ff00ff
EndChar

StartChar: uni1E06
Encoding: 7686 7686 135
Width: 675
VWidth: 999
Flags: HW
HStem: -106 44<137 148 148 415> -3 44<171.13 393.675> 327 44<189 355.197> 604 44<169.378 351.471>
VStem: 103 86<49.3073 327 371 597.325> 395 87<424.724 562.128> 442 99<97.3818 255.662>
LayerCount: 2
Fore
SplineSet
245 550 m 2
 245 375 l 1
 323 375 l 2
 406 375 426 408 426 481 c 0
 426 568.3 392 595 336 595 c 0
 255 595 245 583 245 550 c 2
245 322 m 1
 245 97 l 2
 245 64 262 50 332 50 c 0
 466 50 473 96 473 165 c 0
 473 236.2 455 322 338 322 c 2
 245 322 l 1
177 645 m 0
 240 645 304 648 339 648 c 0
 525 648 575 560 575 493 c 0
 575 438 523 385 472 360 c 1
 559 335 634 280 634 184 c 0
 634 98 560 -3 361 -3 c 0
 272 -3 249 0 177 0 c 0
 142 0 92 -3 92 -3 c 1
 91 0 l 1
 99 54 103 125 103 200 c 2
 103 445 l 2
 103 520 99 588 91 645 c 1
 93 648 l 1
 93 648 143 645 177 645 c 0
393 -106 m 2
 148 -106 l 2
 140 -106 136 -98 136 -91 c 0
 136 -79 146 -62 158 -62 c 2
 403 -62 l 2
 412 -62 416 -69 416 -76 c 0
 416 -88 406 -106 393 -106 c 2
EndSplineSet
LCarets2: 1 0 
Colour: ff00ff
EndChar

StartChar: uni1E07
Encoding: 7687 7687 136
Width: 586
VWidth: 999
Flags: HW
HStem: -110 44<107 118 118 385> -10 50<226.069 364.494> 371 68<268.478 367.418> 678 20<207.465 223.167>
VStem: 85 132<52.4208 342.501 384 659.981> 405 142<129.939 327.643>
LayerCount: 2
Fore
SplineSet
235.3 53.8 m 0
 250.6 44 274 40 308 40 c 0
 336.3 40 366.5 51.5 384 87.5 c 0
 399.4 119.1 406 165.2 406 222 c 0
 406 319 373 371 312 371 c 0
 287.9 371 267 363 218 328 c 1
 218 108 l 2
 218 80.4 220.9 63 235.3 53.8 c 0
218 500 m 2
 218 384 l 1
 278 429 313 439 356 439 c 0
 409.1 439 453.6 425.2 493 389 c 0
 529.8 355.2 548 301 548 242 c 0
 548 152.6 512.5 84.6 464 43 c 0
 420.2 5.5 366.2 -10 314 -10 c 0
 278.4 -10 233.8 -8.7 217.7 -2 c 0
 201.7 4.6 171.7 11 161 11 c 0
 146.5 11 101.2 -9 89 -11 c 1
 83 -9.7 80.7 -8 78 -6 c 1
 82.2 15.8 86 95 86 134 c 2
 86 474 l 2
 86 550 81.7 619.3 74 662 c 1
 76 665 l 1
 116.5 668 195.9 688 221 698 c 1
 227.3 698 230 695 230 688 c 0
 222.3 626.7 218 574 218 500 c 2
363 -110 m 2
 118 -110 l 2
 110 -110 106 -102 106 -95 c 0
 106 -83 116 -66 128 -66 c 2
 373 -66 l 2
 382 -66 386 -73 386 -80 c 0
 386 -92 376 -110 363 -110 c 2
EndSplineSet
LCarets2: 1 0 
Colour: ff00ff
EndChar

StartChar: uni1E08
Encoding: 7688 7688 137
Width: 706
VWidth: 999
Flags: HW
HStem: -216 36.5<280.086 385.909> -10 60<329.73 503.017> 603 55<311.6 485.335> 822 148
VStem: 37 163<216.639 441.284> 275 214 390 62.9<-175.81 -113.416>
LayerCount: 2
Fore
SplineSet
301 -100 m 1
 295 -94 l 1
 339.9 -8.5 l 1
 275.3 -3.5 225.2 14.3 175 48 c 0
 96 101 52 205 52 310 c 0
 52 419.9 97.1 522.3 176 584 c 0
 238.5 632.8 323 658 414 658 c 0
 536 658 639 613 639 613 c 1
 641 610 l 1
 629.2 560.7 624.6 531 621 480 c 1
 591 479 l 1
 550 561 497 603 407 603 c 0
 325 603 215 532 215 329 c 0
 215 158.8 297 50 406 50 c 0
 499 50 554 67 629 139 c 1
 653 105 l 1
 569 18 469.2 -10 380 -10 c 0
 378.2 -10 376.4 -10 374.6 -10 c 1
 360 -45 l 1
 405.4 -54.1 452.9 -69.5 452.9 -124.1 c 0
 452.9 -174.3 402.1 -216 337.3 -216 c 0
 305.3 -216 289.3 -208 272 -197 c 1
 272 -187 275.3 -175 285.3 -165.5 c 1
 312.3 -175.5 323.3 -179.5 343.3 -179.5 c 0
 373.3 -179.5 390 -171 390 -144 c 0
 390 -106.4 337 -102 301 -100 c 1
432 970 m 1
 459.4 951.3 480 918 489 889 c 1
 482 875.1 l 1
 330 831 l 2
 307.8 824.6 299.1 822 291 822 c 0
 282.9 822 275 838 275 847 c 0
 275 854 276.8 861.8 290 871 c 2
 432 970 l 1
EndSplineSet
LCarets2: 1 0 
Colour: ff00ff
EndChar

StartChar: uni1E09
Encoding: 7689 7689 138
Width: 472
VWidth: 999
Flags: HW
HStem: -212 36.5<170.086 275.909> -10 50<243.195 382.695> 389 50<230.105 344.258> 470 171
VStem: 42 139<109.909 310.735> 201 184 280 62.9<-171.81 -109.416>
LayerCount: 2
Fore
SplineSet
191 -96 m 1
 185 -90 l 1
 228.7 -6.9 l 1
 172.4 0.9 124.3 23 96 54 c 0
 62.4 90.7 42 139.5 42 202 c 0
 42 359 154 439 288 439 c 0
 338 439 406 422 437 406 c 1
 439 403 l 1
 415 306 l 1
 387 305 l 1
 365 360 335.5 389 297 389 c 0
 261.8 389 227.7 372.2 208.4 341 c 0
 191.5 313.8 184 275.6 184 228 c 0
 184 170.8 196 123 214 94 c 0
 232 65 272 40 301 40 c 0
 341 40 390 54 418 88 c 1
 434 83 l 1
 434 67 436.8 53.5 439 44 c 1
 394 6 350.4 -10 274 -10 c 0
 270.3 -10 266.6 -9.9 263 -9.8 c 1
 250 -41 l 1
 295.4 -50.1 342.9 -65.5 342.9 -120.1 c 0
 342.9 -170.3 292.1 -212 227.3 -212 c 0
 195.3 -212 179.3 -204 162 -193 c 1
 162 -183 165.3 -171 175.3 -161.5 c 1
 202.3 -171.5 213.3 -175.5 233.3 -175.5 c 0
 263.3 -175.5 280 -167 280 -140 c 0
 280 -102.4 227 -98 191 -96 c 1
292 639 m 1
 295 640 303 641 308 641 c 0
 338 641 367 627 375 617 c 1
 385 594 l 1
 265 486 l 2
 251 474 232 470 222 470 c 0
 214 470 201 478 201 484 c 0
 201 490 203 499 209 508 c 2
 292 639 l 1
EndSplineSet
LCarets2: 1 0 
Colour: ff00ff
EndChar

StartChar: uni1E0A
Encoding: 7690 7690 139
Width: 761
VWidth: 999
Flags: HW
HStem: -2 53<216.409 485.935> 595 53<217.556 448.867>
VStem: 101 144<64.2018 579.471> 563 165<184.471 417.062>
LayerCount: 2
Fore
SplineSet
245 101 m 2
 245 69 266.9 51 343 51 c 0
 484 51 548 92 548 294 c 0
 548 448 534 595 318 595 c 0
 269 595 245 580 245 545 c 2
 245 101 l 2
175 645 m 0
 245.6 645 285.4 648 356 648 c 0
 548 648 709 514.5 709 318 c 0
 709 72 515 -2 374 -2 c 0
 286.9 -2 252.6 0 175 0 c 0
 140 0 90 -3 90 -3 c 1
 89 0 l 1
 97 54 101 125 101 200 c 2
 101 445 l 2
 101 520 97 588 89 645 c 1
 91 648 l 1
 91 648 141 645 175 645 c 0
EndSplineSet
LCarets2: 1 0 
Colour: ff00ff
EndChar

StartChar: uni1E0B
Encoding: 7691 7691 140
Width: 591
VWidth: 999
Flags: HW
HStem: -10 58<224.3 328.638> -3 21<386 395.667 515.5 524> 389 50<223.989 336.055> 536 142<176.5 285.5> 678 20<493.465 509.167>
VStem: 44 142<98.9094 311.576> 156 150<556.5 657.5> 373 132<90.6895 351.125 394 659.981>
LayerCount: 2
Fore
SplineSet
373 133 m 1
 373 303 l 1
 362.5 354.5 325 389 278 389 c 0
 229.6 389 186 356 186 221 c 0
 186 96 222 48 276 48 c 0
 316.5 48 348.5 69 373 133 c 1
373 54 m 1
 346 7.5 293 -10 230 -10 c 0
 119 -10 44 80 44 203 c 0
 44 274.9 68 347.5 130 392.5 c 0
 175.9 425.8 212 439 279 439 c 0
 307.5 439 354 421 373 394 c 1
 373 474 l 2
 373 550 368.7 619.3 361 662 c 1
 363 665 l 1
 403.5 668 480.9 688 506 698 c 1
 512.3 698 517 695 517 688 c 0
 509.3 626.7 505 574 505 500 c 2
 505 192 l 2
 505 117 516 43 524 0 c 1
 522 -3 l 1
 509 -1 465.1 0 452.5 0 c 0
 438 0 402.3 -1.3 389 -3 c 0
 383 -3 380 -2 380 0 c 2
 375 54 l 1
 373 54 l 1
160 607 m 0
 160 645 191 676 231 676 c 0
 271 676 302 645 302 607 c 0
 302 569 271 538 231 538 c 0
 191 538 160 569 160 607 c 0
EndSplineSet
LCarets2: 1 0 
Colour: ff00ff
EndChar

StartChar: uni1E0C
Encoding: 7692 7692 141
Width: 761
VWidth: 999
Flags: HW
HStem: -219 142<234.5 343.5> -2 53<216.409 485.935> 595 53<217.556 448.867>
VStem: 101 144<64.2018 579.471> 214 150<-198.5 -97.5> 563 165<184.471 417.062>
LayerCount: 2
Fore
SplineSet
245 101 m 2
 245 69 266.9 51 343 51 c 0
 484 51 548 92 548 294 c 0
 548 448 534 595 318 595 c 0
 269 595 245 580 245 545 c 2
 245 101 l 2
175 645 m 0
 245.6 645 285.4 648 356 648 c 0
 548 648 709 514.5 709 318 c 0
 709 72 515 -2 374 -2 c 0
 286.9 -2 252.6 0 175 0 c 0
 140 0 90 -3 90 -3 c 1
 89 0 l 1
 97 54 101 125 101 200 c 2
 101 445 l 2
 101 520 97 588 89 645 c 1
 91 648 l 1
 91 648 141 645 175 645 c 0
218 -148 m 0
 218 -110 249 -79 289 -79 c 0
 329 -79 360 -110 360 -148 c 0
 360 -186 329 -217 289 -217 c 0
 249 -217 218 -186 218 -148 c 0
EndSplineSet
LCarets2: 1 0 
Colour: ff00ff
EndChar

StartChar: uni1E0D
Encoding: 7693 7693 142
Width: 591
VWidth: 999
Flags: HW
HStem: -219 142<230.5 339.5> -10 58<224.3 328.638> -3 21<386 395.667 515.5 524> 389 50<223.989 336.055> 678 20<493.465 509.167>
VStem: 44 142<98.9094 311.576> 210 150<-198.5 -97.5> 373 132<90.6895 351.125 394 659.981>
LayerCount: 2
Fore
SplineSet
373 133 m 1
 373 303 l 1
 362.5 354.5 325 389 278 389 c 0
 229.6 389 186 356 186 221 c 0
 186 96 222 48 276 48 c 0
 316.5 48 348.5 69 373 133 c 1
373 54 m 1
 346 7.5 293 -10 230 -10 c 0
 119 -10 44 80 44 203 c 0
 44 274.9 68 347.5 130 392.5 c 0
 175.9 425.8 212 439 279 439 c 0
 307.5 439 354 421 373 394 c 1
 373 474 l 2
 373 550 368.7 619.3 361 662 c 1
 363 665 l 1
 403.5 668 480.9 688 506 698 c 1
 512.3 698 517 695 517 688 c 0
 509.3 626.7 505 574 505 500 c 2
 505 192 l 2
 505 117 516 43 524 0 c 1
 522 -3 l 1
 509 -1 465.1 0 452.5 0 c 0
 438 0 402.3 -1.3 389 -3 c 0
 383 -3 380 -2 380 0 c 2
 375 54 l 1
 373 54 l 1
214 -148 m 0
 214 -110 245 -79 285 -79 c 0
 325 -79 356 -110 356 -148 c 0
 356 -186 325 -217 285 -217 c 0
 245 -217 214 -186 214 -148 c 0
EndSplineSet
LCarets2: 1 0 
Colour: ff00ff
EndChar

StartChar: uni1E0E
Encoding: 7694 7694 143
Width: 761
VWidth: 999
Flags: HW
HStem: -105 44<144 155 155 422> -2 53<216.409 485.935> 595 53<217.556 448.867>
VStem: 101 144<64.2018 579.471> 563 165<184.471 417.062>
LayerCount: 2
Fore
SplineSet
245 101 m 2
 245 69 266.9 51 343 51 c 0
 484 51 548 92 548 294 c 0
 548 448 534 595 318 595 c 0
 269 595 245 580 245 545 c 2
 245 101 l 2
175 645 m 0
 245.6 645 285.4 648 356 648 c 0
 548 648 709 514.5 709 318 c 0
 709 72 515 -2 374 -2 c 0
 286.9 -2 252.6 0 175 0 c 0
 140 0 90 -3 90 -3 c 1
 89 0 l 1
 97 54 101 125 101 200 c 2
 101 445 l 2
 101 520 97 588 89 645 c 1
 91 648 l 1
 91 648 141 645 175 645 c 0
400 -105 m 2
 155 -105 l 2
 147 -105 143 -97 143 -90 c 0
 143 -78 153 -61 165 -61 c 2
 410 -61 l 2
 419 -61 423 -68 423 -75 c 0
 423 -87 413 -105 400 -105 c 2
EndSplineSet
LCarets2: 1 0 
Colour: ff00ff
EndChar

StartChar: uni1E0F
Encoding: 7695 7695 144
Width: 591
VWidth: 999
Flags: HW
HStem: -109 44<146 157 157 424> -10 58<224.3 328.638> -3 21<386 395.667 515.5 524> 389 50<223.989 336.055> 678 20<493.465 509.167>
VStem: 44 142<98.9094 311.576> 373 132<90.6895 351.125 394 659.981>
LayerCount: 2
Fore
SplineSet
373 133 m 1
 373 303 l 1
 362.5 354.5 325 389 278 389 c 0
 229.6 389 186 356 186 221 c 0
 186 96 222 48 276 48 c 0
 316.5 48 348.5 69 373 133 c 1
373 54 m 1
 346 7.5 293 -10 230 -10 c 0
 119 -10 44 80 44 203 c 0
 44 274.9 68 347.5 130 392.5 c 0
 175.9 425.8 212 439 279 439 c 0
 307.5 439 354 421 373 394 c 1
 373 474 l 2
 373 550 368.7 619.3 361 662 c 1
 363 665 l 1
 403.5 668 480.9 688 506 698 c 1
 512.3 698 517 695 517 688 c 0
 509.3 626.7 505 574 505 500 c 2
 505 192 l 2
 505 117 516 43 524 0 c 1
 522 -3 l 1
 509 -1 465.1 0 452.5 0 c 0
 438 0 402.3 -1.3 389 -3 c 0
 383 -3 380 -2 380 0 c 2
 375 54 l 1
 373 54 l 1
402 -109 m 2
 157 -109 l 2
 149 -109 145 -101 145 -94 c 0
 145 -82 155 -65 167 -65 c 2
 412 -65 l 2
 421 -65 425 -72 425 -79 c 0
 425 -91 415 -109 402 -109 c 2
EndSplineSet
LCarets2: 1 0 
Colour: ff00ff
EndChar

StartChar: uni1E10
Encoding: 7696 7696 145
Width: 761
VWidth: 999
Flags: HW
HStem: -226 24<271.315 301.976> -123 82<276.324 341.34> -2 34<15.9238 91.0861 203.681 417.647> 613 34<15.9238 91.0861 206.921 373.9>
VStem: 106 85<43.9064 600.097> 343 39<-177.408 -99.958> 562 96<179.249 422.825>
LayerCount: 2
Fore
SplineSet
245 101 m 2
 245 69 266.9 51 343 51 c 0
 484 51 548 92 548 294 c 0
 548 448 534 595 318 595 c 0
 269 595 245 580 245 545 c 2
 245 101 l 2
175 645 m 0
 245.6 645 285.4 648 356 648 c 0
 548 648 709 514.5 709 318 c 0
 709 72 515 -2 374 -2 c 0
 286.9 -2 252.6 0 175 0 c 0
 140 0 90 -3 90 -3 c 1
 89 0 l 1
 97 54 101 125 101 200 c 2
 101 445 l 2
 101 520 97 588 89 645 c 1
 91 648 l 1
 91 648 141 645 175 645 c 0
261 -97 m 1
 261 -93 l 1
 264 -67 289 -46 325 -42 c 1
 331 -42 l 1
 352.9 -44.4 373.7 -50.6 388 -69 c 0
 403.1 -88.4 413 -117.8 413 -147 c 0
 413 -220 335 -243 259 -243 c 1
 252 -238 250 -222 254 -213 c 1
 319 -213 348 -199 348 -181 c 0
 348 -159 335.9 -145.6 320 -144 c 0
 280 -140 263 -125 261 -97 c 1
EndSplineSet
LCarets2: 1 0 
Colour: ff00ff
EndChar

StartChar: uni1E11
Encoding: 7697 7697 146
Width: 591
VWidth: 999
Flags: HW
HStem: -10 47<182.748 279.881> 30 27<444.892 500.639> 404 35<187.076 307.036> 641 30<277.065 335.38> 678 20<402.5 419.5>
VStem: 39 86<108.084 310.695> 345 79<80.6055 373.206 422.001 635.885>
LayerCount: 2
Fore
SplineSet
373 133 m 1
 373 303 l 1
 362.5 354.5 325 389 278 389 c 0
 229.6 389 186 356 186 221 c 0
 186 96 222 48 276 48 c 0
 316.5 48 348.5 69 373 133 c 1
373 54 m 1
 346 7.5 293 -10 230 -10 c 0
 119 -10 44 80 44 203 c 0
 44 274.9 68 347.5 130 392.5 c 0
 175.9 425.8 212 439 279 439 c 0
 307.5 439 354 421 373 394 c 1
 373 474 l 2
 373 550 368.7 619.3 361 662 c 1
 363 665 l 1
 403.5 668 480.9 688 506 698 c 1
 512.3 698 517 695 517 688 c 0
 509.3 626.7 505 574 505 500 c 2
 505 192 l 2
 505 117 516 43 524 0 c 1
 522 -3 l 1
 509 -1 465.1 0 452.5 0 c 0
 438 0 402.3 -1.3 389 -3 c 0
 383 -3 380 -2 380 0 c 2
 375 54 l 1
 373 54 l 1
171 -97 m 1
 171 -93 l 1
 174 -67 199 -46 235 -42 c 1
 241 -42 l 1
 262.9 -44.4 283.7 -50.6 298 -69 c 0
 313.1 -88.4 323 -117.8 323 -147 c 0
 323 -220 245 -243 169 -243 c 1
 162 -238 160 -222 164 -213 c 1
 229 -213 258 -199 258 -181 c 0
 258 -159 245.9 -145.6 230 -144 c 0
 190 -140 173 -125 171 -97 c 1
EndSplineSet
LCarets2: 1 0 
Colour: ff00ff
EndChar

StartChar: uni1E12
Encoding: 7698 7698 147
Width: 761
VWidth: 999
Flags: HW
HStem: -2 53<216.409 485.935> 595 53<217.556 448.867>
VStem: 101 144<64.2018 579.471> 140 253<-186 -186> 563 165<184.471 417.062>
LayerCount: 2
Fore
SplineSet
373 -232 m 1
 346 -256 l 1
 298 -233 266 -206 228 -169 c 1
 186 -208 154.5 -234 111 -256 c 1
 84 -232 l 1
 130.5 -185 179 -125 212 -76 c 1
 246 -76 l 1
 283.5 -131 324.5 -183.5 373 -232 c 1
245 101 m 2
 245 69 266.9 51 343 51 c 0
 484 51 548 92 548 294 c 0
 548 448 534 595 318 595 c 0
 269 595 245 580 245 545 c 2
 245 101 l 2
175 645 m 0
 245.6 645 285.4 648 356 648 c 0
 548 648 709 514.5 709 318 c 0
 709 72 515 -2 374 -2 c 0
 286.9 -2 252.6 0 175 0 c 0
 140 0 90 -3 90 -3 c 1
 89 0 l 1
 97 54 101 125 101 200 c 2
 101 445 l 2
 101 520 97 588 89 645 c 1
 91 648 l 1
 91 648 141 645 175 645 c 0
EndSplineSet
LCarets2: 1 0 
Colour: ff00ff
EndChar

StartChar: uni1E13
Encoding: 7699 7699 148
Width: 591
VWidth: 999
Flags: HW
HStem: -10 58<224.3 328.638> -3 21<386 395.667 515.5 524> 389 50<223.989 336.055> 678 20<493.465 509.167>
VStem: 44 142<98.9094 311.576> 140 253<-186 -186> 373 132<90.6895 351.125 394 659.981>
LayerCount: 2
Fore
SplineSet
373 -232 m 1
 346 -256 l 1
 298 -233 266 -206 228 -169 c 1
 186 -208 154.5 -234 111 -256 c 1
 84 -232 l 1
 130.5 -185 179 -125 212 -76 c 1
 246 -76 l 1
 283.5 -131 324.5 -183.5 373 -232 c 1
373 133 m 1
 373 303 l 1
 362.5 354.5 325 389 278 389 c 0
 229.6 389 186 356 186 221 c 0
 186 96 222 48 276 48 c 0
 316.5 48 348.5 69 373 133 c 1
373 54 m 1
 346 7.5 293 -10 230 -10 c 0
 119 -10 44 80 44 203 c 0
 44 274.9 68 347.5 130 392.5 c 0
 175.9 425.8 212 439 279 439 c 0
 307.5 439 354 421 373 394 c 1
 373 474 l 2
 373 550 368.7 619.3 361 662 c 1
 363 665 l 1
 403.5 668 480.9 688 506 698 c 1
 512.3 698 517 695 517 688 c 0
 509.3 626.7 505 574 505 500 c 2
 505 192 l 2
 505 117 516 43 524 0 c 1
 522 -3 l 1
 509 -1 465.1 0 452.5 0 c 0
 438 0 402.3 -1.3 389 -3 c 0
 383 -3 380 -2 380 0 c 2
 375 54 l 1
 373 54 l 1
EndSplineSet
LCarets2: 1 0 
Colour: ff00ff
EndChar

StartChar: uni1E14
Encoding: 7700 7700 149
Width: 594
VWidth: 999
Flags: HW
HStem: 0 73<244.435 487.022> 311 61<240 463.736> 577 68<244.435 479.755> 693 60<161.837 469.084> 834.6 130.2
VStem: -32.2 164.8 96 144<74.1699 311 372 575.826> 158 315<693.849 752.524>
LayerCount: 2
Fore
SplineSet
447 693 m 2
 173 693 l 2
 162 693 158 707 158 716 c 0
 158 728 170 753 183 753 c 2
 459 753 l 2
 469 753 473 739 473 731 c 0
 473 718 461 693 447 693 c 2
240 200 m 2
 240 183 241 97 248 73 c 1
 382 73 544 95 544 95 c 1
 546 91 l 1
 545 83 544 46 544 36 c 0
 544 26 544.5 13.2 546 0 c 1
 544 -3 l 1
 528 -1 505 0 484 0 c 2
 170 0 l 2
 135 0 85 -3 85 -3 c 1
 84 0 l 1
 92 54 96 125 96 200 c 2
 96 445 l 2
 96 520 92 588 84 645 c 1
 86 648 l 1
 86 648 136 645 170 645 c 2
 474 645 l 2
 495 645 518 646 534 648 c 1
 536 645 l 1
 534.8 631 534 618 534 610 c 0
 534 601 535 577 536 569 c 1
 534 565 l 1
 534 565 382 577 248 577 c 1
 241 553 240 462 240 445 c 2
 240 372 l 1
 358 372 418 377 477 382 c 1
 480 379 l 1
 478 370 477 351 477 342 c 0
 477 333 478 313 480 304 c 1
 477 301 l 1
 408 308 288 311 240 311 c 1
 240 200 l 2
11.7 964.8 m 1
 121 877.7 l 2
 131.1 869.6 132.6 862.8 132.6 856.6 c 0
 132.6 848.7 126.4 834.6 120.2 834.6 c 0
 114 834.6 107.3 836.8 90.2 842.5 c 2
 -26.8 881.3 l 1
 -32.2 893.6 l 1
 -25.3 919.1 -9.4 948.3 11.7 964.8 c 1
EndSplineSet
LCarets2: 1 0 
Colour: ff00ff
EndChar

StartChar: uni1E15
Encoding: 7701 7701 150
Width: 508
VWidth: 999
Flags: HW
HStem: -10 76<222.885 377.839> 225 45<174 344> 389 50<216.934 317.341> 530 60<116.837 424.084>
VStem: 40 129<120.369 225 270 303.578> 113 315<530.849 589.524> 344 130<247.965 352.181>
LayerCount: 2
Fore
SplineSet
402 530 m 2
 128 530 l 2
 117 530 113 544 113 553 c 0
 113 565 125 590 138 590 c 2
 414 590 l 2
 424 590 428 576 428 568 c 0
 428 555 416 530 402 530 c 2
173 255 m 1
 329 255 l 1
 329 342.5 304.9 389 264 389 c 0
 235.7 389 216.2 376.3 203.5 359 c 0
 188.7 338.8 176.5 304 173 255 c 1
448 107 m 1
 458 107 464 89 464 76 c 1
 409.5 13 338 -10 266 -10 c 0
 191 -10 132.2 6.5 98 42 c 0
 56.7 84.9 35 147 35 206 c 0
 35 288.9 68 349 116.5 389 c 0
 156.2 421.7 216 439 271 439 c 0
 425 439 460 339 460 214 c 1
 454 208 l 1
 454 208 368.5 210 268.5 210 c 2
 169 210 l 1
 169 164.1 180.2 129 202.2 105 c 0
 226 79.1 262.4 66 311 66 c 0
 353 66 401.5 69.5 448 107 c 1
228.2 767.9 m 1
 283.4 656.3 l 2
 286.6 650 290.6 640.1 290.6 632.9 c 0
 290.6 624.8 278.6 618.5 271.4 618.5 c 0
 265 618.5 254.6 623 241 636.5 c 2
 144.2 731 l 1
 145.8 740.9 l 1
 152.2 749 183.4 769.7 212.2 769.7 c 0
 216.2 769.7 225 768.8 228.2 767.9 c 1
EndSplineSet
LCarets2: 1 0 
Colour: ff00ff
EndChar

StartChar: uni1E16
Encoding: 7702 7702 151
Width: 594
VWidth: 999
Flags: HW
HStem: 0 73<244.435 487.022> 311 61<240 463.736> 577 68<244.435 479.755> 693 60<104.837 412.084> 833.6 130.2
VStem: 96 144<74.1699 311 372 575.826> 101 315<693.849 752.524> 418.1 164.8
LayerCount: 2
Fore
SplineSet
390 693 m 2
 116 693 l 2
 105 693 101 707 101 716 c 0
 101 728 113 753 126 753 c 2
 402 753 l 2
 412 753 416 739 416 731 c 0
 416 718 404 693 390 693 c 2
240 200 m 2
 240 183 241 97 248 73 c 1
 382 73 544 95 544 95 c 1
 546 91 l 1
 545 83 544 46 544 36 c 0
 544 26 544.5 13.2 546 0 c 1
 544 -3 l 1
 528 -1 505 0 484 0 c 2
 170 0 l 2
 135 0 85 -3 85 -3 c 1
 84 0 l 1
 92 54 96 125 96 200 c 2
 96 445 l 2
 96 520 92 588 84 645 c 1
 86 648 l 1
 86 648 136 645 170 645 c 2
 474 645 l 2
 495 645 518 646 534 648 c 1
 536 645 l 1
 534.8 631 534 618 534 610 c 0
 534 601 535 577 536 569 c 1
 534 565 l 1
 534 565 382 577 248 577 c 1
 241 553 240 462 240 445 c 2
 240 372 l 1
 358 372 418 377 477 382 c 1
 480 379 l 1
 478 370 477 351 477 342 c 0
 477 333 478 313 480 304 c 1
 477 301 l 1
 408 308 288 311 240 311 c 1
 240 200 l 2
539 963.8 m 1
 560.1 947.3 576 918.1 582.9 892.6 c 1
 577.5 880.3 l 1
 460.4 841.5 l 2
 443.3 835.8 436.6 833.6 430.4 833.6 c 0
 424.2 833.6 418.1 847.7 418.1 855.6 c 0
 418.1 861.8 419.5 868.6 429.6 876.7 c 2
 539 963.8 l 1
EndSplineSet
LCarets2: 1 0 
Colour: ff00ff
EndChar

StartChar: uni1E17
Encoding: 7703 7703 152
Width: 508
VWidth: 999
Flags: HW
HStem: -10 76<222.885 377.839> 225 45<174 344> 389 50<216.934 317.341> 530 60<116.837 424.084> 578.3 153.9
VStem: 40 129<120.369 225 270 303.578> 113 315<530.849 589.524> 185.2 147.2 344 130<247.965 352.181>
LayerCount: 2
Fore
SplineSet
402 530 m 2
 128 530 l 2
 117 530 113 544 113 553 c 0
 113 565 125 590 138 590 c 2
 185.3 590 l 2
 185.2 590.3 185.2 590.6 185.2 590.9 c 0
 185.2 596.3 186.8 604.4 191.6 612.5 c 2
 258 730.4 l 1
 260.4 731.3 266.8 732.2 270.8 732.2 c 0
 294.8 732.2 318 719.6 324.4 710.6 c 1
 332.4 689.9 l 1
 236.4 592.7 l 2
 235.4 591.7 234.3 590.8 233.3 590 c 2
 414 590 l 2
 424 590 428 576 428 568 c 0
 428 555 416 530 402 530 c 2
173 255 m 1
 329 255 l 1
 329 342.5 304.9 389 264 389 c 0
 235.7 389 216.2 376.3 203.5 359 c 0
 188.7 338.8 176.5 304 173 255 c 1
448 107 m 1
 458 107 464 89 464 76 c 1
 409.5 13 338 -10 266 -10 c 0
 191 -10 132.2 6.5 98 42 c 0
 56.7 84.9 35 147 35 206 c 0
 35 288.9 68 349 116.5 389 c 0
 156.2 421.7 216 439 271 439 c 0
 425 439 460 339 460 214 c 1
 454 208 l 1
 454 208 368.5 210 268.5 210 c 2
 169 210 l 1
 169 164.1 180.2 129 202.2 105 c 0
 226 79.1 262.4 66 311 66 c 0
 353 66 401.5 69.5 448 107 c 1
EndSplineSet
LCarets2: 1 0 
Colour: ff00ff
EndChar

StartChar: uni1E18
Encoding: 7704 7704 153
Width: 594
VWidth: 999
Flags: HW
HStem: 0 73<244.435 487.022> 311 61<240 463.736> 577 68<244.435 479.755>
VStem: 96 144<74.1699 311 372 575.826> 148 253<-186 -186>
LayerCount: 2
Fore
SplineSet
381 -232 m 1
 354 -256 l 1
 306 -233 274 -206 236 -169 c 1
 194 -208 162.5 -234 119 -256 c 1
 92 -232 l 1
 138.5 -185 187 -125 220 -76 c 1
 254 -76 l 1
 291.5 -131 332.5 -183.5 381 -232 c 1
240 200 m 2
 240 183 241 97 248 73 c 1
 382 73 544 95 544 95 c 1
 546 91 l 1
 545 83 544 46 544 36 c 0
 544 26 544.5 13.2 546 0 c 1
 544 -3 l 1
 528 -1 505 0 484 0 c 2
 170 0 l 2
 135 0 85 -3 85 -3 c 1
 84 0 l 1
 92 54 96 125 96 200 c 2
 96 445 l 2
 96 520 92 588 84 645 c 1
 86 648 l 1
 86 648 136 645 170 645 c 2
 474 645 l 2
 495 645 518 646 534 648 c 1
 536 645 l 1
 534.8 631 534 618 534 610 c 0
 534 601 535 577 536 569 c 1
 534 565 l 1
 534 565 382 577 248 577 c 1
 241 553 240 462 240 445 c 2
 240 372 l 1
 358 372 418 377 477 382 c 1
 480 379 l 1
 478 370 477 351 477 342 c 0
 477 333 478 313 480 304 c 1
 477 301 l 1
 408 308 288 311 240 311 c 1
 240 200 l 2
EndSplineSet
LCarets2: 1 0 
Colour: ff00ff
EndChar

StartChar: uni1E19
Encoding: 7705 7705 154
Width: 508
VWidth: 999
Flags: HW
HStem: -10 76<222.885 377.839> 225 45<174 344> 389 50<216.934 317.341>
VStem: 40 129<120.369 225 270 303.578> 93 253<-186 -186> 344 130<247.965 352.181>
LayerCount: 2
Fore
SplineSet
326 -232 m 1
 299 -256 l 1
 251 -233 219 -206 181 -169 c 1
 139 -208 107.5 -234 64 -256 c 1
 37 -232 l 1
 83.5 -185 132 -125 165 -76 c 1
 199 -76 l 1
 236.5 -131 277.5 -183.5 326 -232 c 1
173 255 m 1
 329 255 l 1
 329 342.5 304.9 389 264 389 c 0
 235.7 389 216.2 376.3 203.5 359 c 0
 188.7 338.8 176.5 304 173 255 c 1
448 107 m 1
 458 107 464 89 464 76 c 1
 409.5 13 338 -10 266 -10 c 0
 191 -10 132.2 6.5 98 42 c 0
 56.7 84.9 35 147 35 206 c 0
 35 288.9 68 349 116.5 389 c 0
 156.2 421.7 216 439 271 439 c 0
 425 439 460 339 460 214 c 1
 454 208 l 1
 454 208 368.5 210 268.5 210 c 2
 169 210 l 1
 169 164.1 180.2 129 202.2 105 c 0
 226 79.1 262.4 66 311 66 c 0
 353 66 401.5 69.5 448 107 c 1
EndSplineSet
LCarets2: 1 0 
Colour: ff00ff
EndChar

StartChar: uni1E1A
Encoding: 7706 7706 155
Width: 594
VWidth: 999
Flags: HW
HStem: -177 66<298.778 385.61> -125 67<176.161 268.179> 0 73<244.435 487.022> 311 61<240 463.736> 577 68<244.435 479.755>
VStem: 96 144<74.1699 311 372 575.826> 130 36<-168.361 -138.491> 401 36<-91.908 -64.25>
LayerCount: 2
Fore
SplineSet
352 -99 m 0
 373 -99 388 -93 401 -57 c 1
 433 -66 l 1
 419 -130 384 -173 333 -173 c 0
 290.9 -173 255.1 -131 215 -131 c 0
 186 -131 174 -143 166 -174 c 1
 133 -167 l 1
 148 -103 179 -58 227 -58 c 0
 276.7 -58 303.5 -99 352 -99 c 0
240 200 m 2
 240 183 241 97 248 73 c 1
 382 73 544 95 544 95 c 1
 546 91 l 1
 545 83 544 46 544 36 c 0
 544 26 544.5 13.2 546 0 c 1
 544 -3 l 1
 528 -1 505 0 484 0 c 2
 170 0 l 2
 135 0 85 -3 85 -3 c 1
 84 0 l 1
 92 54 96 125 96 200 c 2
 96 445 l 2
 96 520 92 588 84 645 c 1
 86 648 l 1
 86 648 136 645 170 645 c 2
 474 645 l 2
 495 645 518 646 534 648 c 1
 536 645 l 1
 534.8 631 534 618 534 610 c 0
 534 601 535 577 536 569 c 1
 534 565 l 1
 534 565 382 577 248 577 c 1
 241 553 240 462 240 445 c 2
 240 372 l 1
 358 372 418 377 477 382 c 1
 480 379 l 1
 478 370 477 351 477 342 c 0
 477 333 478 313 480 304 c 1
 477 301 l 1
 408 308 288 311 240 311 c 1
 240 200 l 2
EndSplineSet
LCarets2: 1 0 
Colour: ff00ff
EndChar

StartChar: uni1E1B
Encoding: 7707 7707 156
Width: 508
VWidth: 999
Flags: HW
HStem: -175 66<248.778 335.61> -123 67<126.161 218.179> -10 76<222.885 377.839> 225 45<174 344> 389 50<216.934 317.341>
VStem: 40 129<120.369 225 270 303.578> 80 36<-166.361 -136.491> 344 130<247.965 352.181> 351 36<-89.908 -62.25>
LayerCount: 2
Fore
SplineSet
302 -97 m 0
 323 -97 338 -91 351 -55 c 1
 383 -64 l 1
 369 -128 334 -171 283 -171 c 0
 240.9 -171 205.1 -129 165 -129 c 0
 136 -129 124 -141 116 -172 c 1
 83 -165 l 1
 98 -101 129 -56 177 -56 c 0
 226.7 -56 253.5 -97 302 -97 c 0
173 255 m 1
 329 255 l 1
 329 342.5 304.9 389 264 389 c 0
 235.7 389 216.2 376.3 203.5 359 c 0
 188.7 338.8 176.5 304 173 255 c 1
448 107 m 1
 458 107 464 89 464 76 c 1
 409.5 13 338 -10 266 -10 c 0
 191 -10 132.2 6.5 98 42 c 0
 56.7 84.9 35 147 35 206 c 0
 35 288.9 68 349 116.5 389 c 0
 156.2 421.7 216 439 271 439 c 0
 425 439 460 339 460 214 c 1
 454 208 l 1
 454 208 368.5 210 268.5 210 c 2
 169 210 l 1
 169 164.1 180.2 129 202.2 105 c 0
 226 79.1 262.4 66 311 66 c 0
 353 66 401.5 69.5 448 107 c 1
EndSplineSet
LCarets2: 1 0 
Colour: ff00ff
EndChar

StartChar: uni1E1C
Encoding: 7708 7708 157
Width: 594
VWidth: 999
Flags: HW
HStem: -212 36.5<188.086 293.909> 0 73<244.435 487.022> 311 61<240 463.736> 577 68<244.435 479.755> 853 80<221.019 377.065>
VStem: 96 144<74.1699 311 372 575.826> 150 31<965.906 982.806> 298 62.9<-171.81 -109.416> 419 30<967.862 982.867>
LayerCount: 2
Fore
SplineSet
263 -96 m 1
 257 -90 l 1
 304.3 0 l 1
 170 0 l 2
 135 0 85 -3 85 -3 c 1
 84 0 l 1
 92 54 96 125 96 200 c 2
 96 445 l 2
 96 520 92 588 84 645 c 1
 86 648 l 1
 86 648 136 645 170 645 c 2
 474 645 l 2
 495 645 518 646 534 648 c 1
 536 645 l 1
 534.8 631 534 618 534 610 c 0
 534 601 535 577 536 569 c 1
 534 565 l 1
 534 565 382 577 248 577 c 1
 241 553 240 462 240 445 c 2
 240 372 l 1
 358 372 418 377 477 382 c 1
 480 379 l 1
 478 370 477 351 477 342 c 0
 477 333 478 313 480 304 c 1
 477 301 l 1
 408 308 288 311 240 311 c 1
 240 200 l 2
 240 183 241 97 248 73 c 1
 382 73 544 95 544 95 c 1
 546 91 l 1
 545 83 544 46 544 36 c 0
 544 26 544.5 13.2 546 0 c 1
 544 -3 l 1
 528 -1 505 0 484 0 c 2
 339.1 0 l 1
 322 -41 l 1
 367.4 -50.1 414.9 -65.5 414.9 -120.1 c 0
 414.9 -170.3 364.1 -212 299.3 -212 c 0
 267.3 -212 251.3 -204 234 -193 c 1
 234 -183 237.3 -171 247.3 -161.5 c 1
 274.3 -171.5 285.3 -175.5 305.3 -175.5 c 0
 335.3 -175.5 352 -167 352 -140 c 0
 352 -102.4 299 -98 263 -96 c 1
449 989 m 1
 449 908 373 853 300 853 c 0
 220 853 150 908.5 150 989 c 1
 181 989 l 1
 181 955 242 933 300 933 c 0
 354 933 419 955 419 989 c 1
 449 989 l 1
EndSplineSet
LCarets2: 1 0 
Colour: ff00ff
EndChar

StartChar: uni1E1D
Encoding: 7709 7709 158
Width: 508
VWidth: 999
Flags: HW
HStem: -217 36.5<140.086 245.909> -10 76<222.885 377.839> 225 45<174 344> 389 50<216.934 317.341> 495 70<159.939 302.577>
VStem: 40 129<120.369 225 270 303.578> 92 33<605.075 641.182> 250 62.9<-176.81 -114.416> 340 32<606.158 641.281> 344 130<247.965 352.181>
LayerCount: 2
Fore
SplineSet
227 -101 m 1
 221 -95 l 1
 265.7 -10 l 1
 190.8 -10 132.2 6.5 98 42 c 0
 56.7 84.9 35 147 35 206 c 0
 35 288.9 68 349 116.5 389 c 0
 156.2 421.7 216 439 271 439 c 0
 425 439 460 339 460 214 c 1
 454 208 l 1
 454 208 368.5 210 268.5 210 c 2
 169 210 l 1
 169 164.1 180.2 129 202.2 105 c 0
 226 79.1 262.4 66 311 66 c 0
 353 66 401.5 69.5 448 107 c 1
 458 107 464 89 464 76 c 1
 418.6 23.5 361.3 -1.2 301.8 -8 c 1
 286 -46 l 1
 331.4 -55.1 378.9 -70.5 378.9 -125.1 c 0
 378.9 -175.3 328.1 -217 263.3 -217 c 0
 231.3 -217 215.3 -209 198 -198 c 1
 198 -188 201.3 -176 211.3 -166.5 c 1
 238.3 -176.5 249.3 -180.5 269.3 -180.5 c 0
 299.3 -180.5 316 -172 316 -145 c 0
 316 -107.4 263 -103 227 -101 c 1
173 255 m 1
 329 255 l 1
 329 342.5 304.9 389 264 389 c 0
 235.7 389 216.2 376.3 203.5 359 c 0
 188.7 338.8 176.5 304 173 255 c 1
126 633 m 1
 142 574.5 179 555 233 555 c 0
 285.5 555 328 577.5 339 633 c 1
 372 633 l 1
 367 530 304 479 233 479 c 0
 163 479 98.5 527.5 93 633 c 1
 126 633 l 1
EndSplineSet
LCarets2: 1 0 
Colour: ff00ff
EndChar

StartChar: uni1E1E
Encoding: 7710 7710 159
Width: 554
VWidth: 999
Flags: HW
HStem: -3 21<86 172 172 252> 311 61<242 465.736> 577 68<246.435 481.755>
VStem: 98 144<2.67992 311 372 575.826>
LayerCount: 2
Fore
SplineSet
468 645 m 2
 492 645 515 646 531 648 c 1
 533 645 l 1
 532 631 531 618 531 610 c 0
 531 601 532 567 533 559 c 1
 531 555 l 1
 531 555 384 577 250 577 c 1
 243 553 242 462 242 445 c 2
 242 362 l 1
 360 362 420 367 479 372 c 1
 482 369 l 1
 480 360 479 341 479 332 c 0
 479 323 480 303 482 294 c 1
 479 291 l 1
 410 298 290 301 242 301 c 1
 242 200 l 2
 242 125 244 57 252 0 c 1
 250 -3 l 1
 250 -3 206 0 172 0 c 0
 137 0 87 -3 87 -3 c 1
 86 0 l 1
 94 54 98 125 98 200 c 2
 98 445 l 2
 98 520 94 588 86 645 c 1
 88 648 l 1
 88 648 138 645 172 645 c 2
 468 645 l 2
EndSplineSet
LCarets2: 1 0 
Colour: ff00ff
EndChar

StartChar: uni1E1F
Encoding: 7711 7711 160
Width: 366
VWidth: 999
Flags: HW
HStem: -3 21<86 162 162 233> 379 50<29.5626 93 222 336.312> 580 104<352.294 396.013> 629 69<241.074 347.239>
VStem: 93 129<2.72528 378.996 429.011 533.948> 363 30<580 605.498>
LayerCount: 2
Fore
SplineSet
222 379 m 1
 225 200 l 2
 226.3 124.9 226 58 233 0 c 1
 231 -3 l 1
 231 -3 196.3 0 162 0 c 0
 127 0 87 -3 87 -3 c 1
 86 0 l 1
 93 51 93 125 93 200 c 2
 93 379 l 1
 70.2 378.9 39.2 378.3 22 377 c 1
 17 384 l 1
 26.7 399 33.5 415 39 432 c 1
 51.4 430.4 72.5 429.1 93 429 c 1
 93 459 l 2
 93 520 118 583 162 629 c 0
 204 672.9 264.4 698 340 698 c 0
 371.4 698 407 689 415 684 c 1
 416 681 l 1
 407 660.5 396 608 393 580 c 1
 363 579 l 1
 355.4 607.9 328 629 299 629 c 0
 245 629 215 590.2 215 535 c 0
 215 513 222 464.5 222 439 c 2
 222 429 l 1
 269 429 l 2
 292 429 320.4 430.4 339 432 c 1
 344 424 l 1
 338 409.3 333.5 392 332 377 c 1
 318.7 378.3 284 379 260 379 c 2
 222 379 l 1
EndSplineSet
LCarets2: 1 0 
Colour: ff00ff
EndChar

StartChar: uni1E20
Encoding: 7712 7712 161
Width: 753
VWidth: 999
Flags: HW
HStem: -10 55<337.32 524.526> 602 56<309.401 496.285> 725 60<224.837 532.084>
VStem: 39 158<214.24 438.594> 221 315<725.849 784.524> 546 138<83.3557 304.327>
LayerCount: 2
Fore
SplineSet
510 725 m 2
 236 725 l 2
 225 725 221 739 221 748 c 0
 221 760 233 785 246 785 c 2
 522 785 l 2
 532 785 536 771 536 763 c 0
 536 750 524 725 510 725 c 2
539 117 m 2
 539 192 537 250 529 307 c 1
 531 310 l 1
 531 310 579 307 613 307 c 0
 648 307 686 310 686 310 c 1
 687 307 l 1
 679 254 677 212 677 137 c 0
 677 104.6 680.9 90.5 687 83 c 1
 687 80 l 1
 619.5 23.4 506.5 -10 390 -10 c 0
 307.7 -10 253.8 7.6 194 48 c 0
 107.8 106.3 52 204.8 52 307 c 0
 52 420 96.4 515.5 171 575 c 0
 240 630 305 658 405 658 c 0
 527 658 644 613 644 613 c 1
 646 610 l 1
 634.2 560.7 629.6 531 626 480 c 1
 596 479 l 1
 555 561 469.1 602 391 602 c 0
 256 602 213 488 213 327 c 0
 213 195 277 45 413 45 c 0
 467 45 505 51 539 83 c 1
 539 117 l 2
EndSplineSet
LCarets2: 1 0 
Colour: ff00ff
EndChar

StartChar: uni1E21
Encoding: 7713 7713 162
Width: 561
VWidth: 999
Flags: HW
HStem: -238 45<186.075 347.737> -18 77<180.026 292.771> -17 83<218.306 376.027> 141 40<204.851 304.686> 399 40<209.818 307.53> 530 60<99.837 407.084>
VStem: 32 119<-160.411 -47.0122> 54 133<213.662 359.842> 59 112<65.7191 118.083> 96 315<530.849 589.524> 326 133<216.765 354.388> 400 130<-132.575 -41.5108>
LayerCount: 2
Fore
SplineSet
385 530 m 2
 111 530 l 2
 100 530 96 544 96 553 c 0
 96 565 108 590 121 590 c 2
 397 590 l 2
 407 590 411 576 411 568 c 0
 411 555 399 530 385 530 c 2
459 289 m 0
 459 195.9 374 141 258 141 c 0
 223.9 141 196.8 146 182.5 152 c 1
 171.5 135 171 123.1 171 107 c 0
 171 64 201 59 229 59 c 0
 234 59 234 60 248 61 c 0
 271 64 294 66 311 66 c 0
 403 66 530 46 530 -68 c 0
 530 -121.4 485.5 -171.5 426.5 -200.5 c 0
 366.1 -230.2 290.3 -238 225 -238 c 0
 135.8 -238 32 -211 32 -124 c 0
 32 -99.2 37 -68 54 -46 c 1
 78 -32 116.4 -17.6 138 -4 c 1
 82.5 4.5 59 32 59 74 c 0
 59 106.8 101.5 145 146 160 c 1
 148 165 l 1
 148 165 123.3 172.6 108.5 183 c 0
 82.8 201 54 229 54 285 c 0
 54 381 143 439 251 439 c 0
 272.5 439 305.4 436 323.3 430.4 c 1
 397.9 434.3 461.2 434.9 509 439 c 1
 512 436 l 1
 510 427 509 416 509 407 c 0
 509 398 510 389 512 380 c 1
 509 377 l 1
 474.2 379.4 437.7 385.1 407.9 385.6 c 1
 439 364.6 459 323.5 459 289 c 0
326 288 m 0
 326 363 315 399 255 399 c 0
 203 399 187 356 187 290 c 0
 187 217 197 181 258 181 c 0
 306 181 326 217 326 288 c 0
183 -16 m 1
 157 -43 151 -70.9 151 -104 c 0
 151 -172 219 -193 253 -193 c 0
 339 -193 400 -152 400 -91 c 0
 400 -21.8 332 -17 276 -17 c 0
 262.2 -17 235.5 -18 206 -18 c 0
 197 -18 189.4 -16.8 183 -16 c 1
EndSplineSet
LCarets2: 1 0 
Colour: ff00ff
EndChar

StartChar: uni1E22
Encoding: 7714 7714 163
Width: 764
VWidth: 999
Flags: HW
HStem: -3 21<91 175 175 259 539 623 623 707> 311 52<237 563> 628 20<91 175 175 259 539 623 623 707> 641 142<298.5 407.5>
VStem: 103 144<2.67992 642.32> 278 150<661.5 762.5> 551 144<2.67992 642.32>
LayerCount: 2
Fore
SplineSet
527 445 m 2
 527 520 523 588 515 645 c 1
 517 648 l 1
 517 648 565 645 599 645 c 0
 634 645 682 648 682 648 c 1
 683 645 l 1
 675 592 671 520 671 445 c 2
 671 200 l 2
 671 125 675 57 683 0 c 1
 681 -3 l 1
 681 -3 633 0 599 0 c 0
 564 0 516 -3 516 -3 c 1
 515 0 l 1
 523 54 527 125 527 200 c 2
 527 311 l 1
 237 311 l 1
 237 200 l 2
 237 125 241 57 249 0 c 1
 247 -3 l 1
 247 -3 199 0 165 0 c 0
 130 0 82 -3 82 -3 c 1
 81 0 l 1
 89 54 93 125 93 200 c 2
 93 445 l 2
 93 520 89 588 81 645 c 1
 83 648 l 1
 83 648 131 645 165 645 c 0
 200 645 248 648 248 648 c 1
 249 645 l 1
 241 592 237 520 237 445 c 2
 237 363 l 1
 527 363 l 1
 527 445 l 2
282 712 m 0
 282 750 313 781 353 781 c 0
 393 781 424 750 424 712 c 0
 424 674 393 643 353 643 c 0
 313 643 282 674 282 712 c 0
EndSplineSet
LCarets2: 1 0 
Colour: ff00ff
EndChar

StartChar: uni1E23
Encoding: 7715 7715 164
Width: 606
VWidth: 999
Flags: HW
HStem: -3 21<74 155 155 224 380 465 465 528> 362 77<304.364 434> 467 142<232.5 341.5> 678 20<206.465 222.167>
VStem: 86 132<2.6647 307.95 351 659.981> 212 150<487.5 588.5> 386 132<2.6647 348.673>
LayerCount: 2
Fore
SplineSet
86 474 m 2
 86 550 81.7 619.3 74 662 c 1
 76 665 l 1
 116.5 668 193.9 688 219 698 c 1
 225.3 698 228 695 228 688 c 0
 222.4 643.3 219.7 603.8 218.6 556.6 c 1
 226.8 585.6 253.8 607 287 607 c 0
 327 607 358 576 358 538 c 0
 358 500 327 469 287 469 c 0
 253.1 469 225.7 491.3 218.1 521.3 c 1
 218.1 514.4 218 507.3 218 500 c 2
 218 438 l 1
 214 351 l 1
 218 349 l 1
 264 408 338 439 389 439 c 0
 479 439 518 381 518 291 c 2
 518 180 l 2
 518 104 519 57 528 0 c 1
 526 -3 l 1
 526 -3 499 0 465 0 c 0
 430 0 381 -3 381 -3 c 1
 380 0 l 1
 386 53 386 105 386 180 c 2
 386 269 l 2
 386 342 361 362 334 362 c 0
 298 362 256 332 218 282 c 1
 218 180 l 2
 218 104 219 57 224 0 c 1
 222 -3 l 1
 222 -3 189.3 0 155 0 c 0
 120 0 75 -3 75 -3 c 1
 74 0 l 1
 82.5 53.5 86 105 86 180 c 2
 86 474 l 2
EndSplineSet
LCarets2: 1 0 
Colour: ff00ff
EndChar

StartChar: uni1E24
Encoding: 7716 7716 165
Width: 764
VWidth: 999
Flags: HW
HStem: -219 142<298.5 407.5> -3 21<91 175 175 259 539 623 623 707> 311 52<237 563> 628 20<91 175 175 259 539 623 623 707>
VStem: 103 144<2.67992 642.32> 278 150<-198.5 -97.5> 551 144<2.67992 642.32>
LayerCount: 2
Fore
SplineSet
527 445 m 2
 527 520 523 588 515 645 c 1
 517 648 l 1
 517 648 565 645 599 645 c 0
 634 645 682 648 682 648 c 1
 683 645 l 1
 675 592 671 520 671 445 c 2
 671 200 l 2
 671 125 675 57 683 0 c 1
 681 -3 l 1
 681 -3 633 0 599 0 c 0
 564 0 516 -3 516 -3 c 1
 515 0 l 1
 523 54 527 125 527 200 c 2
 527 311 l 1
 237 311 l 1
 237 200 l 2
 237 125 241 57 249 0 c 1
 247 -3 l 1
 247 -3 199 0 165 0 c 0
 130 0 82 -3 82 -3 c 1
 81 0 l 1
 89 54 93 125 93 200 c 2
 93 445 l 2
 93 520 89 588 81 645 c 1
 83 648 l 1
 83 648 131 645 165 645 c 0
 200 645 248 648 248 648 c 1
 249 645 l 1
 241 592 237 520 237 445 c 2
 237 363 l 1
 527 363 l 1
 527 445 l 2
282 -148 m 0
 282 -110 313 -79 353 -79 c 0
 393 -79 424 -110 424 -148 c 0
 424 -186 393 -217 353 -217 c 0
 313 -217 282 -186 282 -148 c 0
EndSplineSet
LCarets2: 1 0 
Colour: ff00ff
EndChar

StartChar: uni1E25
Encoding: 7717 7717 166
Width: 606
VWidth: 999
Flags: HW
HStem: -220 142<204.5 313.5> -3 21<74 155 155 224 380 465 465 528> 362 77<304.364 434> 678 20<206.465 222.167>
VStem: 86 132<2.6647 307.95 351 659.981> 184 150<-199.5 -98.5> 386 132<2.6647 348.673>
LayerCount: 2
Fore
SplineSet
188 -149 m 0
 188 -111 219 -80 259 -80 c 0
 299 -80 330 -111 330 -149 c 0
 330 -187 299 -218 259 -218 c 0
 219 -218 188 -187 188 -149 c 0
86 474 m 2
 86 550 81.7 619.3 74 662 c 1
 76 665 l 1
 116.5 668 193.9 688 219 698 c 1
 225.3 698 228 695 228 688 c 0
 220.3 626.7 218 575 218 500 c 2
 218 438 l 1
 214 351 l 1
 218 349 l 1
 264 408 338 439 389 439 c 0
 479 439 518 381 518 291 c 2
 518 180 l 2
 518 104 519 57 528 0 c 1
 526 -3 l 1
 526 -3 499 0 465 0 c 0
 430 0 381 -3 381 -3 c 1
 380 0 l 1
 386 53 386 105 386 180 c 2
 386 269 l 2
 386 342 361 362 334 362 c 0
 298 362 256 332 218 282 c 1
 218 180 l 2
 218 104 219 57 224 0 c 1
 222 -3 l 1
 222 -3 189.3 0 155 0 c 0
 120 0 75 -3 75 -3 c 1
 74 0 l 1
 82.5 53.5 86 105 86 180 c 2
 86 474 l 2
EndSplineSet
LCarets2: 1 0 
Colour: ff00ff
EndChar

StartChar: uni1E26
Encoding: 7718 7718 167
Width: 764
VWidth: 999
Flags: HW
HStem: -3 21<91 175 175 259 539 623 623 707> 311 52<237 563> 628 20<91 175 175 259 539 623 623 707> 709 125<192.293 287.707 412.293 507.37>
VStem: 103 144<2.67992 642.32> 177 126<724.2 818.707> 397 126<725.191 817.706> 551 144<2.67992 642.32>
LayerCount: 2
Fore
SplineSet
397 771 m 0
 397 806 425 834 460 834 c 0
 494 834 523 806 523 771 c 0
 523 737 494 709 460 709 c 0
 425 709 397 737 397 771 c 0
177 771 m 0
 177 806 205 834 240 834 c 0
 275 834 303 806 303 771 c 0
 303 737 275 709 240 709 c 0
 205 709 177 737 177 771 c 0
527 445 m 2
 527 520 523 588 515 645 c 1
 517 648 l 1
 517 648 565 645 599 645 c 0
 634 645 682 648 682 648 c 1
 683 645 l 1
 675 592 671 520 671 445 c 2
 671 200 l 2
 671 125 675 57 683 0 c 1
 681 -3 l 1
 681 -3 633 0 599 0 c 0
 564 0 516 -3 516 -3 c 1
 515 0 l 1
 523 54 527 125 527 200 c 2
 527 311 l 1
 237 311 l 1
 237 200 l 2
 237 125 241 57 249 0 c 1
 247 -3 l 1
 247 -3 199 0 165 0 c 0
 130 0 82 -3 82 -3 c 1
 81 0 l 1
 89 54 93 125 93 200 c 2
 93 445 l 2
 93 520 89 588 81 645 c 1
 83 648 l 1
 83 648 131 645 165 645 c 0
 200 645 248 648 248 648 c 1
 249 645 l 1
 241 592 237 520 237 445 c 2
 237 363 l 1
 527 363 l 1
 527 445 l 2
EndSplineSet
LCarets2: 1 0 
Colour: ff00ff
EndChar

StartChar: uni1E27
Encoding: 7719 7719 168
Width: 606
VWidth: 999
Flags: HW
HStem: -3 21<74 155 155 224 380 465 465 528> 362 77<304.364 434> 527 91<215.053 290.947 352.053 428.653> 678 20<206.465 222.167>
VStem: 86 132<2.6647 307.95 351 659.981> 208 90<533.481 611.246> 345 91<534.053 610.653> 386 132<2.6647 348.673>
LayerCount: 2
Fore
SplineSet
345 572 m 0
 345 597 365 618 390 618 c 0
 415 618 436 597 436 572 c 0
 436 547 415 527 390 527 c 0
 365 527 345 547 345 572 c 0
86 474 m 2
 86 550 81.7 619.3 74 662 c 1
 76 665 l 1
 116.5 668 193.9 688 219 698 c 1
 225.3 698 228 695 228 688 c 0
 224.4 658.9 222 631.9 220.4 603.6 c 1
 228.6 612.4 240.1 618 253 618 c 0
 278 618 298 597 298 572 c 0
 298 547 278 527 253 527 c 0
 239 527 226.5 533.3 218.3 543.2 c 1
 218.1 529.6 218 515.3 218 500 c 2
 218 438 l 1
 214 351 l 1
 218 349 l 1
 264 408 338 439 389 439 c 0
 479 439 518 381 518 291 c 2
 518 180 l 2
 518 104 519 57 528 0 c 1
 526 -3 l 1
 526 -3 499 0 465 0 c 0
 430 0 381 -3 381 -3 c 1
 380 0 l 1
 386 53 386 105 386 180 c 2
 386 269 l 2
 386 342 361 362 334 362 c 0
 298 362 256 332 218 282 c 1
 218 180 l 2
 218 104 219 57 224 0 c 1
 222 -3 l 1
 222 -3 189.3 0 155 0 c 0
 120 0 75 -3 75 -3 c 1
 74 0 l 1
 82.5 53.5 86 105 86 180 c 2
 86 474 l 2
EndSplineSet
LCarets2: 1 0 
Colour: ff80cc
EndChar

StartChar: uni1E28
Encoding: 7720 7720 169
Width: 764
VWidth: 999
Flags: HW
HStem: -208 36.5<77.086 182.909> -3 21<91 175 175 259 539 623 623 707> 311 52<237 563> 628 20<91 175 175 259 539 623 623 707>
VStem: 103 144<2.67992 642.32> 187 62.9<-167.81 -105.416> 551 144<2.67992 642.32>
LayerCount: 2
Fore
SplineSet
527 445 m 2
 527 520 523 588 515 645 c 1
 517 648 l 1
 517 648 565 645 599 645 c 0
 634 645 682 648 682 648 c 1
 683 645 l 1
 675 592 671 520 671 445 c 2
 671 200 l 2
 671 125 675 57 683 0 c 1
 681 -3 l 1
 681 -3 633 0 599 0 c 0
 564 0 516 -3 516 -3 c 1
 515 0 l 1
 523 54 527 125 527 200 c 2
 527 311 l 1
 237 311 l 1
 237 200 l 2
 237 125 241 57 249 0 c 1
 247 -3 l 1
 247 -3 205.5 -0.4 172.4 -0 c 1
 157 -37 l 1
 202.4 -46.1 249.9 -61.5 249.9 -116.1 c 0
 249.9 -166.3 199.1 -208 134.3 -208 c 0
 102.3 -208 86.3 -200 69 -189 c 1
 69 -179 72.3 -167 82.3 -157.5 c 1
 109.3 -167.5 120.3 -171.5 140.3 -171.5 c 0
 170.3 -171.5 187 -163 187 -136 c 0
 187 -98.4 134 -94 98 -92 c 1
 92 -86 l 1
 137 -0.5 l 1
 108.8 -1.3 82 -3 82 -3 c 2
 81 0 l 1
 89 54 93 125 93 200 c 2
 93 445 l 2
 93 520 89 588 81 645 c 1
 83 648 l 1
 83 648 131 645 165 645 c 0
 200 645 248 648 248 648 c 1
 249 645 l 1
 241 592 237 520 237 445 c 2
 237 363 l 1
 527 363 l 1
 527 445 l 2
EndSplineSet
LCarets2: 1 0 
Colour: ff00ff
EndChar

StartChar: uni1E29
Encoding: 7721 7721 170
Width: 606
VWidth: 999
Flags: HW
HStem: -206 36.5<48.086 153.909> -3 21<74 155 155 224 380 465 465 528> 362 77<304.364 434> 678 20<206.465 222.167>
VStem: 86 132<2.6647 307.95 351 659.981> 158 62.9<-165.81 -103.416> 386 132<2.6647 348.673>
LayerCount: 2
Fore
SplineSet
69 -90 m 1
 63 -84 l 1
 106.5 -1.3 l 1
 88.5 -2.1 75 -3 75 -3 c 2
 74 0 l 1
 82.5 53.5 86 105 86 180 c 2
 86 474 l 2
 86 550 81.7 619.3 74 662 c 1
 76 665 l 1
 116.5 668 193.9 688 219 698 c 1
 225.3 698 228 695 228 688 c 0
 220.3 626.7 218 575 218 500 c 2
 218 438 l 1
 214 351 l 1
 218 349 l 1
 264 408 338 439 389 439 c 0
 479 439 518 381 518 291 c 2
 518 180 l 2
 518 104 519 57 528 0 c 1
 526 -3 l 1
 526 -3 499 0 465 0 c 0
 430 0 381 -3 381 -3 c 1
 380 0 l 1
 386 53 386 105 386 180 c 2
 386 269 l 2
 386 342 361 362 334 362 c 0
 298 362 256 332 218 282 c 1
 218 180 l 2
 218 104 219 57 224 0 c 1
 222 -3 l 1
 222 -3 189.3 0 155 0 c 0
 151 0 146.7 0 142.5 -0.1 c 1
 128 -35 l 1
 173.4 -44.1 220.9 -59.5 220.9 -114.1 c 0
 220.9 -164.3 170.1 -206 105.3 -206 c 0
 73.3 -206 57.3 -198 40 -187 c 1
 40 -177 43.3 -165 53.3 -155.5 c 1
 80.3 -165.5 91.3 -169.5 111.3 -169.5 c 0
 141.3 -169.5 158 -161 158 -134 c 0
 158 -96.4 105 -92 69 -90 c 1
EndSplineSet
LCarets2: 1 0 
Colour: ff00ff
EndChar

StartChar: uni1E2A
Encoding: 7722 7722 171
Width: 764
VWidth: 999
Flags: HW
HStem: -205 70<283.939 426.577> -3 21<91 175 175 259 539 623 623 707> 311 52<237 563> 628 20<91 175 175 259 539 623 623 707>
VStem: 103 144<2.67992 642.32> 216 33<-94.925 -58.818> 464 32<-93.842 -58.719> 551 144<2.67992 642.32>
LayerCount: 2
Fore
SplineSet
527 445 m 2
 527 520 523 588 515 645 c 1
 517 648 l 1
 517 648 565 645 599 645 c 0
 634 645 682 648 682 648 c 1
 683 645 l 1
 675 592 671 520 671 445 c 2
 671 200 l 2
 671 125 675 57 683 0 c 1
 681 -3 l 1
 681 -3 633 0 599 0 c 0
 564 0 516 -3 516 -3 c 1
 515 0 l 1
 523 54 527 125 527 200 c 2
 527 311 l 1
 237 311 l 1
 237 200 l 2
 237 125 241 57 249 0 c 1
 247 -3 l 1
 247 -3 199 0 165 0 c 0
 130 0 82 -3 82 -3 c 1
 81 0 l 1
 89 54 93 125 93 200 c 2
 93 445 l 2
 93 520 89 588 81 645 c 1
 83 648 l 1
 83 648 131 645 165 645 c 0
 200 645 248 648 248 648 c 1
 249 645 l 1
 241 592 237 520 237 445 c 2
 237 363 l 1
 527 363 l 1
 527 445 l 2
250 -67 m 1
 266 -125.5 303 -145 357 -145 c 0
 409.5 -145 452 -122.5 463 -67 c 1
 496 -67 l 1
 491 -170 428 -221 357 -221 c 0
 287 -221 222.5 -172.5 217 -67 c 1
 250 -67 l 1
EndSplineSet
LCarets2: 1 0 
Colour: ff00ff
EndChar

StartChar: uni1E2B
Encoding: 7723 7723 172
Width: 606
VWidth: 999
Flags: HW
HStem: -215 70<218.939 361.577> -3 21<74 155 155 224 380 465 465 528> 362 77<304.364 434> 678 20<206.465 222.167>
VStem: 86 132<2.6647 307.95 351 659.981> 151 33<-104.925 -68.818> 386 132<2.6647 348.673> 399 32<-103.842 -68.719>
LayerCount: 2
Fore
SplineSet
185 -77 m 1
 201 -135.5 238 -155 292 -155 c 0
 344.5 -155 387 -132.5 398 -77 c 1
 431 -77 l 1
 426 -180 363 -231 292 -231 c 0
 222 -231 157.5 -182.5 152 -77 c 1
 185 -77 l 1
86 474 m 2
 86 550 81.7 619.3 74 662 c 1
 76 665 l 1
 116.5 668 193.9 688 219 698 c 1
 225.3 698 228 695 228 688 c 0
 220.3 626.7 218 575 218 500 c 2
 218 438 l 1
 214 351 l 1
 218 349 l 1
 264 408 338 439 389 439 c 0
 479 439 518 381 518 291 c 2
 518 180 l 2
 518 104 519 57 528 0 c 1
 526 -3 l 1
 526 -3 499 0 465 0 c 0
 430 0 381 -3 381 -3 c 1
 380 0 l 1
 386 53 386 105 386 180 c 2
 386 269 l 2
 386 342 361 362 334 362 c 0
 298 362 256 332 218 282 c 1
 218 180 l 2
 218 104 219 57 224 0 c 1
 222 -3 l 1
 222 -3 189.3 0 155 0 c 0
 120 0 75 -3 75 -3 c 1
 74 0 l 1
 82.5 53.5 86 105 86 180 c 2
 86 474 l 2
EndSplineSet
Colour: ff00ff
EndChar

StartChar: uni1E2C
Encoding: 7724 7724 173
Width: 330
VWidth: 999
Flags: HW
HStem: -177 66<178.778 265.61> -125 67<56.1606 148.179> -3 21<94 178 178 262> 628 20<94 178 178 262>
VStem: 10 36<-168.361 -138.491> 106 144<2.67992 642.32> 281 36<-91.908 -64.25>
LayerCount: 2
Fore
SplineSet
232 -99 m 0
 253 -99 268 -93 281 -57 c 1
 313 -66 l 1
 299 -130 264 -173 213 -173 c 0
 170.9 -173 135.1 -131 95 -131 c 0
 66 -131 54 -143 46 -174 c 1
 13 -167 l 1
 28 -103 59 -58 107 -58 c 0
 156.7 -58 183.5 -99 232 -99 c 0
93 445 m 2
 93 520 89 588 81 645 c 1
 83 648 l 1
 83 648 131 645 165 645 c 0
 200 645 248 648 248 648 c 1
 249 645 l 1
 241 592 237 520 237 445 c 2
 237 200 l 2
 237 125 241 57 249 0 c 1
 247 -3 l 1
 247 -3 199 0 165 0 c 0
 130 0 82 -3 82 -3 c 1
 81 0 l 1
 89 54 93 125 93 200 c 2
 93 445 l 2
EndSplineSet
LCarets2: 1 0 
Colour: ff00ff
EndChar

StartChar: uni1E2D
Encoding: 7725 7725 174
Width: 312
VWidth: 999
Flags: HW
HStem: -177 66<171.778 258.61> -125 67<49.1606 141.179> -3 21<80 97 215 232> 412 20<80 92.2366 216.006 226> 536 142<101.5 210.5>
VStem: 3 36<-168.361 -138.491> 90 132<2.6647 421.154> 274 36<-91.908 -64.25>
LayerCount: 2
Fore
SplineSet
225 -99 m 0
 246 -99 261 -93 274 -57 c 1
 306 -66 l 1
 292 -130 257 -173 206 -173 c 0
 163.9 -173 128.1 -131 88 -131 c 0
 59 -131 47 -143 39 -174 c 1
 6 -167 l 1
 21 -103 52 -58 100 -58 c 0
 149.7 -58 176.5 -99 225 -99 c 0
85 607 m 0
 85 645 116 676 156 676 c 0
 196 676 227 645 227 607 c 0
 227 569 196 538 156 538 c 0
 116 538 85 569 85 607 c 0
90 235 m 2
 90 310 88 385 80 428 c 1
 83 432 l 1
 100.7 430.7 128 429 154 429 c 0
 182 429 209.3 432 223 434 c 0
 229 434 232 431 232 424 c 0
 225.7 364 222 321 222 246 c 2
 222 180 l 2
 222 104 224 57 232 0 c 1
 230 -3 l 1
 211.3 -1 190 0 156 0 c 0
 121 0 102.7 -0.7 82 -3 c 1
 80 0 l 1
 88 54 90 105 90 180 c 2
 90 235 l 2
EndSplineSet
LCarets2: 1 0 
Colour: ff00ff
EndChar

StartChar: uni1E2E
Encoding: 7726 7726 175
Width: 330
VWidth: 999
Flags: HW
HStem: -3 21<94 178 178 262> 628 20<94 178 178 262> 726 125<12.293 107.707 232.293 327.37> 891.6 130.2
VStem: -3 126<741.2 835.707> 106 144<2.67992 642.32> 108.1 164.8 217 126<742.191 834.706>
LayerCount: 2
Fore
SplineSet
229 1021.8 m 1
 250.1 1005.3 266 976.1 272.9 950.6 c 1
 267.5 938.3 l 1
 150.4 899.5 l 2
 133.3 893.8 126.6 891.6 120.4 891.6 c 0
 114.2 891.6 108.1 905.7 108.1 913.6 c 0
 108.1 919.8 109.5 926.6 119.6 934.7 c 2
 229 1021.8 l 1
217 788 m 0
 217 823 245 851 280 851 c 0
 314 851 343 823 343 788 c 0
 343 754 314 726 280 726 c 0
 245 726 217 754 217 788 c 0
-3 788 m 0
 -3 823 25 851 60 851 c 0
 95 851 123 823 123 788 c 0
 123 754 95 726 60 726 c 0
 25 726 -3 754 -3 788 c 0
93 445 m 2
 93 520 89 588 81 645 c 1
 83 648 l 1
 83 648 131 645 165 645 c 0
 200 645 248 648 248 648 c 1
 249 645 l 1
 241 592 237 520 237 445 c 2
 237 200 l 2
 237 125 241 57 249 0 c 1
 247 -3 l 1
 247 -3 199 0 165 0 c 0
 130 0 82 -3 82 -3 c 1
 81 0 l 1
 89 54 93 125 93 200 c 2
 93 445 l 2
EndSplineSet
LCarets2: 1 0 
Colour: ff00ff
EndChar

StartChar: uni1E2F
Encoding: 7727 7727 176
Width: 343
VWidth: 999
Flags: HW
HStem: -3 21<80 92.3333 220.667 232> 412 20<80 91.8333 216.167 226> 509 125<8.1072 101.707 217.293 310.893> 563.2 150.5
VStem: -7 124<524.537 618.707> 90 132<2.6647 421.2> 107.7 141.7 202 124<524.537 618.707>
LayerCount: 2
Fore
SplineSet
177.8 711.9 m 1
 180.1 712.8 186.2 713.7 190.1 713.7 c 0
 213.2 713.7 235.5 701.3 241.7 692.5 c 1
 249.4 672.3 l 1
 157 577.2 l 2
 146.2 566.6 131.6 563.2 123.9 563.2 c 0
 122.2 563.2 120.1 563.7 118.1 564.6 c 1
 106.2 548.6 87 538 65 538 c 0
 30 538 1 568 1 603 c 0
 1 640 30 669 65 669 c 0
 95.2 669 120.1 649.6 128.2 622.4 c 1
 177.8 711.9 l 1
210 603 m 0
 210 640 239 669 276 669 c 0
 311 669 340 640 340 603 c 0
 340 568 311 538 276 538 c 0
 239 538 210 568 210 603 c 0
102 235 m 2
 102 310 100 385 92 428 c 1
 95 432 l 1
 112.7 430.7 140 429 166 429 c 0
 194 429 221.3 432 235 434 c 0
 241 434 244 431 244 424 c 0
 237.7 364 234 321 234 246 c 2
 234 180 l 2
 234 104 236 57 244 0 c 1
 242 -3 l 1
 223.3 -1 202 0 168 0 c 0
 133 0 114.7 -0.7 94 -3 c 1
 92 0 l 1
 100 54 102 105 102 180 c 2
 102 235 l 2
EndSplineSet
LCarets2: 1 0 
Colour: ff00ff
EndChar

StartChar: uni1E30
Encoding: 7728 7728 177
Width: 712
VWidth: 999
Flags: HW
HStem: -3 21<94 178 178 262 478 531.5 698.746 707.5> 4 37<364.007 415.937 464.168 516.988> 319 35<243 268.714> 628 20<94 178 178 262 492.5 543.5 663 699>
VStem: 106 144<2.67992 642.32> 385 55<-58.381 -17.172> 418 43<13.026 83.9824> 440 56<-56.148 -17.036>
LayerCount: 2
Fore
SplineSet
431 0 m 1
 425 1 418 4 411 4 c 0
 405 4 399 1 387 1 c 0
 374 1 364 6 364 23 c 0
 364 31 369 41 382 41 c 0
 401 41 410 23 434 12 c 1
 432 34 418 49 418 63 c 0
 418 74 429 84 439 84 c 0
 440.7 84 442.4 83.8 444.1 83.5 c 1
 368.7 179.2 290.2 280.8 259 312 c 0
 253 317 240 319 237 319 c 1
 237 200 l 2
 237 125 241 57 249 0 c 1
 247 -3 l 1
 247 -3 199 0 165 0 c 0
 130 0 82 -3 82 -3 c 1
 81 0 l 1
 89 54 93 125 93 200 c 2
 93 445 l 2
 93 520 89 588 81 645 c 1
 83 648 l 1
 83 648 131 645 165 645 c 0
 200 645 248 648 248 648 c 1
 249 645 l 1
 241 592 237 520 237 445 c 2
 237 354 l 2
 237.3 354 237.7 354 238 354 c 0
 242 354 254 356 262 363 c 0
 350 440 438 546 527 648 c 1
 540 645 593 645 606 645 c 0
 621 645 681 645 697 648 c 1
 609 571 451 433 383 354 c 1
 383 352 l 1
 707 -3 l 1
 688 0 624 0 605 0 c 0
 588 0 530 0 513 -3 c 1
 510.6 -0.0999999 508.2 2.9 505.8 5.9 c 1
 499.1 2.5 489.9 1 480 1 c 0
 469 1 460 2 450 0 c 1
 469 -20 496 -18 496 -47 c 0
 496 -57 486 -63 478 -63 c 0
 452 -63 453 -30 440 -8 c 1
 427 -32 434 -63 401 -63 c 0
 392 -63 385 -56 385 -47 c 0
 385 -17 413 -21 431 0 c 1
460.9 62.2 m 1
 459.5 47.4 447.9 27 447 12 c 1
 463.2 19.4 471.7 30.5 481 36.9 c 1
 474.4 45.2 467.7 53.6 460.9 62.2 c 1
EndSplineSet
LCarets2: 1 0 
Colour: ff00ff
EndChar

StartChar: uni1E31
Encoding: 7729 7729 178
Width: 582
VWidth: 999
Flags: HW
HStem: -3 21<69 147 147 225 362.525 405.667 577.5 584> 207 34<208 242.571> 412 20<551.5 563> 470 171 678 20<201.465 217.167>
VStem: 81 132<2.67975 659.981> 248 184
LayerCount: 2
Fore
SplineSet
339 639 m 1
 342 640 350 641 355 641 c 0
 385 641 414 627 422 617 c 1
 432 594 l 1
 312 486 l 2
 298 474 279 470 269 470 c 0
 261 470 248 478 248 484 c 0
 248 490 250 499 256 508 c 2
 339 639 l 1
86 200 m 2
 86 474 l 2
 86 550 81.7 619.3 74 662 c 1
 76 665 l 1
 116.5 668 193.9 688 219 698 c 1
 225.3 698 230 695 230 688 c 0
 222.3 626.7 218 575 218 500 c 2
 218 249.6 l 1
 231.7 251.2 252.7 256.1 263 264 c 0
 302.6 294.5 356 364 395 429 c 1
 422 429 533 429 552 432 c 1
 554 429 l 1
 472.9 367.9 388.5 293 352 252 c 1
 447 136.5 500.6 78.6 575 0 c 1
 573 -3 l 1
 564 -1.2 485.7 0 469 0 c 0
 452 0 404.3 -1.2 389 -3 c 1
 335.9 92.9 305.9 136.9 244 206 c 0
 237.7 211.6 226.5 213.8 218 214.6 c 1
 218 200 l 2
 218 124.8 221.5 57 230 0 c 1
 228 -3 l 1
 228 -3 186.3 0 152 0 c 0
 117 0 75 -3 75 -3 c 1
 74 0 l 1
 82.5 53.5 86 125 86 200 c 2
EndSplineSet
LCarets2: 1 0 
Colour: ff00ff
EndChar

StartChar: uni1E32
Encoding: 7730 7730 179
Width: 712
VWidth: 999
Flags: HW
HStem: -219 142<270.5 379.5> -3 21<94 178 178 262 478 531.5 698.746 707.5> 319 35<243 268.714> 628 20<94 178 178 262 492.5 543.5 663 699>
VStem: 106 144<2.67992 642.32> 250 150<-198.5 -97.5>
LayerCount: 2
Fore
SplineSet
254 -148 m 0
 254 -110 285 -79 325 -79 c 0
 365 -79 396 -110 396 -148 c 0
 396 -186 365 -217 325 -217 c 0
 285 -217 254 -186 254 -148 c 0
93 445 m 2
 93 520 89 588 81 645 c 1
 83 648 l 1
 83 648 131 645 165 645 c 0
 200 645 248 648 248 648 c 1
 249 645 l 1
 241 592 237 520 237 445 c 2
 237 354 l 2
 237.3 354 237.7 354 238 354 c 0
 242 354 254 356 262 363 c 0
 350 440 438 546 527 648 c 1
 540 645 593 645 606 645 c 0
 621 645 681 645 697 648 c 1
 609 571 451 433 383 354 c 1
 383 352 l 1
 707 -3 l 1
 688 0 624 0 605 0 c 0
 588 0 530 0 513 -3 c 1
 423 108 300 271 259 312 c 0
 253 317 240 319 237 319 c 1
 237 200 l 2
 237 125 241 57 249 0 c 1
 247 -3 l 1
 247 -3 199 0 165 0 c 0
 130 0 82 -3 82 -3 c 1
 81 0 l 1
 89 54 93 125 93 200 c 2
 93 445 l 2
EndSplineSet
LCarets2: 1 0 
Colour: ff00ff
EndChar

StartChar: uni1E33
Encoding: 7731 7731 180
Width: 582
VWidth: 999
Flags: HW
HStem: -219 142<196.5 305.5> -3 21<69 147 147 225 362.525 405.667 577.5 584> 207 34<208 242.571> 412 20<551.5 563> 678 20<201.465 217.167>
VStem: 81 132<2.67975 659.981> 176 150<-198.5 -97.5>
LayerCount: 2
Fore
SplineSet
180 -148 m 0
 180 -110 211 -79 251 -79 c 0
 291 -79 322 -110 322 -148 c 0
 322 -186 291 -217 251 -217 c 0
 211 -217 180 -186 180 -148 c 0
86 200 m 2
 86 474 l 2
 86 550 81.7 619.3 74 662 c 1
 76 665 l 1
 116.5 668 193.9 688 219 698 c 1
 225.3 698 230 695 230 688 c 0
 222.3 626.7 218 575 218 500 c 2
 218 249.6 l 1
 231.7 251.2 252.7 256.1 263 264 c 0
 302.6 294.5 356 364 395 429 c 1
 422 429 533 429 552 432 c 1
 554 429 l 1
 472.9 367.9 388.5 293 352 252 c 1
 447 136.5 500.6 78.6 575 0 c 1
 573 -3 l 1
 564 -1.2 485.7 0 469 0 c 0
 452 0 404.3 -1.2 389 -3 c 1
 335.9 92.9 305.9 136.9 244 206 c 0
 237.7 211.6 226.5 213.8 218 214.6 c 1
 218 200 l 2
 218 124.8 221.5 57 230 0 c 1
 228 -3 l 1
 228 -3 186.3 0 152 0 c 0
 117 0 75 -3 75 -3 c 1
 74 0 l 1
 82.5 53.5 86 125 86 200 c 2
EndSplineSet
LCarets2: 1 0 
Colour: ff00ff
EndChar

StartChar: uni1E34
Encoding: 7732 7732 181
Width: 712
VWidth: 999
Flags: HW
HStem: -106 44<200 211 211 478> -3 21<94 178 178 262 478 531.5 698.746 707.5> 319 35<243 268.714> 628 20<94 178 178 262 492.5 543.5 663 699>
VStem: 106 144<2.67992 642.32>
LayerCount: 2
Fore
SplineSet
456 -106 m 2
 211 -106 l 2
 203 -106 199 -98 199 -91 c 0
 199 -79 209 -62 221 -62 c 2
 466 -62 l 2
 475 -62 479 -69 479 -76 c 0
 479 -88 469 -106 456 -106 c 2
93 445 m 2
 93 520 89 588 81 645 c 1
 83 648 l 1
 83 648 131 645 165 645 c 0
 200 645 248 648 248 648 c 1
 249 645 l 1
 241 592 237 520 237 445 c 2
 237 354 l 2
 237.3 354 237.7 354 238 354 c 0
 242 354 254 356 262 363 c 0
 350 440 438 546 527 648 c 1
 540 645 593 645 606 645 c 0
 621 645 681 645 697 648 c 1
 609 571 451 433 383 354 c 1
 383 352 l 1
 707 -3 l 1
 688 0 624 0 605 0 c 0
 588 0 530 0 513 -3 c 1
 423 108 300 271 259 312 c 0
 253 317 240 319 237 319 c 1
 237 200 l 2
 237 125 241 57 249 0 c 1
 247 -3 l 1
 247 -3 199 0 165 0 c 0
 130 0 82 -3 82 -3 c 1
 81 0 l 1
 89 54 93 125 93 200 c 2
 93 445 l 2
EndSplineSet
LCarets2: 1 0 
Colour: ff00ff
EndChar

StartChar: uni1E35
Encoding: 7733 7733 182
Width: 582
VWidth: 999
Flags: HW
HStem: -107 44<124 135 135 402> -3 21<69 147 147 225 362.525 405.667 577.5 584> 207 34<208 242.571> 412 20<551.5 563> 678 20<201.465 217.167>
VStem: 81 132<2.67975 659.981>
LayerCount: 2
Fore
SplineSet
380 -107 m 2
 135 -107 l 2
 127 -107 123 -99 123 -92 c 0
 123 -80 133 -63 145 -63 c 2
 390 -63 l 2
 399 -63 403 -70 403 -77 c 0
 403 -89 393 -107 380 -107 c 2
86 200 m 2
 86 474 l 2
 86 550 81.7 619.3 74 662 c 1
 76 665 l 1
 116.5 668 193.9 688 219 698 c 1
 225.3 698 230 695 230 688 c 0
 222.3 626.7 218 575 218 500 c 2
 218 249.6 l 1
 231.7 251.2 252.7 256.1 263 264 c 0
 302.6 294.5 356 364 395 429 c 1
 422 429 533 429 552 432 c 1
 554 429 l 1
 472.9 367.9 388.5 293 352 252 c 1
 447 136.5 500.6 78.6 575 0 c 1
 573 -3 l 1
 564 -1.2 485.7 0 469 0 c 0
 452 0 404.3 -1.2 389 -3 c 1
 335.9 92.9 305.9 136.9 244 206 c 0
 237.7 211.6 226.5 213.8 218 214.6 c 1
 218 200 l 2
 218 124.8 221.5 57 230 0 c 1
 228 -3 l 1
 228 -3 186.3 0 152 0 c 0
 117 0 75 -3 75 -3 c 1
 74 0 l 1
 82.5 53.5 86 125 86 200 c 2
EndSplineSet
LCarets2: 1 0 
Colour: ff00ff
EndChar

StartChar: uni1E36
Encoding: 7734 7734 183
Width: 588
VWidth: 999
Flags: HW
HStem: -219 142<221.5 330.5> 0 81<251.435 501.657> 628 20<92 173 173 257>
VStem: 103 144<82.6682 642.32> 201 150<-198.5 -97.5>
LayerCount: 2
Fore
SplineSet
205 -148 m 0
 205 -110 236 -79 276 -79 c 0
 316 -79 347 -110 347 -148 c 0
 347 -186 316 -217 276 -217 c 0
 236 -217 205 -186 205 -148 c 0
247 210 m 2
 247 193 248 105 255 81 c 1
 389 81 541 103 541 103 c 1
 543 99 l 1
 542 91 541 52 541 42 c 0
 541 32 542 14 543 0 c 1
 541 -3 l 1
 525 -1 502 0 481 0 c 2
 177 0 l 2
 143 0 94 -3 94 -3 c 1
 93 0 l 1
 101 54 103 125 103 200 c 2
 103 445 l 2
 103 520 100 588 92 645 c 1
 94 648 l 1
 94 648 139 645 173 645 c 0
 208 645 256 648 256 648 c 1
 257 645 l 1
 249 592 247 520 247 445 c 2
 247 210 l 2
EndSplineSet
LCarets2: 1 0 
Colour: ff00ff
EndChar

StartChar: uni1E37
Encoding: 7735 7735 184
Width: 304
VWidth: 999
Flags: HW
HStem: -219 142<66.5 175.5> -3 21<74 152 152 230> 678 20<206.465 222.167>
VStem: 46 150<-198.5 -97.5> 86 132<2.67975 659.981>
LayerCount: 2
Fore
SplineSet
86 200 m 2
 86 474 l 2
 86 550 81.7 619.3 74 662 c 1
 76 665 l 1
 116.5 668 193.9 688 219 698 c 1
 225.3 698 230 695 230 688 c 0
 222.3 626.7 218 575 218 500 c 2
 218 200 l 2
 218 124.8 221.5 57 230 0 c 1
 228 -3 l 1
 228 -3 186.3 0 152 0 c 0
 117 0 75 -3 75 -3 c 1
 74 0 l 1
 82.5 53.5 86 125 86 200 c 2
50 -148 m 0
 50 -110 81 -79 121 -79 c 0
 161 -79 192 -110 192 -148 c 0
 192 -186 161 -217 121 -217 c 0
 81 -217 50 -186 50 -148 c 0
EndSplineSet
LCarets2: 1 0 
Colour: ff00ff
EndChar

StartChar: uni1E38
Encoding: 7736 7736 185
Width: 588
VWidth: 999
Flags: HW
HStem: -219 142<221.5 330.5> 0 81<251.435 501.657> 628 20<92 173 173 257> 725 60<8.837 316.084>
VStem: 5 315<725.849 784.524> 103 144<82.6682 642.32> 201 150<-198.5 -97.5>
LayerCount: 2
Fore
SplineSet
294 725 m 2
 20 725 l 2
 9 725 5 739 5 748 c 0
 5 760 17 785 30 785 c 2
 306 785 l 2
 316 785 320 771 320 763 c 0
 320 750 308 725 294 725 c 2
205 -148 m 0
 205 -110 236 -79 276 -79 c 0
 316 -79 347 -110 347 -148 c 0
 347 -186 316 -217 276 -217 c 0
 236 -217 205 -186 205 -148 c 0
247 210 m 2
 247 193 248 105 255 81 c 1
 389 81 541 103 541 103 c 1
 543 99 l 1
 542 91 541 52 541 42 c 0
 541 32 542 14 543 0 c 1
 541 -3 l 1
 525 -1 502 0 481 0 c 2
 177 0 l 2
 143 0 94 -3 94 -3 c 1
 93 0 l 1
 101 54 103 125 103 200 c 2
 103 445 l 2
 103 520 100 588 92 645 c 1
 94 648 l 1
 94 648 139 645 173 645 c 0
 208 645 256 648 256 648 c 1
 257 645 l 1
 249 592 247 520 247 445 c 2
 247 210 l 2
EndSplineSet
LCarets2: 1 0 
Colour: ff00ff
EndChar

StartChar: uni1E39
Encoding: 7737 7737 186
Width: 304
VWidth: 999
Flags: HW
HStem: -219 142<66.5 175.5> -3 21<74 152 152 230> 678 20<206.465 222.167> 748 60<-27.163 280.084>
VStem: -31 315<748.849 807.524> 46 150<-198.5 -97.5> 86 132<2.67975 659.981>
LayerCount: 2
Fore
SplineSet
86 200 m 2
 86 474 l 2
 86 550 81.7 619.3 74 662 c 1
 76 665 l 1
 116.5 668 193.9 688 219 698 c 1
 225.3 698 230 695 230 688 c 0
 222.3 626.7 218 575 218 500 c 2
 218 200 l 2
 218 124.8 221.5 57 230 0 c 1
 228 -3 l 1
 228 -3 186.3 0 152 0 c 0
 117 0 75 -3 75 -3 c 1
 74 0 l 1
 82.5 53.5 86 125 86 200 c 2
50 -148 m 0
 50 -110 81 -79 121 -79 c 0
 161 -79 192 -110 192 -148 c 0
 192 -186 161 -217 121 -217 c 0
 81 -217 50 -186 50 -148 c 0
258 748 m 2
 -16 748 l 2
 -27 748 -31 762 -31 771 c 0
 -31 783 -19 808 -6 808 c 2
 270 808 l 2
 280 808 284 794 284 786 c 0
 284 773 272 748 258 748 c 2
EndSplineSet
LCarets2: 1 0 
Colour: ff00ff
EndChar

StartChar: uni1E3A
Encoding: 7738 7738 187
Width: 588
VWidth: 999
Flags: HW
HStem: -112 44<132 143 143 410> 0 81<251.435 501.657> 628 20<92 173 173 257>
VStem: 103 144<82.6682 642.32>
LayerCount: 2
Fore
SplineSet
388 -112 m 2
 143 -112 l 2
 135 -112 131 -104 131 -97 c 0
 131 -85 141 -68 153 -68 c 2
 398 -68 l 2
 407 -68 411 -75 411 -82 c 0
 411 -94 401 -112 388 -112 c 2
247 210 m 2
 247 193 248 105 255 81 c 1
 389 81 541 103 541 103 c 1
 543 99 l 1
 542 91 541 52 541 42 c 0
 541 32 542 14 543 0 c 1
 541 -3 l 1
 525 -1 502 0 481 0 c 2
 177 0 l 2
 143 0 94 -3 94 -3 c 1
 93 0 l 1
 101 54 103 125 103 200 c 2
 103 445 l 2
 103 520 100 588 92 645 c 1
 94 648 l 1
 94 648 139 645 173 645 c 0
 208 645 256 648 256 648 c 1
 257 645 l 1
 249 592 247 520 247 445 c 2
 247 210 l 2
EndSplineSet
LCarets2: 1 0 
Colour: ff00ff
EndChar

StartChar: uni1E3B
Encoding: 7739 7739 188
Width: 304
VWidth: 999
Flags: HW
HStem: -112 44<-19 -8 -8 259> -3 21<74 152 152 230> 678 20<206.465 222.167>
VStem: 86 132<2.67975 659.981>
LayerCount: 2
Fore
SplineSet
86 200 m 2
 86 474 l 2
 86 550 81.7 619.3 74 662 c 1
 76 665 l 1
 116.5 668 193.9 688 219 698 c 1
 225.3 698 230 695 230 688 c 0
 222.3 626.7 218 575 218 500 c 2
 218 200 l 2
 218 124.8 221.5 57 230 0 c 1
 228 -3 l 1
 228 -3 186.3 0 152 0 c 0
 117 0 75 -3 75 -3 c 1
 74 0 l 1
 82.5 53.5 86 125 86 200 c 2
237 -112 m 2
 -8 -112 l 2
 -16 -112 -20 -104 -20 -97 c 0
 -20 -85 -10 -68 2 -68 c 2
 247 -68 l 2
 256 -68 260 -75 260 -82 c 0
 260 -94 250 -112 237 -112 c 2
EndSplineSet
LCarets2: 1 0 
Colour: ff00ff
EndChar

StartChar: uni1E3C
Encoding: 7740 7740 189
Width: 588
VWidth: 999
Flags: HW
HStem: 0 81<251.435 501.657> 628 20<92 173 173 257>
VStem: 103 144<82.6682 642.32> 155 253<-186 -186>
LayerCount: 2
Fore
SplineSet
388 -232 m 1
 361 -256 l 1
 313 -233 281 -206 243 -169 c 1
 201 -208 169.5 -234 126 -256 c 1
 99 -232 l 1
 145.5 -185 194 -125 227 -76 c 1
 261 -76 l 1
 298.5 -131 339.5 -183.5 388 -232 c 1
247 210 m 2
 247 193 248 105 255 81 c 1
 389 81 541 103 541 103 c 1
 543 99 l 1
 542 91 541 52 541 42 c 0
 541 32 542 14 543 0 c 1
 541 -3 l 1
 525 -1 502 0 481 0 c 2
 177 0 l 2
 143 0 94 -3 94 -3 c 1
 93 0 l 1
 101 54 103 125 103 200 c 2
 103 445 l 2
 103 520 100 588 92 645 c 1
 94 648 l 1
 94 648 139 645 173 645 c 0
 208 645 256 648 256 648 c 1
 257 645 l 1
 249 592 247 520 247 445 c 2
 247 210 l 2
EndSplineSet
LCarets2: 1 0 
Colour: ff00ff
EndChar

StartChar: uni1E3D
Encoding: 7741 7741 190
Width: 304
VWidth: 999
Flags: HW
HStem: -3 21<74 152 152 230> 678 20<206.465 222.167>
VStem: -4 253<-186 -186> 86 132<2.67975 659.981>
LayerCount: 2
Fore
SplineSet
86 200 m 2
 86 474 l 2
 86 550 81.7 619.3 74 662 c 1
 76 665 l 1
 116.5 668 193.9 688 219 698 c 1
 225.3 698 230 695 230 688 c 0
 222.3 626.7 218 575 218 500 c 2
 218 200 l 2
 218 124.8 221.5 57 230 0 c 1
 228 -3 l 1
 228 -3 186.3 0 152 0 c 0
 117 0 75 -3 75 -3 c 1
 74 0 l 1
 82.5 53.5 86 125 86 200 c 2
229 -232 m 1
 202 -256 l 1
 154 -233 122 -206 84 -169 c 1
 42 -208 10.5 -234 -33 -256 c 1
 -60 -232 l 1
 -13.5 -185 35 -125 68 -76 c 1
 102 -76 l 1
 139.5 -131 180.5 -183.5 229 -232 c 1
EndSplineSet
LCarets2: 1 0 
Colour: ff00ff
EndChar

StartChar: uni1E3E
Encoding: 7742 7742 191
Width: 921
Flags: HW
HStem: -3 21<46.5 59.5 132.5 138.487 372.88 499.552 743.173 757.5 874.5 882.5> 822 148
VStem: 275 214
LayerCount: 2
Fore
SplineSet
161 653 m 1
 263 653 l 1
 322.9 492 380.9 346 459 188 c 1
 463 188 l 1
 713 653 l 1
 802 653 l 1
 828 407 850 214 881 -3 c 1
 866 0 823 0 808 0 c 0
 793 0 745 0 730 -3 c 1
 716 163 703 312 684 470 c 1
 681 470 l 1
 596.9 316.5 516 166 443 0 c 1
 379 0 l 1
 325.9 149.5 261.9 309 189 469 c 1
 186 470 l 1
 159.9 314.5 134.9 102.5 131 -3 c 1
 120 0 86 0 75 0 c 0
 63 0 40 0 29 -3 c 1
 71.9 188 124.9 439 161 653 c 1
432 970 m 1
 459.4 951.3 480 918 489 889 c 1
 482 875.1 l 1
 330 831 l 2
 307.8 824.6 299.1 822 291 822 c 0
 282.9 822 275 838 275 847 c 0
 275 854 276.8 861.8 290 871 c 2
 432 970 l 1
EndSplineSet
LCarets2: 1 0 
Colour: ff00ff
EndChar

StartChar: uni1E3F
Encoding: 7743 7743 192
Width: 892
VWidth: 999
Flags: HW
HStem: -3 21<68 146 146 222 365 446 446 521 660 741 741 816> 362 77<295.113 410.324 576.6 713.201> 470 171
VStem: 80 132<2.6647 303.408> 289 184 377 132<2.6647 297.443> 672 132<2.6647 347.031>
LayerCount: 2
Fore
SplineSet
380 639 m 1
 383 640 391 641 396 641 c 0
 426 641 455 627 463 617 c 1
 473 594 l 1
 353 486 l 2
 339 474 320 470 310 470 c 0
 302 470 289 478 289 484 c 0
 289 490 291 499 297 508 c 2
 380 639 l 1
216 349 m 1
 254 398 316 439 365 439 c 0
 454.6 439 482 409 502 359 c 1
 559 419 611 439 661 439 c 0
 769 439 804 380 804 280 c 2
 804 180 l 2
 804 104 808 57 816 0 c 1
 814 -3 l 1
 814 -3 775 0 741 0 c 0
 706 0 661 -3 661 -3 c 1
 660 0 l 1
 668 54 672 105 672 180 c 2
 672 273 l 2
 672 340 649 362 617 362 c 0
 578 362 556 351 508 298 c 1
 509 286 509 282 509 268 c 2
 509 180 l 2
 509 104 513 57 521 0 c 1
 519 -3 l 1
 519 -3 480 0 446 0 c 0
 411 0 366 -3 366 -3 c 1
 365 0 l 1
 373 54 377 105 377 180 c 2
 377 281 l 2
 377 348 356 362 318 362 c 0
 290 362 254 332 212 281 c 1
 212 180 l 2
 212 104 214 57 222 0 c 1
 220 -3 l 1
 220 -3 180 0 146 0 c 0
 111 0 69 -3 69 -3 c 1
 68 0 l 1
 76 54 80 105 80 180 c 2
 80 235 l 2
 80 309.7 76.7 386.3 69 429 c 1
 71 432 l 1
 106 430.3 171 430.3 200 435 c 1
 206.3 435 207.8 431.9 209 425 c 0
 210.5 416.5 211.8 374.8 211.8 352 c 1
 216 349 l 1
EndSplineSet
LCarets2: 1 0 
Colour: ff00ff
EndChar

StartChar: uni1E40
Encoding: 7744 7744 193
Width: 921
VWidth: 999
Flags: HW
HStem: -3 21<46.5 59.5 132.5 138.487 372.88 499.552 743.173 757.5 874.5 882.5> 641 142<369.5 478.5>
VStem: 349 150<661.5 762.5>
LayerCount: 2
Fore
SplineSet
353 712 m 0
 353 750 384 781 424 781 c 0
 464 781 495 750 495 712 c 0
 495 674 464 643 424 643 c 0
 384 643 353 674 353 712 c 0
161 653 m 1
 263 653 l 1
 322.9 492 380.9 346 459 188 c 1
 463 188 l 1
 713 653 l 1
 802 653 l 1
 828 407 850 214 881 -3 c 1
 866 0 823 0 808 0 c 0
 793 0 745 0 730 -3 c 1
 716 163 703 312 684 470 c 1
 681 470 l 1
 596.9 316.5 516 166 443 0 c 1
 379 0 l 1
 325.9 149.5 261.9 309 189 469 c 1
 186 470 l 1
 159.9 314.5 134.9 102.5 131 -3 c 1
 120 0 86 0 75 0 c 0
 63 0 40 0 29 -3 c 1
 71.9 188 124.9 439 161 653 c 1
EndSplineSet
LCarets2: 1 0 
Colour: ff00ff
EndChar

StartChar: uni1E41
Encoding: 7745 7745 194
Width: 892
VWidth: 999
Flags: HW
HStem: -3 21<68 146 146 222 365 446 446 521 660 741 741 816> 362 77<295.113 410.324 576.6 713.201> 469 142<312.5 421.5>
VStem: 80 132<2.6647 303.408> 292 150<489.5 590.5> 377 132<2.6647 297.443> 672 132<2.6647 347.031>
LayerCount: 2
Fore
SplineSet
296 540 m 0
 296 578 327 609 367 609 c 0
 407 609 438 578 438 540 c 0
 438 502 407 471 367 471 c 0
 327 471 296 502 296 540 c 0
216 349 m 1
 254 398 316 439 365 439 c 0
 454.6 439 482 409 502 359 c 1
 559 419 611 439 661 439 c 0
 769 439 804 380 804 280 c 2
 804 180 l 2
 804 104 808 57 816 0 c 1
 814 -3 l 1
 814 -3 775 0 741 0 c 0
 706 0 661 -3 661 -3 c 1
 660 0 l 1
 668 54 672 105 672 180 c 2
 672 273 l 2
 672 340 649 362 617 362 c 0
 578 362 556 351 508 298 c 1
 509 286 509 282 509 268 c 2
 509 180 l 2
 509 104 513 57 521 0 c 1
 519 -3 l 1
 519 -3 480 0 446 0 c 0
 411 0 366 -3 366 -3 c 1
 365 0 l 1
 373 54 377 105 377 180 c 2
 377 281 l 2
 377 348 356 362 318 362 c 0
 290 362 254 332 212 281 c 1
 212 180 l 2
 212 104 214 57 222 0 c 1
 220 -3 l 1
 220 -3 180 0 146 0 c 0
 111 0 69 -3 69 -3 c 1
 68 0 l 1
 76 54 80 105 80 180 c 2
 80 235 l 2
 80 309.7 76.7 386.3 69 429 c 1
 71 432 l 1
 106 430.3 171 430.3 200 435 c 1
 206.3 435 207.8 431.9 209 425 c 0
 210.5 416.5 211.8 374.8 211.8 352 c 1
 216 349 l 1
EndSplineSet
LCarets2: 1 0 
Colour: ff00ff
EndChar

StartChar: uni1E42
Encoding: 7746 7746 195
Width: 921
VWidth: 999
Flags: HW
HStem: -219 142<340.5 449.5> -3 21<46.5 59.5 132.5 138.487 372.88 499.552 743.173 757.5 874.5 882.5>
VStem: 320 150<-198.5 -97.5>
LayerCount: 2
Fore
SplineSet
324 -148 m 0
 324 -110 355 -79 395 -79 c 0
 435 -79 466 -110 466 -148 c 0
 466 -186 435 -217 395 -217 c 0
 355 -217 324 -186 324 -148 c 0
161 653 m 1
 263 653 l 1
 322.9 492 380.9 346 459 188 c 1
 463 188 l 1
 713 653 l 1
 802 653 l 1
 828 407 850 214 881 -3 c 1
 866 0 823 0 808 0 c 0
 793 0 745 0 730 -3 c 1
 716 163 703 312 684 470 c 1
 681 470 l 1
 596.9 316.5 516 166 443 0 c 1
 379 0 l 1
 325.9 149.5 261.9 309 189 469 c 1
 186 470 l 1
 159.9 314.5 134.9 102.5 131 -3 c 1
 120 0 86 0 75 0 c 0
 63 0 40 0 29 -3 c 1
 71.9 188 124.9 439 161 653 c 1
EndSplineSet
LCarets2: 1 0 
Colour: ff00ff
EndChar

